<svg id="Layer_1" data-name="Layer 1" xmlns="http://www.w3.org/2000/svg" viewBox="0 0 613 1234"><defs><style>.cls-1{fill:none;stroke:#fff;stroke-miterlimit:10;stroke-width:5px;}</style></defs><title>phone</title><path class="cls-1" d="M533.31,10H88.69A81.69,81.69,0,0,0,7,91.65V1157.28A81.69,81.69,0,0,0,88.69,1239H533.31A81.69,81.69,0,0,0,615,1157.28V91.65A81.69,81.69,0,0,0,533.31,10ZM113.82,78.8a12.93,12.93,0,1,1,12.93-12.93A12.93,12.93,0,0,1,113.82,78.8Zm208.12,40.6H299.87a7.64,7.64,0,1,1,0-15.27h22.08a7.64,7.64,0,0,1,0,15.27ZM367.24,72H255.48a7,7,0,1,1,0-14H367.24a7,7,0,1,1,0,14Z" transform="translate(-4.5 -7.47)"/></svg>