<?xml version="1.0" encoding="utf-8"?>
<!-- Generator: Adobe Illustrator 24.3.0, SVG Export Plug-In . SVG Version: 6.00 Build 0)  -->
<svg version="1.1" xmlns="http://www.w3.org/2000/svg" xmlns:xlink="http://www.w3.org/1999/xlink" x="0px" y="0px"
	 viewBox="0 0 162 175.1" style="enable-background:new 0 0 162 175.1;" xml:space="preserve">
<style type="text/css">
	.st0{fill:#FF00FF;}
	.st1{display:none;fill:#F0F0F0;}
	.st2{fill:none;stroke:#F2F2F2;stroke-width:2;stroke-linecap:round;stroke-miterlimit:10;}
	.st3{display:none;}
	.st4{display:inline;fill:none;stroke:#FF1EFF;stroke-miterlimit:10;}
	.st5{display:inline;fill:#FF1EFF;}
	.st6{display:inline;}
	.st7{fill:#FF1EFF;}
	.st8{fill:none;stroke:#FF1EFF;stroke-width:0.25;stroke-miterlimit:10;}
	.st9{display:inline;fill:none;stroke:#FF1EFF;stroke-width:0.5;stroke-miterlimit:10;}
	.st10{display:inline;fill:none;stroke:#FF1EFF;stroke-width:0.25;stroke-miterlimit:10;}
</style>
<g id="mac">
	<g id="Frame">
		<path class="st0" d="M91.8,102.3c-0.1,0-0.2,0-0.2,0L13.1,93c-1-0.1-1.8-1-1.8-2l1.4-69c0-0.8,0.7-1.5,1.6-1.5l79.2,4.6
			c1.6,0.1,2.9,1.4,2.8,3l-2.3,72.1C94,101.4,93,102.3,91.8,102.3z M14.2,21.5c-0.3,0-0.5,0.2-0.5,0.5l-0.5,0l0.5,0l-1.4,69
			c0,0.5,0.4,0.9,0.9,1l78.5,9.3c0.7,0.1,1.4-0.5,1.4-1.2l2.3-72.1c0-1.1-0.8-1.9-1.9-2L14.2,21.5C14.3,21.5,14.2,21.5,14.2,21.5z"
			/>
		<path class="st0" d="M82.8,97.2c-27.2,0-59.4-6.2-63.2-6.9c-2.5-0.5-4.3-2.6-4.4-5.2c-0.3-9.4-0.8-33.8,1.7-55.7
			c0.3-2.9,2.8-5.1,5.7-5.1c26.8-0.2,55.6,2.5,66.7,3.6c2.3,0.2,4.1,2.3,3.9,4.6l-2.6,61.9c-0.1,1.5-1.3,2.7-2.7,2.7
			C86.2,97.1,84.5,97.2,82.8,97.2z M25.4,25.2c-1,0-1.9,0-2.9,0c-2.4,0-4.4,1.8-4.7,4.2c-2.5,21.8-2,46.1-1.7,55.5
			c0.1,2.1,1.6,3.8,3.6,4.2c4,0.8,40.1,7.7,68.1,6.8c1,0,1.7-0.8,1.8-1.7l2.6-61.9c0.1-1.8-1.2-3.4-3.1-3.6
			C78.4,27.8,51.3,25.2,25.4,25.2z"/>
		<path class="st0" d="M96,147.1c-0.1,0-0.2,0-0.3,0L7,133.5c-0.8-0.1-1.3-0.8-1.3-1.6L8.1,13.6c0-0.3,0.2-0.6,0.4-0.9
			c0.2-0.2,0.5-0.3,0.9-0.3l91.6,3.9c1.3,0.1,2.3,1.2,2.2,2.5l-4.8,126.1c0,0.1,0,0.2,0,0.3C98.2,146.2,97.1,147.1,96,147.1z
			 M7.2,132.5l88.6,13.6c0.7,0.1,1.5-0.4,1.6-1.2c0-0.1,0-0.1,0-0.2l4.8-126.1c0-0.7-0.5-1.4-1.3-1.4L9.3,13.4
			c-0.1,0-0.2,0.1-0.2,0.2L6.7,131.9C6.7,132.2,6.9,132.4,7.2,132.5z"/>
		<path class="st0" d="M157.3,24l-2.4-9.5c-0.7-2.6-3-4.5-5.6-4.5l-45.6-1.6c0,0-0.1,0-0.1,0L10.8,4.9c-1.1,0-2.2,0.4-3.1,1.2
			c-0.8,0.8-1.3,1.8-1.4,3l-2.8,127c0,1.7,1.2,3.1,2.8,3.4l6.7,1.1v10.6c0,0.8,0.6,1.5,1.4,1.6l99.9,16.2l0,0c0,0,0,0,0.1,0
			c0,0,0,0,0,0c0.2,0,0.4-0.1,0.5-0.1l40.6-24.3c1-0.6,1.7-1.7,1.7-2.9l1.1-107.7C158.6,30.6,158.2,27.2,157.3,24z M4.6,136.1
			l2.8-127c0-0.9,0.4-1.7,1-2.3C9,6.2,9.8,5.9,10.7,5.9c0,0,0.1,0,0.1,0l91.6,3.3l0,0c0.6,0,1.2,0.1,1.8,0.1
			c1.5,0.4,2.7,1.8,2.6,3.5l-4.9,137.5v0c0,0.1,0,0.3,0,0.4c-0.3,1.6-1.8,2.8-3.5,2.5L6.6,138.5C5.4,138.3,4.6,137.3,4.6,136.1z
			 M14.1,151.1v-10.4l84.1,13.4c0.2,0,0.4,0.1,0.6,0.1c1.9,0,3.6-1.4,4-3.4c0-0.2,0-0.3,0-0.5l4.9-137.4c0-1.3-0.5-2.4-1.3-3.3
			c4.4,0.6,4.7,1.7,4.4,6.1c-0.3,5-3.8,88.3-5.3,123.8l0,1.2c0,0.4,0.1,0.8,0.4,1.1c0.3,0.3,0.7,0.5,1.1,0.5c0.2,0,0.3,0,0.5-0.1
			l3.8-1.1c0.7-0.2,1.5,0.2,1.7,0.9c0,0.1,0,0.2,0.1,0.3l0.3,25.3l-98.8-16.1C14.4,151.7,14.1,151.4,14.1,151.1z M156.4,141.6
			c0,0.9-0.5,1.6-1.2,2.1l-40.7,24.2l-0.3-25.4c0-0.2,0-0.4-0.1-0.6c-0.2-0.6-0.6-1.1-1.1-1.4c-0.4-0.2-0.8-0.3-1.2-0.3
			c-0.2,0-0.4,0-0.7,0.1l-3.8,1.1c-0.1,0-0.1,0-0.2,0c-0.2,0-0.3-0.1-0.4-0.2c-0.1-0.1-0.2-0.3-0.1-0.4l0-1.2
			c1.5-35.6,5-118.8,5.3-123.8c0.2-3.6-0.2-5.3-1.9-6.3l39.1,1.4c2.2,0.1,4.2,1.6,4.7,3.8l2.4,9.5c0.8,3.1,1.2,6.4,1.2,9.6
			L156.4,141.6z"/>
	</g>
	<g id="Disc_drive">
		<g>
			<g>
				<path class="st0" d="M90.7,129.8c-0.1,0-0.1,0-0.2,0l-15.8-2.2c-0.5-0.1-0.8-0.5-0.8-1v-2c0-0.2-0.2-0.4-0.4-0.5l-26-3.3
					c-0.5-0.1-0.8-0.5-0.8-1v-4.3c0-0.3,0.1-0.5,0.3-0.7c0.2-0.2,0.4-0.3,0.7-0.3c0,0,0.1,0,0.1,0l25.6,3.2c0.1,0,0.2,0,0.3-0.1
					s0.2-0.2,0.2-0.3l0-1.9c0-0.3,0.1-0.5,0.3-0.7c0.2-0.2,0.4-0.3,0.7-0.3c0,0,0,0,0,0c0,0,0.1,0,0.1,0l15.9,1.8
					c0.7,0.1,1.2,0.6,1.2,1.3v10.6C92,129.2,91.4,129.8,90.7,129.8C90.7,129.8,90.7,129.8,90.7,129.8z M47.7,115.1
					c-0.2,0-0.3,0-0.4,0.1c-0.1,0.1-0.1,0.2-0.1,0.3v4.3c0,0.2,0.2,0.4,0.4,0.5l26,3.3c0.5,0.1,0.8,0.5,0.8,1v2
					c0,0.2,0.2,0.4,0.4,0.5l15.8,2.2c0,0,0.1,0,0.1,0c0.5,0,0.8-0.4,0.8-0.8v-10.6c0-0.4-0.3-0.8-0.8-0.8l0,0l-15.9-1.8
					c-0.2,0-0.3,0-0.4,0.1c-0.1,0.1-0.1,0.2-0.1,0.3v1.8c0,0,0,0.1,0,0.1c0,0.3-0.2,0.5-0.4,0.6c-0.2,0.2-0.5,0.2-0.7,0.2
					L47.7,115.1C47.7,115.1,47.7,115.1,47.7,115.1z"/>
			</g>
		</g>
		<g>
			<path class="st0" d="M88.9,118.3l-10.4-1.4c0,0-0.1,0-0.1,0c-0.3,0-0.5,0.1-0.7,0.3c-0.2,0.2-0.3,0.4-0.3,0.7l0,2l0,0v0
				c0,0.1-0.1,0.1-0.1,0.1l-25.5-3.5c0,0,0,0,0,0l-1.1-0.2l-0.1,0c-0.2,0-0.3,0.1-0.4,0.2c-0.1,0.1-0.2,0.3-0.2,0.4v2.2
				c0,0.3,0.2,0.6,0.5,0.6l1.2,0.2c0,0,0,0,0,0l25.6,3.5c0.1,0,0.1,0.1,0.1,0.1v1.8c0,0.5,0.4,0.9,0.8,1l10.4,1.4c0,0,0.1,0,0.1,0
				c0,0,0,0,0,0c0.3,0,0.5-0.1,0.7-0.3c0.2-0.2,0.3-0.4,0.3-0.7V126v-4.8v-2C89.7,118.8,89.3,118.4,88.9,118.3z M78,117.6
				c0.1-0.1,0.2-0.1,0.3-0.1c0,0,0,0,0.1,0l10.4,1.4c0.2,0,0.4,0.2,0.4,0.5v1.7l-11.3-1.3v-1.7C77.9,117.8,77.9,117.6,78,117.6z
				 M89.2,125.7l-11.3-1.4v-0.8c0-0.1,0-0.2,0-0.2c-0.1-0.2-0.3-0.4-0.5-0.4L52,119.4V117l25.2,3.5c0,0,0,0,0,0l0.4,0.1
				c0.1,0,0.1,0,0.2-0.1s0.1-0.1,0.1-0.2v-0.2l11.3,1.3V125.7z M50.4,119.1v-2.2c0-0.1,0.1-0.1,0.1-0.1c0,0,0,0,0,0l0.9,0.1v2.5
				l-1-0.1C50.5,119.2,50.4,119.2,50.4,119.1z M89.1,127.1c-0.1,0.1-0.2,0.1-0.3,0.1c0,0,0,0,0,0l-10.4-1.4c-0.2,0-0.4-0.2-0.4-0.5
				v-0.5l11.3,1.4v0.5C89.2,126.9,89.2,127,89.1,127.1z"/>
		</g>
	</g>
	<g id="vents">
		<g>
			<path class="st0" d="M129.2,155.5c-0.2,0-0.3-0.1-0.3-0.3v-0.5c0-0.1,0.1-0.2,0.2-0.3l4.1-2.4c0,0,0.1,0,0.2,0
				c0.2,0,0.3,0.1,0.3,0.3v0.6c0,0.1-0.1,0.2-0.2,0.3l-4.1,2.3C129.3,155.5,129.2,155.5,129.2,155.5
				C129.2,155.5,129.2,155.5,129.2,155.5z M129.2,155.2l0.1,0.1L129.2,155.2l4.1-2.3c0,0,0,0,0,0v-0.6c0,0,0-0.1-0.1-0.1l-4.1,2.4
				c0,0,0,0,0,0L129.2,155.2C129.1,155.2,129.1,155.2,129.2,155.2L129.2,155.2z"/>
		</g>
		<g>
			<path class="st0" d="M134.9,152.2C134.9,152.2,134.9,152.2,134.9,152.2c-0.2,0-0.3-0.2-0.3-0.3l0-0.5c0-0.1,0.1-0.2,0.2-0.3
				l4.1-2.4c0,0,0.1,0,0.2,0c0.2,0,0.3,0.1,0.3,0.3v0.6c0,0.1-0.1,0.2-0.2,0.3l-4.1,2.3C135,152.2,134.9,152.2,134.9,152.2z
				 M139,148.9C139,148.9,139,148.9,139,148.9l-4.1,2.4c0,0,0,0,0,0v0.5c0,0,0,0.1,0,0.1c0,0,0,0,0,0l4.1-2.3c0,0,0,0,0,0L139,148.9
				C139,149,139,148.9,139,148.9z"/>
		</g>
		<g>
			<path class="st0" d="M140.3,149.1C140.3,149.1,140.3,149.1,140.3,149.1c-0.1,0-0.2,0-0.2-0.1s-0.1-0.1-0.1-0.2v-0.5
				c0-0.1,0.1-0.2,0.2-0.3l4.1-2.4c0,0,0.1,0,0.2,0c0.1,0,0.2,0,0.2,0.1c0.1,0.1,0.1,0.1,0.1,0.2v0.6c0,0.1-0.1,0.2-0.2,0.3
				l-4.1,2.3C140.4,149.1,140.4,149.1,140.3,149.1z M144.4,145.8l-4.1,2.4c0,0,0,0,0,0v0.5c0,0,0,0,0,0.1c0,0,0,0,0,0c0,0,0,0,0,0
				l0,0l4.1-2.3c0,0,0,0,0,0L144.4,145.8C144.5,145.9,144.5,145.9,144.4,145.8C144.5,145.8,144.4,145.8,144.4,145.8z"/>
		</g>
		<g>
			<path class="st0" d="M145.7,146C145.7,146,145.7,146,145.7,146c-0.2,0-0.3-0.1-0.3-0.3v-0.5c0-0.1,0.1-0.2,0.2-0.3l4.1-2.4
				c0,0,0.1,0,0.2,0c0.1,0,0.2,0,0.2,0.1c0.1,0.1,0.1,0.1,0.1,0.2v0.6c0,0.1-0.1,0.2-0.2,0.3l-4.1,2.3
				C145.8,146,145.7,146,145.7,146z M149.7,142.8l-4.1,2.4c0,0,0,0,0,0v0.5c0,0,0,0.1,0.1,0.1l0,0l4.1-2.3c0,0,0,0,0,0L149.7,142.8
				C149.8,142.8,149.8,142.8,149.7,142.8z"/>
		</g>
		<g>
			<path class="st0" d="M151,142.9C151,142.9,151,142.9,151,142.9c-0.2,0-0.3-0.1-0.3-0.3V142c0-0.1,0.1-0.2,0.2-0.3l4-2.4
				c0,0,0.1,0,0.2,0c0.1,0,0.2,0,0.2,0.1c0.1,0.1,0.1,0.1,0.1,0.2v0.6c0,0.1-0.1,0.2-0.2,0.3L151,142.9
				C151.1,142.9,151.1,142.9,151,142.9z M155.1,139.6L151,142c0,0,0,0,0,0v0.5c0,0,0,0.1,0.1,0.1l0,0l4.1-2.3c0,0,0,0,0,0
				L155.1,139.6C155.1,139.7,155.1,139.7,155.1,139.6C155.1,139.6,155.1,139.6,155.1,139.6z"/>
		</g>
		<g>
			<path class="st0" d="M123.2,158.9C123.1,158.9,123.1,158.9,123.2,158.9c-0.2,0-0.3-0.2-0.3-0.4l0-0.5c0-0.1,0.1-0.2,0.2-0.3
				l4.1-2.3c0,0,0.1,0,0.2,0c0.1,0,0.2,0,0.2,0.1c0.1,0.1,0.1,0.1,0.1,0.2v0.6c0,0.1-0.1,0.2-0.2,0.3l-4.1,2.3
				C123.2,158.9,123.2,158.9,123.2,158.9z M127.2,155.7l-4.1,2.3c0,0,0,0,0,0v0.5c0,0.1,0,0.1,0,0.1c0,0,0,0,0,0l4.1-2.3
				c0,0,0,0,0,0L127.2,155.7C127.3,155.7,127.3,155.7,127.2,155.7z"/>
		</g>
		<g>
			<path class="st0" d="M117.6,162.1C117.6,162.1,117.6,162.1,117.6,162.1c-0.2,0-0.3-0.1-0.3-0.3v-0.5c0-0.1,0.1-0.2,0.2-0.3
				l4.1-2.4c0,0,0.1,0,0.2,0c0.1,0,0.2,0,0.2,0.1c0.1,0.1,0.1,0.1,0.1,0.2v0.6c0,0.1-0.1,0.2-0.2,0.3l-4.1,2.3
				C117.8,162.1,117.7,162.1,117.6,162.1z M121.7,158.8l-4.1,2.4c0,0,0,0,0,0v0.5c0,0,0,0.1,0.1,0.1l0.1,0.1l-0.1-0.1l4.1-2.3
				c0,0,0,0,0,0L121.7,158.8C121.8,158.9,121.8,158.8,121.7,158.8z"/>
		</g>
		<g>
			<path class="st0" d="M129.2,153.6c-0.1,0-0.1,0-0.2-0.1c-0.1-0.1-0.1-0.1-0.1-0.2v-0.5c0-0.1,0.1-0.2,0.2-0.3l4.1-2.4
				c0,0,0.1,0,0.2,0c0.1,0,0.2,0,0.2,0.1c0.1,0.1,0.1,0.1,0.1,0.2v0.6c0,0.1-0.1,0.2-0.2,0.3l-4.1,2.3
				C129.3,153.5,129.2,153.6,129.2,153.6C129.2,153.6,129.2,153.6,129.2,153.6z M129.2,153.3l0.1,0.1L129.2,153.3l4.1-2.3
				c0,0,0,0,0,0v-0.6c0,0,0-0.1-0.1-0.1l-4.1,2.4c0,0,0,0,0,0L129.2,153.3C129.1,153.3,129.2,153.3,129.2,153.3z"/>
		</g>
		<g>
			<path class="st0" d="M134.9,150.3C134.9,150.3,134.9,150.3,134.9,150.3c-0.1,0-0.2,0-0.2-0.1c-0.1-0.1-0.1-0.1-0.1-0.2v-0.5
				c0-0.1,0.1-0.2,0.2-0.3l4.1-2.4c0,0,0.1,0,0.2,0c0.2,0,0.3,0.1,0.3,0.3v0.6c0,0.1-0.1,0.2-0.2,0.3l-4.1,2.3
				C135,150.3,134.9,150.3,134.9,150.3z M139,147C139,147,139,147,139,147l-4.1,2.4c0,0,0,0,0,0v0.5c0,0,0,0.1,0.1,0.1l0,0l4.1-2.3
				c0,0,0,0,0,0L139,147C139,147,139,147,139,147z"/>
		</g>
		<g>
			<path class="st0" d="M140.3,147.2c-0.1,0-0.2,0-0.2-0.1c-0.1-0.1-0.1-0.1-0.1-0.2v-0.5c0-0.1,0.1-0.2,0.2-0.3l4.1-2.4
				c0.1,0,0.1,0,0.2,0c0.1,0,0.2,0,0.2,0.1c0.1,0.1,0.1,0.1,0.1,0.2v0.6c0,0.1-0.1,0.2-0.2,0.3l-4.1,2.3
				C140.4,147.2,140.4,147.2,140.3,147.2C140.3,147.2,140.3,147.2,140.3,147.2z M144.4,143.9l-4.1,2.4c0,0,0,0,0,0v0.5
				c0,0,0,0,0.1,0c0,0,0,0,0,0l0,0l4.1-2.3c0,0,0,0,0,0L144.4,143.9C144.5,143.9,144.5,143.9,144.4,143.9
				C144.5,143.9,144.4,143.9,144.4,143.9z"/>
		</g>
		<g>
			<path class="st0" d="M145.7,144.1C145.7,144.1,145.7,144.1,145.7,144.1c-0.2,0-0.3-0.1-0.3-0.3v-0.5c0-0.1,0.1-0.2,0.2-0.3
				l4.1-2.4c0,0,0.1,0,0.2,0c0.1,0,0.2,0,0.2,0.1c0.1,0.1,0.1,0.1,0.1,0.2v0.6c0,0.1-0.1,0.2-0.2,0.3l-4.1,2.3
				C145.8,144.1,145.7,144.1,145.7,144.1z M149.7,140.8l-4.1,2.4c0,0,0,0,0,0v0.5c0,0,0,0.1,0.1,0.1l0,0l4.1-2.3c0,0,0,0,0,0
				L149.7,140.8C149.8,140.9,149.8,140.9,149.7,140.8C149.8,140.8,149.8,140.8,149.7,140.8z"/>
		</g>
		<g>
			<path class="st0" d="M151,141C151,141,151,141,151,141c-0.2,0-0.3-0.1-0.3-0.3v-0.5c0-0.1,0.1-0.2,0.2-0.3l4.1-2.4
				c0,0,0.1,0,0.2,0c0.1,0,0.2,0,0.2,0.1c0.1,0.1,0.1,0.1,0.1,0.2v0.6c0,0.1-0.1,0.2-0.2,0.3l-4.1,2.3C151.1,141,151,141,151,141z
				 M155.1,137.7l-4.1,2.4c0,0,0,0,0,0v0.5c0,0,0,0.1,0.1,0.1l0,0l4.1-2.3c0,0,0,0,0,0L155.1,137.7
				C155.1,137.7,155.1,137.7,155.1,137.7C155.1,137.7,155.1,137.7,155.1,137.7z"/>
		</g>
		<g>
			<path class="st0" d="M123.2,157C123.1,157,123.1,157,123.2,157c-0.1,0-0.2-0.1-0.2-0.1c0-0.1-0.1-0.1-0.1-0.2l0-0.5
				c0-0.1,0.1-0.2,0.2-0.3l4.1-2.4c0,0,0.1,0,0.2,0c0.2,0,0.3,0.1,0.3,0.3v0.6c0,0.1-0.1,0.2-0.2,0.3l-4.1,2.3
				C123.2,157,123.2,157,123.2,157z M127.2,153.8l-4.1,2.4c0,0,0,0,0,0v0.5c0,0,0,0.1,0,0.1l0.1,0.1l-0.1-0.1l4.1-2.3c0,0,0,0,0,0
				L127.2,153.8C127.3,153.8,127.3,153.8,127.2,153.8z"/>
		</g>
		<g>
			<path class="st0" d="M117.6,160.2c-0.2,0-0.3-0.1-0.3-0.3v-0.5c0-0.1,0.1-0.2,0.2-0.3l4.1-2.4c0.1,0,0.1,0,0.2,0
				c0.1,0,0.2,0,0.2,0.1c0.1,0.1,0.1,0.1,0.1,0.2v0.6c0,0.1-0.1,0.2-0.2,0.3l-4.1,2.3C117.8,160.2,117.7,160.2,117.6,160.2
				C117.7,160.2,117.6,160.2,117.6,160.2z M117.6,159.9l0.1,0.1L117.6,159.9l4.1-2.3c0,0,0,0,0,0V157c0,0,0-0.1-0.1-0.1l-4.1,2.4
				c0,0,0,0,0,0L117.6,159.9C117.6,159.9,117.6,159.9,117.6,159.9L117.6,159.9z"/>
		</g>
		<g>
			<path class="st0" d="M129.2,151.6c-0.1,0-0.1,0-0.2-0.1c-0.1-0.1-0.1-0.1-0.1-0.2v-0.5c0-0.1,0.1-0.2,0.2-0.3l4.1-2.4
				c0,0,0.1,0,0.2,0c0.1,0,0.2,0,0.2,0.1c0.1,0.1,0.1,0.1,0.1,0.2v0.6c0,0.1-0.1,0.2-0.2,0.3l-4.1,2.3
				C129.3,151.6,129.2,151.6,129.2,151.6C129.2,151.6,129.2,151.6,129.2,151.6z M129.2,151.4l0.1,0.1L129.2,151.4l4.1-2.3
				c0,0,0,0,0,0v-0.6c0,0,0-0.1-0.1-0.1l-4.1,2.4c0,0,0,0,0,0L129.2,151.4C129.1,151.4,129.2,151.4,129.2,151.4z"/>
		</g>
		<g>
			<path class="st0" d="M134.9,148.4c-0.2,0-0.3-0.1-0.3-0.3v-0.5c0-0.1,0.1-0.2,0.2-0.3l4.1-2.4c0,0,0.1,0,0.2,0
				c0.2,0,0.3,0.1,0.3,0.3v0.6c0,0.1-0.1,0.2-0.2,0.3l-4.1,2.3C135,148.4,135,148.4,134.9,148.4
				C134.9,148.4,134.9,148.4,134.9,148.4z M134.9,148.1l0.1,0.1L134.9,148.1l4.1-2.3c0,0,0,0,0,0v-0.6c0,0,0-0.1-0.1-0.1l-4.1,2.4
				c0,0,0,0,0,0L134.9,148.1C134.8,148.1,134.9,148.1,134.9,148.1z"/>
		</g>
		<g>
			<path class="st0" d="M140.3,145.3C140.3,145.3,140.3,145.3,140.3,145.3c-0.1,0-0.2,0-0.2-0.1c-0.1-0.1-0.1-0.1-0.1-0.2v-0.5
				c0-0.1,0.1-0.2,0.2-0.3l4.1-2.4c0,0,0.1,0,0.2,0c0.1,0,0.2,0,0.2,0.1c0.1,0.1,0.1,0.1,0.1,0.2v0.6c0,0.1-0.1,0.2-0.2,0.3
				l-4.1,2.3C140.4,145.2,140.4,145.3,140.3,145.3z M144.4,142C144.4,142,144.4,142,144.4,142l-4.1,2.4c0,0,0,0,0,0v0.5c0,0,0,0,0,0
				c0,0,0,0,0,0l0,0l4.1-2.3c0,0,0,0,0,0L144.4,142C144.5,142,144.4,142,144.4,142z"/>
		</g>
		<g>
			<path class="st0" d="M145.7,142.2c-0.2,0-0.3-0.1-0.3-0.3v-0.5c0-0.1,0.1-0.2,0.2-0.3l4.1-2.4c0.1,0,0.1,0,0.2,0
				c0.1,0,0.2,0,0.2,0.1c0.1,0.1,0.1,0.1,0.1,0.2v0.6c0,0.1-0.1,0.2-0.2,0.3l-4.1,2.3C145.8,142.2,145.7,142.2,145.7,142.2
				C145.7,142.2,145.7,142.2,145.7,142.2z M149.7,138.9l-4.1,2.4c0,0,0,0,0,0v0.5c0,0,0,0,0.1,0h0l0,0l4.1-2.3c0,0,0,0,0,0
				L149.7,138.9C149.8,138.9,149.8,138.9,149.7,138.9C149.8,138.9,149.8,138.9,149.7,138.9z"/>
		</g>
		<g>
			<path class="st0" d="M151,139C151,139,151,139,151,139c-0.2,0-0.3-0.1-0.3-0.3v-0.5c0-0.1,0.1-0.2,0.2-0.3l4.1-2.4
				c0,0,0.1,0,0.2,0c0.1,0,0.2,0,0.2,0.1c0.1,0.1,0.1,0.1,0.1,0.2v0.6c0,0.1-0.1,0.2-0.2,0.3l-4.1,2.3C151.1,139,151,139,151,139z
				 M155.1,135.8l-4.1,2.4c0,0,0,0,0,0v0.5c0,0,0,0.1,0.1,0.1l0,0l4.1-2.3c0,0,0,0,0,0L155.1,135.8
				C155.1,135.8,155.1,135.8,155.1,135.8z"/>
		</g>
		<g>
			<path class="st0" d="M123.2,155c-0.1,0-0.1,0-0.2,0c-0.1,0-0.1-0.1-0.1-0.2l0-0.6c0-0.1,0.1-0.2,0.2-0.3l4.1-2.4c0,0,0.1,0,0.2,0
				c0.1,0,0.2,0,0.2,0.1c0.1,0.1,0.1,0.1,0.1,0.2v0.5c0,0.1-0.1,0.2-0.2,0.3l-4.1,2.3C123.3,155,123.3,155,123.2,155
				C123.2,155,123.2,155,123.2,155z M123.1,154.8C123.1,154.8,123.1,154.8,123.1,154.8l4.2-2.3c0,0,0,0,0,0v-0.5c0,0,0-0.1-0.1-0.1
				l-4.1,2.4c0,0,0,0,0,0L123.1,154.8C123.1,154.8,123.1,154.8,123.1,154.8z"/>
		</g>
		<g>
			<path class="st0" d="M117.6,158.3C117.6,158.3,117.6,158.3,117.6,158.3c-0.1,0-0.2,0-0.2-0.1c-0.1-0.1-0.1-0.1-0.1-0.2v-0.5
				c0-0.1,0.1-0.2,0.2-0.3l4.1-2.4c0,0,0.1,0,0.2,0c0.2,0,0.3,0.1,0.3,0.3v0.6c0,0.1-0.1,0.2-0.2,0.3l-4.1,2.3
				C117.8,158.2,117.7,158.3,117.6,158.3z M121.7,155C121.7,155,121.7,155,121.7,155l-4.1,2.4c0,0,0,0,0,0v0.5c0,0,0,0.1,0.1,0.1
				l0.1,0.1l-0.1-0.1l4.1-2.3c0,0,0,0,0,0L121.7,155C121.8,155,121.8,155,121.7,155z"/>
		</g>
		<g>
			<path class="st0" d="M129.2,149.7c-0.2,0-0.3-0.1-0.3-0.3l0-0.5c0-0.1,0.1-0.2,0.2-0.3l4.1-2.4c0,0,0.1,0,0.2,0
				c0.2,0,0.3,0.1,0.3,0.3v0.6c0,0.1-0.1,0.2-0.2,0.3l-4.1,2.3C129.3,149.7,129.2,149.7,129.2,149.7
				C129.2,149.7,129.2,149.7,129.2,149.7z M129.2,149.4l0.1,0.1L129.2,149.4l4.1-2.3c0,0,0,0,0,0v-0.6c0,0,0-0.1-0.1-0.1l-4.1,2.4
				c0,0,0,0,0,0L129.2,149.4C129.1,149.4,129.1,149.5,129.2,149.4z"/>
		</g>
		<g>
			<path class="st0" d="M134.9,146.4c-0.2,0-0.3-0.1-0.3-0.3v-0.5c0-0.1,0.1-0.2,0.2-0.3l4.1-2.4c0.1,0,0.1,0,0.2,0
				c0.1,0,0.2,0,0.2,0.1c0.1,0.1,0.1,0.1,0.1,0.2v0.6c0,0.1-0.1,0.2-0.2,0.3l-4.1,2.3C135,146.4,134.9,146.4,134.9,146.4z
				 M139,143.2C139,143.2,139,143.2,139,143.2l-4.1,2.4c0,0,0,0,0,0v0.5c0,0,0,0.1,0.1,0.1l0,0l4.1-2.3c0,0,0,0,0,0L139,143.2
				C139,143.2,139,143.2,139,143.2L139,143.2z"/>
		</g>
		<g>
			<path class="st0" d="M140.3,143.3C140.3,143.3,140.3,143.3,140.3,143.3c-0.1,0-0.2,0-0.2-0.1c-0.1-0.1-0.1-0.1-0.1-0.2v-0.5
				c0-0.1,0.1-0.2,0.2-0.3l4.1-2.4c0,0,0.1,0,0.2,0c0.1,0,0.2,0,0.2,0.1c0.1,0.1,0.1,0.1,0.1,0.2v0.6c0,0.1-0.1,0.2-0.2,0.3
				l-4.1,2.3C140.4,143.3,140.4,143.3,140.3,143.3z M144.4,140.1l-4.1,2.4c0,0,0,0,0,0v0.5c0,0,0,0,0,0c0,0,0,0,0,0l0,0l4.1-2.3
				c0,0,0,0,0,0L144.4,140.1C144.5,140.1,144.5,140.1,144.4,140.1C144.5,140.1,144.4,140.1,144.4,140.1z"/>
		</g>
		<g>
			<path class="st0" d="M145.7,140.3C145.7,140.3,145.7,140.3,145.7,140.3c-0.2,0-0.3-0.1-0.3-0.3v-0.5c0-0.1,0.1-0.2,0.2-0.3
				l4.1-2.4c0,0,0.1,0,0.2,0c0.1,0,0.2,0,0.2,0.1c0.1,0.1,0.1,0.1,0.1,0.2v0.6c0,0.1-0.1,0.2-0.2,0.3l-4.1,2.3
				C145.8,140.2,145.7,140.3,145.7,140.3z M149.7,137C149.7,137,149.7,137,149.7,137l-4.1,2.4c0,0,0,0,0,0v0.5c0,0,0,0.1,0.1,0.1
				l0,0l4.1-2.3c0,0,0,0,0,0L149.7,137C149.8,137,149.8,137,149.7,137z"/>
		</g>
		<g>
			<path class="st0" d="M151,137.1C151,137.1,151,137.1,151,137.1c-0.1,0-0.2-0.1-0.2-0.1c0-0.1-0.1-0.1-0.1-0.2l0-0.5
				c0-0.1,0.1-0.2,0.2-0.3l4.1-2.4c0,0,0.1,0,0.2,0c0.1,0,0.2,0,0.2,0.1c0.1,0.1,0.1,0.1,0.1,0.2v0.6c0,0.1-0.1,0.2-0.2,0.3
				l-4.1,2.3h0C151.1,137.1,151,137.1,151,137.1z M155.1,133.8l-4.1,2.4c0,0,0,0,0,0v0.5c0,0,0,0.1,0,0.1c0,0,0,0,0,0l4.1-2.3
				c0,0,0,0,0,0L155.1,133.8C155.1,133.9,155.1,133.9,155.1,133.8C155.1,133.8,155.1,133.8,155.1,133.8z"/>
		</g>
		<g>
			<path class="st0" d="M123.2,153.1c0,0-0.1,0-0.1,0c-0.1,0-0.1-0.1-0.1-0.2l0,0v-0.6c0-0.1,0.1-0.2,0.2-0.3l4.1-2.4
				c0.1,0,0.1,0,0.2,0c0.1,0,0.2,0,0.2,0.1c0.1,0.1,0.1,0.1,0.1,0.2v0.6c0,0.1-0.1,0.2-0.2,0.3L123.2,153.1
				C123.2,153.1,123.2,153.1,123.2,153.1z M123.1,152.9C123.1,152.9,123.1,152.9,123.1,152.9C123.1,152.9,123.2,152.9,123.1,152.9
				L123.1,152.9l4.2-2.3c0,0,0,0,0,0v-0.6c0,0,0-0.1-0.1-0.1l-4.1,2.4c0,0,0,0,0,0V152.9z"/>
		</g>
		<g>
			<path class="st0" d="M117.6,156.3C117.6,156.3,117.6,156.3,117.6,156.3c-0.1,0-0.2,0-0.2-0.1c-0.1-0.1-0.1-0.1-0.1-0.2v-0.5
				c0-0.1,0.1-0.2,0.2-0.3l4.1-2.4c0,0,0.1,0,0.2,0c0.1,0,0.2,0,0.2,0.1c0.1,0.1,0.1,0.1,0.1,0.2v0.6c0,0.1-0.1,0.2-0.2,0.3
				l-4.1,2.3C117.8,156.3,117.7,156.3,117.6,156.3z M121.7,153.1l-4.1,2.4c0,0,0,0,0,0v0.5c0,0,0,0.1,0.1,0.1l0.1,0.1l-0.1-0.1
				l4.1-2.3c0,0,0,0,0,0L121.7,153.1C121.8,153.1,121.8,153.1,121.7,153.1z"/>
		</g>
		<g>
			<path class="st0" d="M129.2,147.8c-0.2,0-0.3-0.1-0.3-0.3V147c0-0.1,0.1-0.2,0.2-0.3l4.1-2.4c0,0,0.1,0,0.2,0
				c0.2,0,0.3,0.1,0.3,0.3v0.6c0,0.1-0.1,0.2-0.2,0.3l-4.1,2.3C129.3,147.8,129.2,147.8,129.2,147.8
				C129.2,147.8,129.2,147.8,129.2,147.8z M129.2,147.5l0.1,0.1L129.2,147.5l4.1-2.3c0,0,0,0,0,0v-0.6c0,0,0-0.1-0.1-0.1l-4.1,2.4
				c0,0,0,0,0,0L129.2,147.5C129.1,147.5,129.1,147.5,129.2,147.5L129.2,147.5z"/>
		</g>
		<g>
			<path class="st0" d="M134.9,144.5C134.9,144.5,134.9,144.5,134.9,144.5c-0.1,0-0.2,0-0.2-0.1c-0.1-0.1-0.1-0.1-0.1-0.2v-0.5
				c0-0.1,0.1-0.2,0.2-0.3l4.1-2.4c0,0,0.1,0,0.2,0c0.2,0,0.3,0.1,0.3,0.3v0.6c0,0.1-0.1,0.2-0.2,0.3l-4.1,2.3
				C135,144.5,134.9,144.5,134.9,144.5z M139,141.2C139,141.2,139,141.2,139,141.2l-4.1,2.4c0,0,0,0,0,0v0.5c0,0,0,0.1,0.1,0.1l0,0
				l4.1-2.3c0,0,0,0,0,0L139,141.2C139,141.3,139,141.2,139,141.2z"/>
		</g>
		<g>
			<path class="st0" d="M140.3,141.4C140.3,141.4,140.3,141.4,140.3,141.4c-0.1,0-0.2,0-0.2-0.1c-0.1-0.1-0.1-0.1-0.1-0.2v-0.5
				c0-0.1,0.1-0.2,0.2-0.3l4.1-2.4c0,0,0.1,0,0.2,0c0.1,0,0.2,0,0.2,0.1c0.1,0.1,0.1,0.1,0.1,0.2v0.6c0,0.1-0.1,0.2-0.2,0.3
				l-4.1,2.3C140.4,141.4,140.4,141.4,140.3,141.4z M144.4,138.1l-4.1,2.4c0,0,0,0,0,0v0.5c0,0,0,0,0,0c0,0,0,0,0,0l0,0l4.1-2.3
				c0,0,0,0,0,0L144.4,138.1C144.5,138.2,144.5,138.2,144.4,138.1C144.5,138.1,144.4,138.1,144.4,138.1z"/>
		</g>
		<g>
			<path class="st0" d="M145.7,138.3C145.7,138.3,145.7,138.3,145.7,138.3c-0.2,0-0.3-0.1-0.3-0.3v-0.5c0-0.1,0.1-0.2,0.2-0.3
				l4.1-2.4c0,0,0.1,0,0.2,0c0.1,0,0.2,0,0.2,0.1c0.1,0.1,0.1,0.1,0.1,0.2v0.6c0,0.1-0.1,0.2-0.2,0.3l-4.1,2.3
				C145.8,138.3,145.7,138.3,145.7,138.3z M149.7,135.1l-4.1,2.4c0,0,0,0,0,0v0.5c0,0,0,0.1,0.1,0.1l0,0l4.1-2.3c0,0,0,0,0,0
				L149.7,135.1C149.8,135.1,149.8,135.1,149.7,135.1C149.8,135.1,149.8,135.1,149.7,135.1z"/>
		</g>
		<g>
			<path class="st0" d="M151,135.2C151,135.2,151,135.2,151,135.2c-0.2,0-0.3-0.1-0.3-0.3v-0.5c0-0.1,0.1-0.2,0.2-0.3l4.1-2.4
				c0,0,0.1,0,0.2,0c0.1,0,0.2,0,0.2,0.1c0.1,0.1,0.1,0.1,0.1,0.2v0.6c0,0.1-0.1,0.2-0.2,0.3l-4.1,2.3
				C151.1,135.2,151,135.2,151,135.2z M155.1,131.9l-4.1,2.4c0,0,0,0,0,0v0.5c0,0,0,0.1,0.1,0.1l0,0l4.1-2.3c0,0,0,0,0,0
				L155.1,131.9C155.1,132,155.1,131.9,155.1,131.9C155.1,131.9,155.1,131.9,155.1,131.9z"/>
		</g>
		<g>
			<path class="st0" d="M123.2,151.2C123.2,151.2,123.1,151.2,123.2,151.2c-0.1,0-0.2,0-0.2-0.1c-0.1-0.1-0.1-0.1-0.1-0.2v-0.5
				c0-0.1,0.1-0.2,0.2-0.3l4.1-2.4c0,0,0.1,0,0.2,0c0.2,0,0.3,0.1,0.3,0.3v0.6c0,0.1-0.1,0.2-0.2,0.3l-4.1,2.3
				C123.2,151.2,123.2,151.2,123.2,151.2z M127.2,147.9C127.2,147.9,127.2,147.9,127.2,147.9l-4.1,2.4c0,0,0,0,0,0v0.5
				c0,0,0,0.1,0,0.1l0.1,0.1l-0.1-0.1l4.1-2.3c0,0,0,0,0,0L127.2,147.9C127.3,148,127.3,147.9,127.2,147.9z"/>
		</g>
		<g>
			<path class="st0" d="M117.6,154.4c-0.2,0-0.3-0.1-0.3-0.3v-0.5c0-0.1,0.1-0.2,0.2-0.3l4.1-2.4c0.1,0,0.1,0,0.2,0
				c0.1,0,0.2,0,0.2,0.1c0.1,0.1,0.1,0.1,0.1,0.2v0.6c0,0.1-0.1,0.2-0.2,0.3l-4.1,2.3C117.8,154.4,117.7,154.4,117.6,154.4z
				 M121.7,151.1l-4.1,2.4c0,0,0,0,0,0v0.5c0,0,0,0.1,0.1,0.1l4.1-2.3c0,0,0,0,0,0L121.7,151.1C121.8,151.2,121.8,151.1,121.7,151.1
				z"/>
		</g>
	</g>
	<g id="Button">
		<path class="st0" d="M23.7,149.6c-0.7,0-1.3-0.6-1.3-1.4s0.6-1.4,1.3-1.4s1.3,0.6,1.3,1.4S24.4,149.6,23.7,149.6z M23.7,147.2
			c-0.4,0-0.8,0.4-0.8,0.9c0,0.5,0.4,0.9,0.8,0.9s0.8-0.4,0.8-0.9C24.5,147.6,24.1,147.2,23.7,147.2z"/>
	</g>
	<g id="apple">
		<g>
			<path class="st0" d="M14.1,116.6c-0.1,0-0.2,0-0.3,0c-0.1,0-0.2-0.1-0.4-0.2c-0.1,0-0.2-0.1-0.2-0.1c0,0-0.1,0-0.2,0
				c-0.1,0-0.2,0-0.2,0.1c-0.2,0-0.3,0-0.4,0c0,0,0,0,0,0c-0.2,0-0.3-0.1-0.5-0.2c-0.1-0.1-0.2-0.2-0.3-0.3
				c-0.3-0.5-0.6-1.1-0.7-1.7c0-0.2-0.1-0.3-0.1-0.5c0-0.2,0-0.4,0-0.5c0-0.3,0.1-0.5,0.2-0.8c0.1-0.2,0.2-0.4,0.4-0.6
				c0.2-0.1,0.4-0.2,0.7-0.2c0.1,0,0.2,0,0.3,0c0.1,0,0.2,0.1,0.3,0.1l0.4,0.2l0.2-0.1c0.1,0,0.2-0.1,0.4-0.1c0.1,0,0.2,0,0.4,0
				c0.2,0,0.3,0.1,0.4,0.2c0.3,0.2,0.5,0.4,0.6,0.7l0.1,0.2l-0.3,0.2c-0.1,0.1-0.2,0.2-0.2,0.3c0,0.1-0.1,0.2-0.1,0.3
				c0,0.2,0,0.3,0,0.5c0,0.2,0.1,0.3,0.2,0.5c0.1,0.1,0.2,0.2,0.3,0.3l0.1,0l0.1,0.3c0,0.2-0.1,0.3-0.1,0.4l0,0.1
				c-0.1,0.2-0.2,0.4-0.3,0.6c-0.1,0.1-0.1,0.2-0.2,0.3c-0.1,0.1-0.2,0.2-0.3,0.2C14.3,116.6,14.2,116.6,14.1,116.6z M13.2,115.8
				c0.1,0,0.1,0,0.2,0c0.2,0.1,0.3,0.1,0.4,0.2c0.1,0.1,0.2,0.1,0.2,0.1c0,0,0.1,0,0.1,0c0,0,0.1-0.1,0.1-0.1
				c0.1-0.1,0.1-0.1,0.2-0.2c0.1-0.2,0.2-0.3,0.3-0.5l0-0.1c0,0,0-0.1,0.1-0.1l0,0c-0.1-0.1-0.2-0.2-0.3-0.3
				c-0.2-0.2-0.3-0.4-0.3-0.7c0-0.2,0-0.4,0-0.7c0-0.1,0-0.3,0.1-0.4c0.1-0.2,0.2-0.3,0.3-0.5c-0.1-0.1-0.2-0.2-0.3-0.3
				c-0.1,0-0.2-0.1-0.2-0.1c0,0-0.1,0-0.2,0c-0.1,0-0.2,0-0.3,0.1l-0.5,0.1l-0.5-0.3c-0.1,0-0.1-0.1-0.2-0.1c0,0-0.1,0-0.1,0
				c-0.2,0-0.3,0-0.4,0.1c-0.1,0.1-0.2,0.2-0.3,0.4c-0.1,0.2-0.1,0.4-0.1,0.6c0,0.2,0,0.3,0,0.5c0,0.1,0,0.3,0.1,0.4
				c0.1,0.5,0.3,1.1,0.6,1.5c0.1,0.1,0.1,0.2,0.2,0.3c0.1,0.1,0.1,0.1,0.2,0.1c0.1,0,0.2,0,0.2,0c0,0,0.2,0,0.3-0.1
				C13.1,115.8,13.1,115.8,13.2,115.8z"/>
		</g>
		<g>
			<path class="st0" d="M13.3,111.5c0,0-0.1,0-0.1,0l-0.2,0l0-0.2c0-0.1,0-0.2,0-0.3c0-0.3,0.1-0.6,0.3-0.8c0.1-0.2,0.3-0.3,0.5-0.4
				c0.1,0,0.3,0,0.4,0l0.2,0l0,0.2c0,0.3-0.1,0.6-0.2,0.9c-0.1,0.1-0.2,0.3-0.4,0.4c-0.1,0.1-0.3,0.1-0.4,0.1
				C13.3,111.5,13.3,111.5,13.3,111.5z M13.9,110.4c-0.1,0-0.2,0.1-0.2,0.2c-0.1,0.1-0.2,0.3-0.2,0.4c0,0,0,0,0.1,0
				c0.1-0.1,0.2-0.1,0.2-0.2C13.8,110.6,13.8,110.5,13.9,110.4z"/>
		</g>
	</g>
</g>
<g id="hello">
	<path id="hello_1_" class="st1" d="M80.1,68.9c-0.1-0.2-0.2-0.3-0.4-0.3c-0.2,0-0.4,0.1-0.5,0.2c-0.7,1-1.9,1.6-3.1,1.5
		c-0.1,0-0.3,0-0.4-0.1c0.1-0.5,0.2-1,0.2-1.5c0-0.9-0.2-1.8-0.6-2.6c-0.4-0.9-0.9-1.4-1.5-1.5c-0.1,0-0.3,0-0.4-0.1v-0.1
		c-0.2-0.4-0.9-0.7-2.1-0.8c-1.1-0.1-2.3,0.1-3.3,0.6c-1,0.5-1.8,1.3-2.4,2.3c-0.3,0.5-0.5,1-0.7,1.5c-0.1,0.2-0.3,0.5-0.4,0.8
		c-0.4,0.9-0.8,1.7-1.3,2.5c-0.4,0.6-1.1,0.9-1.8,0.8c-0.7-0.1-1.2-0.5-1.6-1.1c-0.5-0.7-0.9-1.5-1.2-2.3c-0.3-0.6-0.3-1.2,0-1.8
		l0.1-0.2c1.5-2.4,2.8-4.9,3.8-7.5c0.8-1.9,1.3-3.8,1.4-5.9c0-0.7-0.2-1.4-0.5-2.1c-0.2-0.6-0.8-1-1.4-1.1c-0.6,0-1.1,0.2-1.5,0.6
		c-0.6,0.7-1.1,1.5-1.4,2.4c-0.5,1.2-0.9,2.5-1.2,3.7c-0.4,1.4-0.6,2.8-0.8,4.3c-0.2,1.3-0.3,2.7-0.3,4.1c0,0.6,0,1.2,0.1,1.8
		c-0.2,0.3-0.4,0.6-0.6,1.1c-0.4,0.9-0.8,1.7-1.3,2.5c-0.4,0.6-1.1,0.9-1.8,0.8c-0.7-0.1-1.2-0.5-1.6-1.1c-0.5-0.7-0.9-1.5-1.2-2.3
		c-0.3-0.6-0.3-1.2,0-1.8l0.1-0.1c1.5-2.4,2.8-4.9,3.8-7.5c0.8-1.9,1.3-3.8,1.4-5.8c0-0.7-0.2-1.4-0.5-2.1c-0.2-0.6-0.8-1-1.4-1.1
		c-0.6,0-1.1,0.2-1.4,0.7c-0.6,0.7-1.1,1.5-1.4,2.4c-0.5,1.2-0.9,2.5-1.2,3.7c-0.4,1.4-0.6,2.8-0.8,4.3c-0.2,1.3-0.3,2.7-0.3,4.1
		c0,0.6,0,1.2,0.1,1.7c-0.6,1-1.3,1.8-2.3,2.5c-0.8,0.6-1.8,0.9-2.8,0.9c-0.7-0.1-1.4-0.4-1.9-1c-0.5-0.7-0.8-1.4-0.9-2.3
		c1.3,0.2,2.6-0.3,3.5-1.3c0.9-0.9,1.4-2.1,1.5-3.4c0-0.6-0.1-1.2-0.5-1.8c-0.3-0.5-0.9-0.8-1.4-0.8c-0.9-0.1-1.8,0.2-2.4,0.9
		c-0.7,0.7-1.3,1.6-1.6,2.6c-0.4,1-0.5,2-0.6,3c-0.1,0.2-0.2,0.4-0.3,0.6c-0.3,0.7-0.7,1.4-1.2,2c-0.4,0.5-1.1,0.8-1.7,0.7
		c-0.5,0-1-0.4-1.2-0.9c-0.3-0.8-0.4-1.7-0.6-2.5c-0.1-0.9-0.3-1.8-0.7-2.7c-0.2-0.6-0.8-1-1.5-1c-1.1-0.1-2.3,1.1-3.7,3.7v-2.4
		c1.3-1.5,2.4-3.1,3.3-4.9c0.9-1.6,1.5-3.3,2-5c0.4-1.4,0.6-2.9,0.6-4.4c0-2.2-0.6-3.3-1.7-3.4c-0.5-0.1-1,0.1-1.4,0.5
		c-1.1,1.2-1.8,2.7-2.3,4.3c-0.7,2.3-1.3,4.7-1.5,7.2C27.2,60.2,27,63.1,27,66c0.1,2-0.1,4-0.5,6c-0.1,0.3,0,0.5,0.1,0.8
		c0.1,0.1,0.1,0.2,0.2,0.2c0.3,0.2,0.8,0.1,1-0.2c0.2-0.4,0.3-0.8,0.3-1.2c0.3-1.6,0.8-3.2,1.4-4.7c0.3-1.3,1.1-2.4,2.2-3.2
		c0.1-0.1,0.2-0.1,0.3-0.1c0,0,0.1,0,0.2,0.1c0.4,0.8,0.6,1.6,0.7,2.5c0.1,1.1,0.4,2.1,0.8,3.1c0.4,0.8,1.2,1.3,2.1,1.3
		c0.8,0.1,1.5-0.2,2.1-0.7c0.7-0.5,1.3-1.2,1.7-1.9c0,0,0,0,0,0c0.2,0.6,0.4,1.1,0.8,1.6c0.7,1.1,1.8,1.7,3,1.8
		c0.9,0.1,1.7-0.1,2.5-0.5c0.9-0.4,1.7-1,2.3-1.8c0.3-0.3,0.5-0.6,0.8-1c0,0,0,0.1,0,0.1c0.2,1.2,0.6,2.3,1.3,3.3
		c0.6,0.9,1.5,1.5,2.5,1.5c0.7,0.1,1.5-0.1,2.1-0.5c0.7-0.5,1.4-1.1,1.8-1.8c0.2-0.4,0.4-0.8,0.6-1.2c0.2,0.9,0.6,1.9,1.1,2.7
		c0.6,0.9,1.5,1.5,2.5,1.5c0.7,0.1,1.5-0.1,2.1-0.5c0.7-0.5,1.3-1.1,1.8-1.8c0.1,0.3,0.2,0.7,0.3,1c0.3,0.8,0.9,1.5,1.5,2
		c0.6,0.5,1.4,0.8,2.2,0.9c1.3,0.1,2.5-0.2,3.6-0.9c1.1-0.6,2-1.6,2.6-2.8h0.3l0.3,0.1c0.9,0.1,1.8-0.1,2.6-0.5
		c0.7-0.4,1.3-1,1.6-1.8C80.2,69.3,80.2,69.1,80.1,68.9z M29.8,53.1c0.4-1.9,1.1-3.7,2-5.4c0.3-0.4,0.6-0.6,0.7-0.6
		c0.2,0,0.3,0.3,0.4,0.9c0.1,0.5,0.1,0.9,0.1,1.4C33,51.2,32.6,53,32,54.7c-0.8,2.2-2,4.3-3.5,6.1C28.8,58.2,29.2,55.6,29.8,53.1z
		 M41.6,62c0.3-0.7,0.8-1.2,1.5-1.4l0.3-0.1h0.2c0.3,0,0.5,0.2,0.6,0.5c0.2,0.3,0.3,0.7,0.3,1.1h0c0,0.5-0.2,0.9-0.4,1.3
		c-0.3,0.4-0.6,0.8-1,1.1c-0.4,0.3-0.9,0.4-1.3,0.3c-0.3,0-0.6-0.1-0.8-0.2C40.9,63.7,41.2,62.8,41.6,62z M50.2,63.9
		c0-1.8,0.1-3.5,0.4-5.3c0.2-1.5,0.6-2.9,1.1-4.3c0.3-1,0.8-1.9,1.5-2.7c0.1-0.2,0.3-0.3,0.6-0.3c0.2,0,0.3,0.1,0.4,0.4
		c0.1,0.2,0.2,0.5,0.2,0.8c0,0.2,0,0.4,0,0.6c-0.1,1.8-0.5,3.6-1.2,5.3c-0.8,2-1.8,4-3,5.8V63.9z M58.4,64.6c0-1.8,0.1-3.5,0.4-5.3
		c0.2-1.5,0.6-2.9,1.1-4.3c0.3-1,0.8-1.9,1.5-2.7c0.1-0.2,0.3-0.3,0.6-0.3c0.2,0,0.3,0.1,0.4,0.4c0.1,0.2,0.2,0.5,0.2,0.8
		c0,0.2,0,0.4,0,0.6c-0.1,1.8-0.5,3.6-1.2,5.3c-0.8,2-1.8,4-3,5.8V64.6z M73.8,71c-0.4,0.9-1.1,1.7-1.9,2.2
		c-0.7,0.6-1.6,0.9-2.5,0.8c-0.9-0.1-1.7-0.6-2.2-1.4c-0.6-0.8-0.9-1.8-0.9-2.8c0-0.9,0.2-1.7,0.5-2.5c0.4-0.8,0.9-1.4,1.7-1.8
		c0.9-0.5,1.8-0.6,2.8-0.5c-0.2,0.5-0.3,1-0.3,1.5C71.1,68.2,72,69.7,73.8,71L73.8,71z M74.4,68.5c0,0.4-0.1,0.8-0.2,1.1
		c-0.5-0.3-0.9-0.8-1.2-1.3c-0.3-0.4-0.4-0.9-0.4-1.3c0-0.6,0.2-0.9,0.5-0.9h0.1c0,0,0.1,0.1,0.1,0.1c0.3,0.2,0.6,0.5,0.8,0.9
		C74.3,67.6,74.4,68,74.4,68.5L74.4,68.5z"/>
	<path id="hello_x5F_stroke" class="st2" d="M24.4,64.8c0,0,5.2-4.2,7.2-8.3c1.9-4.1,2.1-8.4,1.9-9.6c-0.2-1.2-1.3-1.8-2.7,0
		c-0.4,0.5-3.4,5-3,11.1c0.4,9.9,0.1,11.8-0.9,15c-0.4,1,0,0,0,0s2.3-6.4,3.4-8.8c0.4-1,0.8-1.7,1.7-1.6c0.8,0.1,1.2,0.6,1.3,1.4
		c0.4,1.8-0.2,6.5,3,5.9c0.8-0.1,1.2-0.2,2.7-1.3c1.5-1.2,6.2-3.7,6.8-5.8c0.7-2.4-1.2-3-1.2-3s-2.4-1.2-3.9,3.3
		c-0.8,2.5-1.1,6.5,3.6,8c4.1,1.2,7.9-4.2,10-9.9c1.2-3.2,2-5,2-8.3c0-1.8-0.4-2.6-0.7-2.9c-0.4-0.4-1.2-0.6-1.9,0.4
		c-5,6.2-2.9,19.6-2.5,20.4c0,0,1.2,4,5.4,1.1c2.4-1.7,5.8-6.5,7.3-11.2c1-3.1,1.2-5.7,1.2-6.8c0.1-2-0.5-3-0.9-3.4
		c-0.4-0.4-1.1-0.6-1.9,0.4c-1.2,1.2-4.3,5.1-2.9,18.7c0.7,3.4,2.4,4,3.9,3.8c0,0,2.7-0.2,3.5-2.8c2.8-8.4,8.5-5.7,8.7-5.1
		c-5.1-3.7-12,6.4-5,10c5.6,2.4,9.2-9.8,4.6-9.6c-4.6,0.3,2.5,9.7,6.8,3.7"/>
</g>
<g id="Unexpanded" class="st3">
	<path class="st4" d="M13.2,22l-1.4,69c0,0.8,0.6,1.4,1.3,1.5l78.5,9.3c1,0.1,1.9-0.6,2-1.6c0,0,0-0.1,0-0.1l2.2-72
		c0-1.3-1-2.5-2.3-2.5L14.3,21C13.7,21,13.3,21.4,13.2,22C13.2,22,13.2,22,13.2,22z"/>
	<path class="st4" d="M92.7,32.5c0.1-2.1-1.4-3.9-3.5-4.1c-10.1-1.1-39.5-3.8-66.6-3.6c-2.7,0-4.9,2-5.2,4.7
		c-2.5,21.9-2.1,46.3-1.7,55.6c0.1,2.3,1.7,4.3,4,4.7c10.9,2.2,43.3,7.6,68.2,6.9c1.2,0,2.2-1,2.2-2.2L92.7,32.5z"/>
	<path class="st4" d="M7.1,133l88.6,13.6c1,0.1,2-0.6,2.1-1.6c0-0.1,0-0.1,0-0.2l4.8-126.1c0-1-0.7-1.9-1.8-1.9L9.3,12.9
		c-0.4,0-0.7,0.3-0.7,0.7c0,0,0,0,0,0L6.2,131.9C6.2,132.4,6.6,132.9,7.1,133z"/>
	<path class="st5" d="M157.3,24l-2.4-9.5c-0.7-2.6-3-4.5-5.6-4.5l-45.6-1.6c0,0-0.1,0-0.1,0L10.8,4.9c-1.1,0-2.2,0.4-3.1,1.2
		c-0.8,0.8-1.3,1.8-1.4,3l-2.8,127c0,1.7,1.2,3.1,2.8,3.4l6.7,1.1v10.6c0,0.8,0.6,1.5,1.4,1.6l99.9,16.2l0,0c0,0,0,0,0.1,0
		c0,0,0,0,0,0c0.2,0,0.4-0.1,0.5-0.1l40.6-24.3c1-0.6,1.7-1.7,1.7-2.9l1.1-107.7C158.6,30.6,158.2,27.2,157.3,24z M4.6,136.1
		l2.8-127c0-0.9,0.4-1.7,1-2.3C9,6.2,9.8,5.9,10.7,5.9c0,0,0.1,0,0.1,0l91.6,3.3l0,0c0.6,0,1.2,0.1,1.8,0.1c1.5,0.4,2.7,1.8,2.6,3.5
		l-4.9,137.5v0c0,0.1,0,0.3,0,0.4c-0.3,1.6-1.8,2.8-3.5,2.5L6.6,138.5C5.4,138.3,4.6,137.3,4.6,136.1z M14.1,151.1v-10.4l84.1,13.4
		c0.2,0,0.4,0.1,0.6,0.1c1.9,0,3.6-1.4,4-3.4c0-0.2,0-0.3,0-0.5l4.9-137.4c0-1.3-0.5-2.4-1.3-3.3c4.4,0.6,4.7,1.7,4.4,6.1
		c-0.3,5-3.8,88.3-5.3,123.8l0,1.2c0,0.4,0.1,0.8,0.4,1.1c0.3,0.3,0.7,0.5,1.1,0.5c0.2,0,0.3,0,0.5-0.1l3.8-1.1
		c0.7-0.2,1.5,0.2,1.7,0.9c0,0.1,0,0.2,0.1,0.3l0.3,25.3l-98.8-16.1C14.4,151.7,14.1,151.4,14.1,151.1z M156.4,141.6
		c0,0.9-0.5,1.6-1.2,2.1l-40.7,24.2l-0.3-25.4c0-0.2,0-0.4-0.1-0.6c-0.2-0.6-0.6-1.1-1.1-1.4c-0.4-0.2-0.8-0.3-1.2-0.3
		c-0.2,0-0.4,0-0.7,0.1l-3.8,1.1c-0.1,0-0.1,0-0.2,0c-0.2,0-0.3-0.1-0.4-0.2c-0.1-0.1-0.2-0.3-0.1-0.4l0-1.2
		c1.5-35.6,5-118.8,5.3-123.8c0.2-3.6-0.2-5.3-1.9-6.3l39.1,1.4c2.2,0.1,4.2,1.6,4.7,3.8l2.4,9.5c0.8,3.1,1.2,6.4,1.2,9.6
		L156.4,141.6z"/>
	<g class="st6">
		<path class="st7" d="M90.7,129.8c-0.1,0-0.1,0-0.2,0l-15.8-2.2c-0.5-0.1-0.8-0.5-0.8-1v-2c0-0.2-0.2-0.4-0.4-0.5l-26-3.3
			c-0.5-0.1-0.8-0.5-0.8-1v-4.3c0-0.3,0.1-0.5,0.3-0.7c0.2-0.2,0.4-0.3,0.7-0.3c0,0,0.1,0,0.1,0l25.6,3.2c0.1,0,0.2,0,0.3-0.1
			s0.2-0.2,0.2-0.3l0-1.9c0-0.3,0.1-0.5,0.3-0.7c0.2-0.2,0.4-0.3,0.7-0.3c0,0,0,0,0,0c0,0,0.1,0,0.1,0l15.9,1.8
			c0.7,0.1,1.2,0.6,1.2,1.3v10.6C92,129.2,91.4,129.8,90.7,129.8C90.7,129.8,90.7,129.8,90.7,129.8z M47.7,115.1
			c-0.2,0-0.3,0-0.4,0.1c-0.1,0.1-0.1,0.2-0.1,0.3v4.3c0,0.2,0.2,0.4,0.4,0.5l26,3.3c0.5,0.1,0.8,0.5,0.8,1v2c0,0.2,0.2,0.4,0.4,0.5
			l15.8,2.2c0,0,0.1,0,0.1,0c0.5,0,0.8-0.4,0.8-0.8v-10.6c0-0.4-0.3-0.8-0.8-0.8l0,0l-15.9-1.8c-0.2,0-0.3,0-0.4,0.1
			c-0.1,0.1-0.1,0.2-0.1,0.3v1.8c0,0,0,0.1,0,0.1c0,0.3-0.2,0.5-0.4,0.6c-0.2,0.2-0.5,0.2-0.7,0.2L47.7,115.1
			C47.7,115.1,47.7,115.1,47.7,115.1z"/>
	</g>
	<path class="st5" d="M88.9,118.3l-10.4-1.4c0,0-0.1,0-0.1,0c-0.3,0-0.5,0.1-0.7,0.3c-0.2,0.2-0.3,0.4-0.3,0.7l0,2l0,0v0
		c0,0.1-0.1,0.1-0.1,0.1l-25.5-3.5c0,0,0,0,0,0l-1.1-0.2l-0.1,0c-0.2,0-0.3,0.1-0.4,0.2c-0.1,0.1-0.2,0.3-0.2,0.4v2.2
		c0,0.3,0.2,0.6,0.5,0.6l1.2,0.2c0,0,0,0,0,0l25.6,3.5c0.1,0,0.1,0.1,0.1,0.1v1.8c0,0.5,0.4,0.9,0.8,1l10.4,1.4c0,0,0.1,0,0.1,0
		c0,0,0,0,0,0c0.3,0,0.5-0.1,0.7-0.3c0.2-0.2,0.3-0.4,0.3-0.7V126v-4.8v-2C89.7,118.8,89.3,118.4,88.9,118.3z M78,117.6
		c0.1-0.1,0.2-0.1,0.3-0.1c0,0,0,0,0.1,0l10.4,1.4c0.2,0,0.4,0.2,0.4,0.5v1.7l-11.3-1.3v-1.7C77.9,117.8,77.9,117.6,78,117.6z
		 M89.2,125.7l-11.3-1.4v-0.8c0-0.1,0-0.2,0-0.2c-0.1-0.2-0.3-0.4-0.5-0.4L52,119.4V117l25.2,3.5c0,0,0,0,0,0l0.4,0.1
		c0.1,0,0.1,0,0.2-0.1s0.1-0.1,0.1-0.2v-0.2l11.3,1.3V125.7z M50.4,119.1v-2.2c0-0.1,0.1-0.1,0.1-0.1c0,0,0,0,0,0l0.9,0.1v2.5
		l-1-0.1C50.5,119.2,50.4,119.2,50.4,119.1z M89.1,127.1c-0.1,0.1-0.2,0.1-0.3,0.1c0,0,0,0,0,0l-10.4-1.4c-0.2,0-0.4-0.2-0.4-0.5
		v-0.5l11.3,1.4v0.5C89.2,126.9,89.2,127,89.1,127.1z"/>
	<g id="vents_1_" class="st6">
		<path class="st8" d="M129.2,155.4l4.1-2.3c0.1,0,0.1-0.1,0.1-0.2v-0.6c0-0.1-0.1-0.2-0.2-0.2c0,0-0.1,0-0.1,0l-4.1,2.4
			c-0.1,0-0.1,0.1-0.1,0.2v0.5C129,155.3,129.1,155.4,129.2,155.4C129.2,155.4,129.2,155.4,129.2,155.4z"/>
		<path class="st8" d="M135,152.1l4.1-2.3c0.1,0,0.1-0.1,0.1-0.2V149c0-0.1-0.1-0.2-0.2-0.2c0,0-0.1,0-0.1,0l-4.1,2.4
			c-0.1,0-0.1,0.1-0.1,0.2v0.5c0,0.1,0.1,0.2,0.2,0.2C134.9,152.1,134.9,152.1,135,152.1z"/>
		<path class="st8" d="M140.4,149l4.1-2.3c0.1,0,0.1-0.1,0.1-0.2v-0.6c0-0.1-0.1-0.2-0.2-0.2c0,0-0.1,0-0.1,0l-4.1,2.4
			c-0.1,0-0.1,0.1-0.1,0.2v0.5c0,0.1,0.1,0.2,0.2,0.2C140.3,149,140.4,149,140.4,149z"/>
		<path class="st8" d="M145.7,145.9l4.1-2.3c0.1,0,0.1-0.1,0.1-0.2v-0.6c0-0.1-0.1-0.2-0.2-0.2c0,0-0.1,0-0.1,0l-4.1,2.4
			c-0.1,0-0.1,0.1-0.1,0.2v0.5C145.5,145.8,145.6,145.9,145.7,145.9C145.7,145.9,145.7,145.9,145.7,145.9z"/>
		<path class="st8" d="M151.1,142.8l4.1-2.3c0.1,0,0.1-0.1,0.1-0.2v-0.6c0-0.1-0.1-0.2-0.2-0.2c0,0-0.1,0-0.1,0l-4,2.4
			c-0.1,0-0.1,0.1-0.1,0.2v0.5C150.8,142.7,150.9,142.8,151.1,142.8C151,142.8,151.1,142.8,151.1,142.8z"/>
		<path class="st8" d="M123.2,158.8l4.1-2.3c0.1,0,0.1-0.1,0.1-0.2v-0.6c0-0.1-0.1-0.2-0.2-0.2c0,0-0.1,0-0.1,0l-4.1,2.3
			c-0.1,0-0.1,0.1-0.1,0.2v0.5c0,0.1,0,0.2,0.1,0.2C123.2,158.8,123.2,158.8,123.2,158.8z"/>
		<path class="st8" d="M117.7,162l4.1-2.3c0.1,0,0.1-0.1,0.1-0.2v-0.6c0-0.1-0.1-0.2-0.2-0.2c0,0-0.1,0-0.1,0l-4.1,2.4
			c-0.1,0-0.1,0.1-0.1,0.2v0.5C117.5,161.9,117.5,162,117.7,162C117.7,162,117.7,162,117.7,162z"/>
		<path class="st8" d="M129.2,153.4l4.1-2.3c0.1,0,0.1-0.1,0.1-0.2v-0.6c0-0.1-0.1-0.2-0.2-0.2c0,0-0.1,0-0.1,0l-4.1,2.4
			c-0.1,0-0.1,0.1-0.1,0.2v0.5C129,153.4,129.1,153.4,129.2,153.4C129.2,153.4,129.2,153.4,129.2,153.4z"/>
		<path class="st8" d="M135,150.2l4.1-2.3c0.1,0,0.1-0.1,0.1-0.2v-0.6c0-0.1-0.1-0.2-0.2-0.2c0,0-0.1,0-0.1,0l-4.1,2.4
			c-0.1,0-0.1,0.1-0.1,0.2v0.5C134.7,150.1,134.8,150.2,135,150.2C134.9,150.2,134.9,150.2,135,150.2z"/>
		<path class="st8" d="M140.4,147l4.1-2.3c0.1,0,0.1-0.1,0.1-0.2V144c0-0.1-0.1-0.2-0.2-0.2c0,0-0.1,0-0.1,0l-4.1,2.4
			c-0.1,0-0.1,0.1-0.1,0.2v0.5C140.1,147,140.2,147.1,140.4,147C140.4,147.1,140.4,147.1,140.4,147z"/>
		<path class="st8" d="M145.7,144l4.1-2.3c0.1,0,0.1-0.1,0.1-0.2v-0.6c0-0.1-0.1-0.2-0.2-0.2c0,0-0.1,0-0.1,0l-4.1,2.4
			c-0.1,0-0.1,0.1-0.1,0.2v0.5C145.5,143.9,145.6,144,145.7,144C145.7,144,145.7,144,145.7,144z"/>
		<path class="st8" d="M151.1,140.8l4.1-2.3c0.1,0,0.1-0.1,0.1-0.2v-0.6c0-0.1-0.1-0.2-0.2-0.2c0,0-0.1,0-0.1,0l-4.1,2.4
			c-0.1,0-0.1,0.1-0.1,0.2v0.5C150.8,140.8,150.9,140.9,151.1,140.8C151,140.9,151,140.9,151.1,140.8z"/>
		<path class="st8" d="M123.2,156.9l4.1-2.3c0.1,0,0.1-0.1,0.1-0.2v-0.6c0-0.1-0.1-0.2-0.2-0.2c0,0-0.1,0-0.1,0l-4.1,2.4
			c-0.1,0-0.1,0.1-0.1,0.2v0.5C123,156.8,123,156.9,123.2,156.9C123.2,156.9,123.2,156.9,123.2,156.9z"/>
		<path class="st8" d="M117.7,160l4.1-2.3c0.1,0,0.1-0.1,0.1-0.2V157c0-0.1-0.1-0.2-0.2-0.2c0,0-0.1,0-0.1,0l-4.1,2.4
			c-0.1,0-0.1,0.1-0.1,0.2v0.5C117.5,160,117.6,160.1,117.7,160C117.7,160.1,117.7,160.1,117.7,160z"/>
		<path class="st8" d="M129.2,151.5l4.1-2.3c0.1,0,0.1-0.1,0.1-0.2v-0.6c0-0.1-0.1-0.2-0.2-0.2c0,0-0.1,0-0.1,0l-4.1,2.4
			c-0.1,0-0.1,0.1-0.1,0.2v0.5C129,151.4,129.1,151.5,129.2,151.5C129.2,151.5,129.2,151.5,129.2,151.5z"/>
		<path class="st8" d="M135,148.2l4.1-2.3c0.1,0,0.1-0.1,0.1-0.2v-0.6c0-0.1-0.1-0.2-0.2-0.2c0,0-0.1,0-0.1,0l-4.1,2.4
			c-0.1,0-0.1,0.1-0.1,0.2v0.5C134.7,148.2,134.8,148.2,135,148.2C134.9,148.2,135,148.2,135,148.2z"/>
		<path class="st8" d="M140.4,145.1l4.1-2.3c0.1,0,0.1-0.1,0.1-0.2V142c0-0.1-0.1-0.2-0.2-0.2c0,0-0.1,0-0.1,0l-4.1,2.4
			c-0.1,0-0.1,0.1-0.1,0.2v0.5C140.1,145,140.2,145.1,140.4,145.1C140.4,145.1,140.4,145.1,140.4,145.1z"/>
		<path class="st8" d="M145.7,142l4.1-2.3c0.1,0,0.1-0.1,0.1-0.2V139c0-0.1-0.1-0.2-0.2-0.2c0,0-0.1,0-0.1,0l-4.1,2.4
			c-0.1,0-0.1,0.1-0.1,0.2v0.5C145.5,142,145.6,142.1,145.7,142C145.7,142.1,145.7,142.1,145.7,142z"/>
		<path class="st8" d="M151.1,138.9l4.1-2.3c0.1,0,0.1-0.1,0.1-0.2v-0.6c0-0.1-0.1-0.2-0.2-0.2c0,0-0.1,0-0.1,0l-4.1,2.4
			c-0.1,0-0.1,0.1-0.1,0.2v0.5C150.8,138.8,150.9,138.9,151.1,138.9C151,138.9,151,138.9,151.1,138.9z"/>
		<path class="st8" d="M123.2,154.9l4.1-2.3c0.1,0,0.1-0.1,0.1-0.2v-0.5c0-0.1-0.1-0.2-0.2-0.2c0,0-0.1,0-0.1,0l-4.1,2.4
			c-0.1,0-0.1,0.1-0.1,0.2v0.5C123,154.9,123.1,154.9,123.2,154.9C123.2,154.9,123.2,154.9,123.2,154.9z"/>
		<path class="st8" d="M117.7,158.1l4.1-2.3c0.1,0,0.1-0.1,0.1-0.2V155c0-0.1-0.1-0.2-0.2-0.2c0,0-0.1,0-0.1,0l-4.1,2.4
			c-0.1,0-0.1,0.1-0.1,0.2v0.5C117.5,158,117.5,158.1,117.7,158.1C117.7,158.1,117.7,158.1,117.7,158.1z"/>
		<path class="st8" d="M129.2,149.6l4.1-2.3c0.1,0,0.1-0.1,0.1-0.2v-0.6c0-0.1-0.1-0.2-0.2-0.2c0,0-0.1,0-0.1,0l-4.1,2.4
			c-0.1,0-0.1,0.1-0.1,0.2v0.5C129,149.5,129.1,149.6,129.2,149.6C129.2,149.6,129.2,149.6,129.2,149.6z"/>
		<path class="st8" d="M135,146.3l4.1-2.3c0.1,0,0.1-0.1,0.1-0.2v-0.6c0-0.1-0.1-0.2-0.2-0.2c0,0-0.1,0-0.1,0l-4.1,2.4
			c-0.1,0-0.1,0.1-0.1,0.2v0.5C134.7,146.2,134.8,146.3,135,146.3C134.9,146.3,134.9,146.3,135,146.3z"/>
		<path class="st8" d="M140.4,143.2l4.1-2.3c0.1,0,0.1-0.1,0.1-0.2v-0.6c0-0.1-0.1-0.2-0.2-0.2c0,0-0.1,0-0.1,0l-4.1,2.4
			c-0.1,0-0.1,0.1-0.1,0.2v0.5C140.1,143.1,140.2,143.2,140.4,143.2C140.4,143.2,140.4,143.2,140.4,143.2z"/>
		<path class="st8" d="M145.7,140.1l4.1-2.3c0.1,0,0.1-0.1,0.1-0.2V137c0-0.1-0.1-0.2-0.2-0.2c0,0-0.1,0-0.1,0l-4.1,2.4
			c-0.1,0-0.1,0.1-0.1,0.2v0.5C145.5,140,145.6,140.1,145.7,140.1C145.7,140.1,145.7,140.1,145.7,140.1z"/>
		<path class="st8" d="M151.1,137l4.1-2.3c0.1,0,0.1-0.1,0.1-0.2v-0.6c0-0.1-0.1-0.2-0.2-0.2c0,0-0.1,0-0.1,0l-4.1,2.4
			c-0.1,0-0.1,0.1-0.1,0.2v0.5c0,0.1,0.1,0.2,0.2,0.2C151,137,151,137,151.1,137z"/>
		<path class="st8" d="M123.2,153l4.1-2.3c0.1,0,0.1-0.1,0.1-0.2v-0.6c0-0.1-0.1-0.2-0.2-0.2c0,0-0.1,0-0.1,0l-4.1,2.4
			c-0.1,0-0.1,0.1-0.1,0.2v0.6C123,153,123.1,153,123.2,153C123.2,153,123.2,153,123.2,153z"/>
		<path class="st8" d="M117.7,156.2l4.1-2.3c0.1,0,0.1-0.1,0.1-0.2v-0.6c0-0.1-0.1-0.2-0.2-0.2c0,0-0.1,0-0.1,0l-4.1,2.4
			c-0.1,0-0.1,0.1-0.1,0.2v0.5C117.5,156.1,117.5,156.2,117.7,156.2C117.7,156.2,117.7,156.2,117.7,156.2z"/>
		<path class="st8" d="M129.2,147.6l4.1-2.3c0.1,0,0.1-0.1,0.1-0.2v-0.6c0-0.1-0.1-0.2-0.2-0.2c0,0-0.1,0-0.1,0l-4.1,2.4
			c-0.1,0-0.1,0.1-0.1,0.2v0.5C129,147.6,129.1,147.7,129.2,147.6C129.2,147.7,129.2,147.6,129.2,147.6z"/>
		<path class="st8" d="M135,144.4l4.1-2.3c0.1,0,0.1-0.1,0.1-0.2v-0.6c0-0.1-0.1-0.2-0.2-0.2c0,0-0.1,0-0.1,0l-4.1,2.4
			c-0.1,0-0.1,0.1-0.1,0.2v0.5C134.7,144.3,134.8,144.4,135,144.4C134.9,144.4,134.9,144.4,135,144.4z"/>
		<path class="st8" d="M140.4,141.3l4.1-2.3c0.1,0,0.1-0.1,0.1-0.2v-0.6c0-0.1-0.1-0.2-0.2-0.2c0,0-0.1,0-0.1,0l-4.1,2.4
			c-0.1,0-0.1,0.1-0.1,0.2v0.5C140.1,141.2,140.2,141.3,140.4,141.3C140.4,141.3,140.4,141.3,140.4,141.3z"/>
		<path class="st8" d="M145.7,138.2l4.1-2.3c0.1,0,0.1-0.1,0.1-0.2v-0.6c0-0.1-0.1-0.2-0.2-0.2c0,0-0.1,0-0.1,0l-4.1,2.4
			c-0.1,0-0.1,0.1-0.1,0.2v0.5C145.5,138.1,145.6,138.2,145.7,138.2C145.7,138.2,145.7,138.2,145.7,138.2z"/>
		<path class="st8" d="M151.1,135.1l4.1-2.3c0.1,0,0.1-0.1,0.1-0.2V132c0-0.1-0.1-0.2-0.2-0.2c0,0-0.1,0-0.1,0l-4.1,2.4
			c-0.1,0-0.1,0.1-0.1,0.2v0.5C150.8,135,150.9,135.1,151.1,135.1C151,135.1,151,135.1,151.1,135.1z"/>
		<path class="st8" d="M123.2,151.1l4.1-2.3c0.1,0,0.1-0.1,0.1-0.2V148c0-0.1-0.1-0.2-0.2-0.2c0,0-0.1,0-0.1,0l-4.1,2.4
			c-0.1,0-0.1,0.1-0.1,0.2v0.5C123,151,123.1,151.1,123.2,151.1C123.2,151.1,123.2,151.1,123.2,151.1z"/>
		<path class="st8" d="M117.7,154.3l4.1-2.3c0.1,0,0.1-0.1,0.1-0.2v-0.6c0-0.1-0.1-0.2-0.2-0.2c0,0-0.1,0-0.1,0l-4.1,2.4
			c-0.1,0-0.1,0.1-0.1,0.2v0.5C117.5,154.2,117.5,154.3,117.7,154.3C117.7,154.3,117.7,154.3,117.7,154.3z"/>
	</g>
	<ellipse class="st9" cx="23.7" cy="148.2" rx="1" ry="1.2"/>
	<path class="st10" d="M15.1,115c0,0.1-0.1,0.2-0.1,0.3c-0.1,0.2-0.2,0.4-0.3,0.5c-0.1,0.1-0.1,0.2-0.2,0.3
		c-0.1,0.1-0.1,0.1-0.2,0.2c-0.1,0-0.2,0-0.3,0c-0.1,0-0.2-0.1-0.3-0.2c-0.1-0.1-0.2-0.1-0.3-0.2c-0.1,0-0.2,0-0.3,0
		c-0.1,0-0.2,0-0.3,0.1c-0.1,0-0.2,0-0.2,0c-0.1,0-0.3,0-0.3-0.1c-0.1-0.1-0.2-0.2-0.2-0.3c-0.3-0.5-0.5-1-0.7-1.6
		c0-0.2-0.1-0.3-0.1-0.5c0-0.2,0-0.3,0-0.5c0-0.2,0.1-0.5,0.2-0.7c0.1-0.2,0.2-0.3,0.4-0.5c0.1-0.1,0.3-0.2,0.5-0.2
		c0.1,0,0.2,0,0.2,0c0.1,0,0.2,0.1,0.2,0.1L13,112l0.2,0.1h0.1l0.3-0.1c0.1,0,0.2-0.1,0.3-0.1c0.1,0,0.2,0,0.3,0
		c0.1,0,0.2,0.1,0.3,0.1c0.2,0.1,0.4,0.3,0.5,0.6l0,0l-0.1,0.1c-0.1,0.1-0.3,0.3-0.3,0.4c0,0.1-0.1,0.2-0.1,0.3c0,0.2,0,0.4,0,0.6
		c0.1,0.2,0.1,0.4,0.3,0.6c0.1,0.1,0.2,0.2,0.3,0.3L15.1,115z"/>
	<path class="st10" d="M14.1,110.1c0,0.3,0,0.5-0.2,0.7c-0.1,0.1-0.2,0.2-0.3,0.3c-0.1,0.1-0.2,0.1-0.3,0.1c-0.1,0-0.1,0-0.2,0l0,0
		c0-0.1,0-0.1,0-0.2c0-0.2,0.1-0.5,0.3-0.7c0.1-0.1,0.3-0.2,0.4-0.3C13.9,110.1,14,110.1,14.1,110.1z"/>
	<path class="st10" d="M15.1,115c0,0.1-0.1,0.2-0.1,0.3c-0.1,0.2-0.2,0.4-0.3,0.5c-0.1,0.1-0.1,0.2-0.2,0.3
		c-0.1,0.1-0.1,0.1-0.2,0.2c-0.1,0-0.2,0-0.3,0c-0.1,0-0.2-0.1-0.3-0.2c-0.1-0.1-0.2-0.1-0.3-0.2c-0.1,0-0.2,0-0.3,0
		c-0.1,0-0.2,0-0.3,0.1c-0.1,0-0.2,0-0.2,0c-0.1,0-0.3,0-0.3-0.1c-0.1-0.1-0.2-0.2-0.2-0.3c-0.3-0.5-0.5-1-0.7-1.6
		c0-0.2-0.1-0.3-0.1-0.5c0-0.2,0-0.3,0-0.5c0-0.2,0.1-0.5,0.2-0.7c0.1-0.2,0.2-0.3,0.4-0.5c0.1-0.1,0.3-0.2,0.5-0.2
		c0.1,0,0.2,0,0.2,0c0.1,0,0.2,0.1,0.2,0.1L13,112l0.2,0.1h0.1l0.3-0.1c0.1,0,0.2-0.1,0.3-0.1c0.1,0,0.2,0,0.3,0
		c0.1,0,0.2,0.1,0.3,0.1c0.2,0.1,0.4,0.3,0.5,0.6l0,0l-0.1,0.1c-0.1,0.1-0.3,0.3-0.3,0.4c0,0.1-0.1,0.2-0.1,0.3c0,0.2,0,0.4,0,0.6
		c0.1,0.2,0.1,0.4,0.3,0.6c0.1,0.1,0.2,0.2,0.3,0.3L15.1,115z"/>
	<path class="st10" d="M14.1,110.1c0,0.3,0,0.5-0.2,0.7c-0.1,0.1-0.2,0.2-0.3,0.3c-0.1,0.1-0.2,0.1-0.3,0.1c-0.1,0-0.1,0-0.2,0l0,0
		c0-0.1,0-0.1,0-0.2c0-0.2,0.1-0.5,0.3-0.7c0.1-0.1,0.3-0.2,0.4-0.3C13.9,110.1,14,110.1,14.1,110.1z"/>
</g>
</svg>
