<?xml version="1.0" encoding="utf-8"?>
<!-- Generator: Adobe Illustrator 23.0.1, SVG Export Plug-In . SVG Version: 6.00 Build 0)  -->
<svg version="1.1" id="Layer_1" xmlns="http://www.w3.org/2000/svg" xmlns:xlink="http://www.w3.org/1999/xlink" x="0px" y="0px"
	 viewBox="0 0 250.1 320.2" style="enable-background:new 0 0 250.1 320.2;" xml:space="preserve">
<style type="text/css">
	.st0{fill:none;stroke:#FFFFFF;stroke-width:2;stroke-miterlimit:10;}
	.st1{fill:none;stroke:#FFFFFF;stroke-width:2;stroke-linecap:round;stroke-linejoin:round;}
</style>
<rect x="4.7" y="45.8" class="st0" width="11" height="25.3"/>
<rect x="4.7" y="89.5" class="st0" width="11" height="25.3"/>
<path class="st0" d="M131.2,197.8h-40c-3.2,0-5.6-3.1-4.7-6.2l0.9-3.3c0.6-2.1,2.5-3.5,4.7-3.5h38.2c2.2,0,4.1,1.4,4.7,3.5l0.9,3.3
	C136.8,194.7,134.4,197.8,131.2,197.8z"/>
<rect x="94.7" y="197.8" class="st0" width="33" height="106"/>
<rect x="206.7" y="27.5" class="st0" width="11" height="25.3"/>
<path class="st0" d="M206.2,166.8V7.8c0-2.8-2.2-5-5-5h-180c-2.8,0-5,2.2-5,5v159"/>
<path class="st0" d="M206.2,166.8v3c0,2.8-2.2,5-5,5h-185v-8h-5.5v18h201v-18H206.2z"/>
<path class="st0" d="M16.2,166.8v8h185c2.8,0,5-2.2,5-5v-3"/>
<path class="st0" d="M128.8,316.8H93.5c-2.6,0-4.8-1.5-5.2-3.6l-1.6-7.6c-0.2-1,0.7-1.9,2-1.9h45c1.2,0,2.2,0.9,2,1.9l-1.6,7.6
	C133.6,315.3,131.4,316.8,128.8,316.8z"/>
<g>
	<path class="st1" d="M217.7,39.8c0,1.8,25.9-0.7,26,1.2c0,2.5-17,10.6-16.9,13.3c0,2,16.9-2.2,16.9-0.3c0,2.6-17,10.9-16.9,13.3
		c0,2,16.9-2.4,16.9-0.3c0,2.3-17,10.7-16.9,13.3c0,1.9,16.9-2.1,16.9-0.3c0,2.1-17,10.9-16.9,13.3c0,1.7,16.9-2.3,16.9-0.3
		c0,2.3-17,10.8-16.9,13.3c0,1.9,16.9-2.2,16.9-0.3c0.1,2.7-17,11.2-16.9,13.3c0,1.9,16.9-2.1,16.9-0.3c0,2.1-17,11.1-16.9,13.3
		c0,2,16.9-2.4,16.9-0.3c0,2.6-17,11.2-16.9,13.3c0,1.6,16.9-2,17-0.3c0,2.4-17,10.6-17,13.3c0,1.9,16.9-2.1,17-0.3
		c0.1,2.6-17,11.2-17,13.3c0,2.1,16.9-2.1,17-0.3c0,2.5-17,11.1-17,13.3c0,1.7,16.9-1.9,17-0.3c0,2.5-17,11.2-17,13.3
		c0,2,16.9-2.4,17-0.3c0,2.6-17,11.2-17,13.3c0,2,16.9-2.2,17-0.3c0,2.3-9.7,12.3-17,15.7c-53,25-91-35.9-91-34"/>
</g>
</svg>
