<?xml version="1.0" encoding="utf-8"?>
<!-- Generator: Adobe Illustrator 27.0.1, SVG Export Plug-In . SVG Version: 6.00 Build 0)  -->
<svg version="1.1" xmlns="http://www.w3.org/2000/svg" xmlns:xlink="http://www.w3.org/1999/xlink" x="0px" y="0px"
	 viewBox="0 0 800 600" style="enable-background:new 0 0 800 600;" xml:space="preserve">
<style type="text/css">
	.st0{fill:#222528;}
	.st1{fill:none;stroke:#F0F0F0;stroke-width:2;stroke-miterlimit:10;}
	.st2{fill:none;stroke:#F0F0F0;stroke-width:2;stroke-linecap:round;stroke-miterlimit:10;}
	.st3{fill:#222528;stroke:#F7F7F7;stroke-width:2;stroke-miterlimit:10;}
	.st4{fill:#F0F0F0;}
	.st5{fill:#F7F7F7;stroke:#222528;stroke-width:0.5;stroke-miterlimit:10;}
	.st6{fill:#F7F7F7;}
	.st7{fill:#F7F7F7;stroke:#222528;stroke-width:2;stroke-miterlimit:10;}
	.st8{fill:none;stroke:#222528;stroke-width:2;stroke-miterlimit:10;}
	.st9{fill:#179569;}
	.st10{fill:#F9B24E;}
	.st11{fill:#179569;stroke:#000000;stroke-width:2;stroke-miterlimit:10;}
	.st12{fill:#F7F7F7;stroke:#000000;stroke-width:2;stroke-miterlimit:10;}
	.st13{fill:none;stroke:#000000;stroke-width:2;stroke-linecap:round;stroke-miterlimit:10;}
	.st14{fill:#F9B24E;stroke:#000000;stroke-width:2;stroke-miterlimit:10;}
	.st15{fill:#FCE9B3;stroke:#000000;stroke-width:2;stroke-miterlimit:10;}
	.st16{fill:#1981A5;}
	.st17{fill:#952F17;}
	.st18{fill:#2070B2;}
	.st19{fill:#2C96FF;}
	.st20{fill:none;stroke:#2070B2;stroke-width:2;stroke-miterlimit:10;}
	.st21{fill:#2C96FF;stroke:#2070B2;stroke-width:10;stroke-miterlimit:10;}
	.st22{fill:#FFF3E6;}
	.st23{fill:#D1401E;stroke:#000000;stroke-width:2;stroke-miterlimit:10;}
	.st24{fill:#480E00;}
	.st25{fill:#185893;}
	.st26{fill:#009245;stroke:#000000;stroke-miterlimit:10;}
	.st27{fill:#F0F0F0;stroke:#000000;stroke-miterlimit:10;}
	.st28{fill:#FCC037;}
	.st29{fill:#FCE9B3;}
	.st30{fill:none;stroke:#F7F7F7;stroke-width:10;stroke-linecap:round;stroke-linejoin:round;stroke-miterlimit:10;}
	.st31{fill:#179569;stroke:#000000;stroke-miterlimit:10;}
	.st32{fill:#D1401E;stroke:#000000;stroke-miterlimit:10;}
	.st33{fill:none;stroke:#000000;stroke-linecap:round;stroke-miterlimit:10;}
	.st34{fill:#F7F7F7;stroke:#000000;stroke-miterlimit:10;}
	.st35{fill:#F9B24E;stroke:#000000;stroke-miterlimit:10;}
	.st36{fill:#FCE9B3;stroke:#000000;stroke-miterlimit:10;}
</style>
<g id="Layer_2">
</g>
<g id="Layer_4">
</g>
<g id="Layer_3">
</g>
<g id="Layer_1">
	<path class="st18" d="M405.1,159.2l39.4,62c0.8,1.3,2.1,2.2,3.6,2.6l71.1,18.3c4.3,1.1,5.9,6.2,3.1,9.6l-46.8,56.6
		c-1,1.2-1.5,2.7-1.4,4.2l4.5,73.3c0.3,4.4-4.1,7.6-8.2,6l-68.3-27c-1.4-0.6-3-0.6-4.4,0l-68.3,27c-4.1,1.6-8.5-1.6-8.2-6l4.5-73.3
		c0.1-1.5-0.4-3-1.4-4.2l-46.8-56.6c-2.8-3.4-1.1-8.5,3.1-9.6l71.1-18.3c1.5-0.4,2.7-1.3,3.6-2.6l39.4-62
		C397.3,155.5,402.7,155.5,405.1,159.2z"/>
	<path class="st19" d="M288.2,320.3c7.4,22.7,2.3,19.9,7.7,36.6c5.4,16.7,27.2,21.5,39.1,8.3l49.8-55.3c5.9-6.6,7.2-15.2,4.8-22.6
		c-2.4-7.4-8.5-13.6-17.2-15.4l-72.8-15.5c-17.4-3.7-32.2,13.1-26.8,29.7C278.3,302.9,280.8,297.7,288.2,320.3z"/>
	<path class="st20" d="M289.8,284.6c-1.7,3.2-2.2,7.2-0.9,11.1c3.4,10.4,5,7.2,9.6,21.4c4.6,14.2,1.4,12.5,4.8,22.9
		c1.3,3.9,4,6.8,7.3,8.4"/>
	<path class="st19" d="M330.9,188.9c-19.3,14-18.3,8.3-32.4,18.6c-14.2,10.3-12.1,32.5,4.2,39.8l68,30.3c8.1,3.6,16.7,2.2,23-2.4
		c6.3-4.6,10.3-12.3,9.4-21.1l-7.8-74c-1.9-17.7-22.4-26.6-36.5-16.3C344.5,174.1,350.2,174.9,330.9,188.9z"/>
	<path class="st20" d="M365.4,179.4c-3.6-0.6-7.5,0.1-10.8,2.5c-8.9,6.4-5.3,6.9-17.4,15.7c-12.1,8.8-11.4,5.2-20.3,11.7
		c-3.3,2.4-5.2,5.9-5.7,9.5"/>
	<path class="st19" d="M469.1,188.9c-19.3-14-13.6-14.8-27.7-25.1c-14.2-10.3-34.7-1.4-36.5,16.3l-7.8,74
		c-0.9,8.8,3.1,16.5,9.4,21.1c6.3,4.6,14.8,6,23,2.4l68-30.3c16.2-7.2,18.3-29.5,4.2-39.8C487.4,197.2,488.4,202.9,469.1,188.9z"/>
	<path class="st20" d="M488.8,218.8c-0.5-3.6-2.4-7.1-5.7-9.5c-8.9-6.4-8.2-2.9-20.3-11.7c-12.1-8.8-8.5-9.3-17.4-15.7
		c-3.3-2.4-7.2-3.1-10.8-2.5"/>
	<path class="st19" d="M511.8,320.3c7.4-22.7,9.9-17.5,15.3-34.1c5.4-16.7-9.4-33.4-26.8-29.7L427.6,272
		c-8.7,1.8-14.8,8.1-17.2,15.4c-2.4,7.4-1.1,16,4.8,22.6l49.8,55.3c11.9,13.2,33.7,8.3,39.1-8.3C509.6,340.3,504.5,343,511.8,320.3z
		"/>
	<path class="st20" d="M489.5,348.3c3.3-1.6,6-4.5,7.3-8.4c3.4-10.4,0.2-8.7,4.8-22.9c4.6-14.2,6.2-10.9,9.6-21.4
		c1.3-3.9,0.8-7.8-0.9-11.1"/>
	<path class="st19" d="M400,401.6c23.8,0,19.7,4,37.2,4c17.5,0,28.9-19.2,20-34.6L420,306.5c-4.4-7.7-12.2-11.5-20-11.5
		s-15.5,3.8-20,11.5L342.8,371c-8.9,15.4,2.5,34.6,20,34.6C380.3,405.6,376.2,401.6,400,401.6z"/>
	<path class="st20" d="M366.5,389c2.6,2.6,6.1,4.3,10.2,4.3c11,0,8.4-2.5,23.3-2.5s12.3,2.5,23.3,2.5c4.1,0,7.7-1.7,10.2-4.3"/>
	<path class="st21" d="M372.1,333L372.1,333c-3.3-3.6-7.3-6.5-11.8-8.5h0c-20-9.4-28-33.7-17.2-53.1l0,0c2.4-4.3,3.9-9,4.5-13.8v0
		c2.7-22,23.4-37,45.2-32.8l0,0c4.8,0.9,9.7,0.9,14.5,0l0,0c21.7-4.2,42.5,10.9,45.2,32.8v0c0.6,4.9,2.1,9.6,4.5,13.8v0
		c10.7,19.4,2.8,43.7-17.2,53.1h0c-4.4,2.1-8.4,5-11.8,8.5l0,0C412.8,349.2,387.2,349.2,372.1,333z"/>
	<polyline class="st30" points="430.3,260.6 386.8,304.9 370.1,286.2 	"/>
</g>
<g id="Layer_5">
</g>
</svg>
