<?xml version="1.0" encoding="utf-8"?>
<!-- Generator: Adobe Illustrator 27.0.1, SVG Export Plug-In . SVG Version: 6.00 Build 0)  -->
<svg version="1.1" id="Layer_1" xmlns="http://www.w3.org/2000/svg" xmlns:xlink="http://www.w3.org/1999/xlink" x="0px" y="0px"
	 viewBox="0 0 31.5 29.4" style="enable-background:new 0 0 31.5 29.4;" xml:space="preserve">
<style type="text/css">
	.st0{fill:#2070B2;}
	.st1{fill:#2C96FF;}
	.st2{fill:#F7F7F7;}
</style>
<g>
	<g>
		<path class="st0" d="M-205.6-32.8l15.9,24.9c0.3,0.5,0.8,0.9,1.4,1l28.6,7.4c1.7,0.4,2.4,2.5,1.3,3.9l-18.9,22.8
			c-0.4,0.5-0.6,1.1-0.5,1.7l1.8,29.5c0.1,1.8-1.7,3-3.3,2.4l-27.4-10.9c-0.6-0.2-1.2-0.2-1.8,0L-236,60.7c-1.6,0.6-3.4-0.6-3.3-2.4
			l1.8-29.5c0-0.6-0.2-1.2-0.5-1.7l-18.8-22.7c-1.1-1.4-0.5-3.4,1.3-3.9l28.6-7.4c0.6-0.2,1.1-0.5,1.4-1l15.8-24.9
			C-208.7-34.3-206.5-34.3-205.6-32.8z"/>
	</g>
	<g>
		<path class="st1" d="M-249.4,30.7c2.8,8.5,0.9,7.5,2.9,13.7s10.2,8,14.6,3.1l18.6-20.7c2.2-2.5,2.7-5.7,1.8-8.4
			c-0.9-2.8-3.2-5.1-6.4-5.8l-27.2-5.8c-6.5-1.4-12,4.9-10,11.1C-253.1,24.1-252.2,22.2-249.4,30.7z"/>
	</g>
	<g>
		<path class="st1" d="M-233.5-18.4c-7.2,5.2-6.8,3.1-12.1,7c-5.3,3.9-4.5,12.2,1.6,14.9l25.4,11.3c3,1.4,6.2,0.8,8.6-0.9
			s3.9-4.6,3.5-7.9l-2.9-27.7c-0.7-6.6-8.4-10-13.7-6.1C-228.4-23.9-226.3-23.7-233.5-18.4z"/>
	</g>
	<g>
		<path class="st1" d="M-181.8-18.4c-7.2-5.2-5.1-5.5-10.4-9.4c-5.3-3.8-13-0.5-13.7,6.1L-208.8,6c-0.3,3.3,1.2,6.2,3.5,7.9
			c2.4,1.7,5.5,2.3,8.6,0.9l25.4-11.3c6.1-2.7,6.9-11,1.6-14.9C-175-15.3-174.6-13.2-181.8-18.4z"/>
	</g>
	<g>
		<path class="st1" d="M-165.8,30.7c2.8-8.5,3.7-6.5,5.7-12.8c2-6.2-3.5-12.5-10-11.1l-27.2,5.8c-3.2,0.7-5.5,3-6.4,5.8
			c-0.9,2.8-0.4,6,1.8,8.4l18.6,20.7c4.4,4.9,12.6,3.1,14.6-3.1S-168.6,39.2-165.8,30.7z"/>
	</g>
	<g>
		<path class="st1" d="M-207.6,61.1c8.9,0,7.4,1.5,13.9,1.5s10.8-7.2,7.5-12.9l-14-24.1c-1.7-2.9-4.6-4.3-7.5-4.3
			c-2.9,0-5.8,1.4-7.5,4.3l-13.8,24c-3.3,5.8,0.9,12.9,7.5,12.9C-214.9,62.5-216.5,61.1-207.6,61.1z"/>
	</g>
	<g>
		<path class="st0" d="M-221.7,41.8L-221.7,41.8c-1.7-1.8-3.7-3.3-5.9-4.3l0,0c-10.2-4.8-14.2-17.1-8.8-26.8l0,0
			c1.2-2.2,2-4.5,2.3-7l0,0c1.4-11.1,11.8-18.7,22.8-16.6l0,0c2.4,0.5,4.9,0.5,7.3,0l0,0c11-2.1,21.4,5.5,22.8,16.6l0,0
			c0.3,2.5,1.1,4.8,2.3,7l0,0c5.4,9.8,1.4,22.1-8.7,26.8l0,0c-2.2,1-4.3,2.5-5.9,4.3l0,0C-201.2,49.9-214.1,49.9-221.7,41.8z"/>
	</g>
	<g>
		<path class="st2" d="M-212.6,28.3L-212.6,28.3c-1,0-1.9-0.4-2.5-1.1l-6.3-7c-1.2-1.4-1.1-3.5,0.3-4.8c1.4-1.2,3.5-1.1,4.8,0.3
			l3.9,4.3l13.8-14c1.3-1.3,3.4-1.3,4.8,0c1.3,1.3,1.3,3.4,0,4.8l-16.4,16.5C-210.8,28-211.7,28.3-212.6,28.3z"/>
	</g>
</g>
<g>
	<path class="st0" d="M16.4,1L21,8.3c0.1,0.2,0.2,0.3,0.4,0.3l8.4,2.2c0.5,0.1,0.7,0.7,0.4,1.1l-5.5,6.7c-0.1,0.1-0.2,0.3-0.2,0.5
		l0.5,8.6c0,0.5-0.5,0.9-1,0.7l-8-3.2c-0.2-0.1-0.4-0.1-0.5,0l-8,3.2c-0.5,0.2-1-0.2-1-0.7L7,19c0-0.2,0-0.4-0.2-0.5l-5.5-6.7
		c-0.3-0.4-0.1-1,0.4-1.1l8.4-2.2c0.2,0,0.3-0.2,0.4-0.3L15.2,1C15.5,0.6,16.1,0.6,16.4,1z"/>
</g>
<g>
	<path class="st1" d="M4,19.4c0.8,2.4,0.2,2.1,0.8,3.9c0.6,1.8,2.9,2.3,4.1,0.9l5.3-5.8c0.6-0.7,0.8-1.6,0.5-2.4
		c-0.3-0.8-0.9-1.4-1.8-1.6l-7.7-1.6c-1.8-0.4-3.4,1.4-2.8,3.1S3.2,17,4,19.4z"/>
</g>
<g>
	<path class="st1" d="M8.5,5.5C6.4,7,6.5,6.4,5,7.5s-1.3,3.4,0.4,4.2l7.2,3.2c0.9,0.4,1.8,0.2,2.4-0.3c0.7-0.5,1.1-1.3,1-2.2
		l-0.8-7.8c-0.2-1.9-2.4-2.8-3.9-1.7S10.5,4,8.5,5.5z"/>
</g>
<g>
	<path class="st1" d="M23.1,5.5C21,4,21.6,4,20.1,2.9c-1.5-1.1-3.7-0.1-3.9,1.7l-0.8,7.8c-0.1,0.9,0.3,1.7,1,2.2s1.6,0.6,2.4,0.3
		l7.2-3.2c1.7-0.8,1.9-3.1,0.4-4.2S25.1,7,23.1,5.5z"/>
</g>
<g>
	<path class="st1" d="M27.6,19.4c0.8-2.4,1-1.8,1.6-3.6c0.6-1.8-1-3.5-2.8-3.1l-7.7,1.6c-0.9,0.2-1.6,0.9-1.8,1.6
		c-0.3,0.8-0.1,1.7,0.5,2.4l5.3,5.8c1.3,1.4,3.6,0.9,4.1-0.9C27.3,21.5,26.8,21.8,27.6,19.4z"/>
</g>
<g>
	<path class="st1" d="M15.8,28c2.5,0,2.1,0.4,3.9,0.4s3-2,2.1-3.7L17.9,18c-0.5-0.8-1.3-1.2-2.1-1.2s-1.6,0.4-2.1,1.2l-3.9,6.8
		c-0.9,1.6,0.3,3.7,2.1,3.7S13.3,28,15.8,28z"/>
</g>
<g>
	<path class="st0" d="M12.7,23.6l-1.1-1.2c-0.4-0.4-0.8-0.7-1.3-1l-1.4-0.7c-2.2-1-3.1-3.8-1.9-5.9l0.8-1.4c0.3-0.5,0.4-1,0.5-1.5
		l0.2-1.6c0.3-2.4,2.6-4.1,5-3.7L15,7.1c0.5,0.1,1.1,0.1,1.6,0l1.6-0.3c2.4-0.5,4.7,1.2,5,3.7l0.2,1.6c0.1,0.5,0.2,1.1,0.5,1.5
		l0.8,1.4c1.2,2.2,0.3,4.9-1.9,5.9l-1.4,0.7c-0.5,0.2-0.9,0.6-1.3,1l-1.1,1.2C17.2,25.4,14.3,25.4,12.7,23.6z"/>
</g>
<g>
	<path class="st2" d="M14,19.9C13.9,19.9,13.9,19.9,14,19.9c-0.4,0-0.7-0.2-0.9-0.4l-2.3-2.6c-0.5-0.5-0.4-1.3,0.1-1.8
		c0.5-0.5,1.3-0.4,1.8,0.1l1.4,1.6l5.1-5.2c0.5-0.5,1.3-0.5,1.8,0c0.5,0.5,0.5,1.3,0,1.8l-6.1,6.2C14.6,19.7,14.3,19.9,14,19.9z"/>
</g>
</svg>
