<?xml version="1.0" encoding="utf-8"?>
<!-- Generator: Adobe Illustrator 16.0.4, SVG Export Plug-In . SVG Version: 6.00 Build 0)  -->
<!DOCTYPE svg PUBLIC "-//W3C//DTD SVG 1.1//EN" "http://www.w3.org/Graphics/SVG/1.1/DTD/svg11.dtd">
<svg version="1.1" id="Layer_1" xmlns="http://www.w3.org/2000/svg" xmlns:xlink="http://www.w3.org/1999/xlink" x="0px" y="0px"
	 width="400px" height="400px" viewBox="0 0 400 400" enable-background="new 0 0 400 400" xml:space="preserve">
<title>phone</title>
<path d="M684.729,0.82H540.605c-14.619,0-26.473,11.847-26.48,26.467V372.71c-0.005,14.624,11.846,26.484,26.471,26.489
	c0.004,0,0.006,0,0.01,0h144.123c14.624,0,26.479-11.855,26.479-26.479c0-0.003,0-0.007,0-0.01V27.287
	C711.201,12.667,699.348,0.82,684.729,0.82z M548.752,23.122c-2.315,0-4.191-1.876-4.191-4.191c0-2.314,1.876-4.191,4.191-4.191
	c2.314,0,4.19,1.876,4.19,4.191C552.942,21.245,551.066,23.122,548.752,23.122L548.752,23.122z M616.214,36.282h-7.155
	c-1.366,0.049-2.514-1.019-2.564-2.386c-0.049-1.367,1.02-2.515,2.386-2.564c0.06-0.002,0.12-0.002,0.179,0h7.157
	c1.367,0.05,2.436,1.198,2.386,2.564c-0.047,1.298-1.088,2.338-2.386,2.386H616.214z M630.897,20.917H594.67
	c-1.253,0-2.269-1.016-2.269-2.269c0-1.253,1.016-2.269,2.269-2.269h36.228c1.253,0,2.269,1.016,2.269,2.269
	C633.166,19.901,632.15,20.917,630.897,20.917L630.897,20.917z"/>
<g>
	<path stroke="#000000" stroke-width="3" stroke-miterlimit="10" d="M200-24.934L200-24.934h-48.614c4.903,0,4.9,2.643,4.9,5.872
		v0.989c0,3.229,2.643,5.872,5.872,5.872H200l0,0h37.842c3.229,0,5.872-2.643,5.872-5.872v-0.989c0-3.229-0.003-5.872,4.9-5.872H200
		z"/>
	<g>
		<path stroke="#000000" stroke-width="3" stroke-miterlimit="10" d="M153.895,5.298h-0.383c2.769,0.707,2.775,2.97,2.775,5.64
			v0.989c0,3.229,2.643,5.872,5.872,5.872H200h37.842c3.229,0,5.872-2.643,5.872-5.872v-0.989c0-2.669,0.007-4.933,2.774-5.64
			h-0.382H153.895z"/>
		<path stroke="#000000" stroke-width="3" stroke-miterlimit="10" d="M270.525,5.066h-21.911c-0.851,0-1.545,0.084-2.126,0.232
			h23.953c14.29,0,25.877,11.581,25.884,25.872v337.658c0,0.003,0,0.007,0,0.009c0,14.295-11.589,25.884-25.884,25.884H129.559
			c-0.003,0-0.006,0-0.01,0c-14.295-0.004-25.88-11.599-25.875-25.893V31.17c0.007-14.291,11.594-25.872,25.885-25.872h23.953
			c-0.581-0.148-1.275-0.232-2.125-0.232h-21.911c-14.308,0-25.909,11.595-25.916,25.903v338.061
			c-0.005,14.312,11.593,25.92,25.906,25.924c0.004,0,0.007,0,0.01,0h141.051c14.312,0,25.915-11.603,25.915-25.915
			c0-0.002,0-0.006,0-0.009V30.969C296.434,16.661,284.833,5.066,270.525,5.066z"/>
		<path stroke="#000000" stroke-width="3" stroke-miterlimit="10" d="M153.895,5.298h92.212h0.382
			c0.581-0.148,1.275-0.232,2.126-0.232h-2.453H200h-46.161h-2.454c0.851,0,1.545,0.084,2.125,0.232H153.895z"/>
	</g>
</g>
</svg>
