<?xml version="1.0" encoding="utf-8"?>
<!-- Generator: Adobe Illustrator 24.3.0, SVG Export Plug-In . SVG Version: 6.00 Build 0)  -->
<svg version="1.1" id="Layer_1" xmlns="http://www.w3.org/2000/svg" xmlns:xlink="http://www.w3.org/1999/xlink" x="0px" y="0px"
	 viewBox="0 0 162 175.1" style="enable-background:new 0 0 162 175.1;" xml:space="preserve">
<style type="text/css">
	.st0{fill:#F0F0F0;}
	.st1{fill:#FFFFFF;}
</style>
<path class="st0" d="M40.5,66.1c-0.1,0.7-0.4,1.4-0.8,2c-0.4,0.7-1,1.4-1.7,1.9c-0.6,0.5-1.4,0.7-2.1,0.7c-0.9,0-1.7-0.5-2.1-1.3
	c-0.4-1-0.7-2-0.8-3.1c-0.1-0.9-0.3-1.7-0.7-2.5c0-0.1-0.1-0.1-0.2-0.1c-0.1,0-0.3,0-0.3,0.1c-1,0.8-1.8,1.9-2.1,3.2
	c-0.6,1.5-1,3.1-1.4,4.7c-0.1,0.4-0.2,0.8-0.4,1.2c-0.2,0.3-0.7,0.5-1,0.2c-0.1-0.1-0.2-0.1-0.2-0.2c-0.1-0.2-0.2-0.5-0.1-0.8
	c0.4-2,0.5-4,0.5-6c0-2.9,0.2-5.8,0.5-8.6c0.3-2.4,0.8-4.8,1.5-7.2c0.4-1.6,1.2-3,2.3-4.3c0.4-0.4,0.9-0.5,1.4-0.5
	c1.1,0.1,1.7,1.2,1.7,3.4c0,1.5-0.2,2.9-0.6,4.3c-0.5,1.7-1.1,3.4-2,5c-0.9,1.7-2,3.4-3.3,4.9v2.4c1.4-2.6,2.6-3.8,3.7-3.7
	c0.6,0,1.2,0.4,1.5,1c0.3,0.9,0.6,1.8,0.7,2.7c0.1,0.9,0.3,1.7,0.6,2.6C35,68.6,35.5,69,36,69c0.7,0.1,1.3-0.2,1.7-0.7
	c0.5-0.6,0.9-1.3,1.2-2c0.4-0.8,0.7-1.2,0.9-1.2c0.2,0,0.4,0.1,0.5,0.3C40.5,65.6,40.5,65.9,40.5,66.1z M33,49.5
	c0-0.5-0.1-0.9-0.1-1.4c-0.1-0.6-0.2-0.9-0.4-0.9s-0.4,0.2-0.7,0.6c-0.9,1.7-1.6,3.5-2,5.4c-0.6,2.5-1.1,5.1-1.3,7.8
	c1.5-1.8,2.6-3.9,3.5-6.1C32.6,53.1,32.9,51.3,33,49.5z"/>
<path class="st0" d="M49.8,66.8c-0.4,0.9-1,1.7-1.6,2.4c-0.7,0.7-1.4,1.3-2.3,1.8c-0.8,0.4-1.6,0.6-2.5,0.5c-1.2-0.1-2.3-0.8-3-1.8
	c-0.8-1.1-1.1-2.5-1.1-3.9c0-1,0.2-2.1,0.6-3.1c0.3-1,0.9-1.8,1.6-2.6c0.6-0.6,1.5-1,2.4-0.9c0.6,0,1.1,0.3,1.4,0.8
	c0.3,0.5,0.5,1.1,0.5,1.8c0,1.3-0.6,2.5-1.5,3.4c-0.8,1-2.2,1.5-3.5,1.3c0.1,0.8,0.4,1.6,0.9,2.3c0.5,0.6,1.2,0.9,1.9,1
	c1,0,2-0.3,2.8-0.9c1-0.7,1.9-1.7,2.4-2.8c0-0.1,0.1-0.1,0.2-0.2c0.1-0.1,0.2-0.1,0.3-0.1c0.2,0,0.4,0.2,0.5,0.4
	C50,66.4,49.9,66.7,49.8,66.8z M44.4,62.2c0-0.4-0.1-0.7-0.3-1.1c-0.2-0.3-0.4-0.5-0.6-0.5h-0.2l-0.3,0.1c-0.7,0.2-1.3,0.7-1.5,1.4
	c-0.5,0.8-0.7,1.7-0.7,2.7c0.2,0.1,0.5,0.2,0.8,0.2c0.5,0,0.9-0.1,1.3-0.3c0.4-0.3,0.8-0.6,1-1.1C44.3,63.2,44.4,62.7,44.4,62.2
	L44.4,62.2z"/>
<path class="st0" d="M57.9,68c-0.2,1-0.6,2-1.2,2.8c-0.5,0.7-1.1,1.4-1.8,1.8c-0.6,0.4-1.3,0.6-2.1,0.5c-1-0.1-2-0.6-2.5-1.5
	c-0.6-1-1.1-2.1-1.3-3.3c-0.2-1.2-0.3-2.4-0.3-3.6c0-1.4,0.1-2.7,0.3-4.1c0.2-1.4,0.4-2.9,0.8-4.3c0.3-1.3,0.7-2.5,1.2-3.7
	c0.3-0.9,0.8-1.7,1.4-2.4c0.3-0.4,0.9-0.7,1.4-0.7c0.6,0.1,1.2,0.5,1.4,1.1c0.3,0.7,0.5,1.4,0.5,2.1c-0.1,2-0.6,4-1.4,5.8
	c-1,2.6-2.3,5.1-3.8,7.5l-0.1,0.2c-0.3,0.6-0.3,1.2,0,1.8c0.3,0.8,0.7,1.6,1.2,2.3c0.4,0.6,0.9,1,1.6,1.1c0.7,0.1,1.4-0.2,1.8-0.8
	c0.5-0.8,1-1.6,1.3-2.5c0.5-1.1,0.9-1.6,1.1-1.6C57.9,66.8,58.1,67.2,57.9,68z M54.3,53.2c0-0.2,0-0.4,0-0.6c0-0.3-0.1-0.5-0.2-0.8
	c-0.1-0.2-0.2-0.4-0.4-0.4c-0.2,0-0.5,0.1-0.6,0.3c-0.7,0.8-1.2,1.7-1.5,2.7c-0.5,1.4-0.9,2.8-1.1,4.3c-0.3,1.8-0.4,3.5-0.4,5.3v0.2
	c1.2-1.8,2.2-3.8,3-5.8C53.9,56.8,54.3,55,54.3,53.2z"/>
<path class="st0" d="M66.1,68.7c-0.2,1-0.6,2-1.2,2.8c-0.5,0.7-1.1,1.4-1.8,1.8c-0.6,0.4-1.3,0.6-2.1,0.5c-1-0.1-2-0.6-2.5-1.5
	c-0.6-1-1.1-2.1-1.3-3.3c-0.2-1.2-0.3-2.4-0.3-3.6c0-1.4,0.1-2.7,0.3-4.1c0.2-1.4,0.4-2.9,0.8-4.3c0.3-1.3,0.7-2.5,1.2-3.7
	c0.3-0.9,0.8-1.7,1.4-2.4c0.4-0.4,0.9-0.7,1.5-0.6c0.6,0.1,1.2,0.5,1.4,1.1c0.3,0.7,0.5,1.4,0.5,2.1c-0.1,2-0.6,4-1.4,5.8
	c-1,2.6-2.3,5.1-3.8,7.5l-0.1,0.2c-0.3,0.6-0.3,1.2,0,1.8c0.3,0.8,0.7,1.6,1.2,2.3c0.4,0.6,0.9,1,1.6,1.1c0.7,0.1,1.4-0.2,1.8-0.8
	c0.5-0.8,1-1.6,1.4-2.5c0.5-1.1,0.9-1.6,1.1-1.6C66.1,67.5,66.2,67.9,66.1,68.7z M62.5,53.9c0-0.2,0-0.4,0-0.6
	c0-0.3-0.1-0.5-0.2-0.8c-0.1-0.2-0.2-0.4-0.4-0.4c-0.2,0-0.5,0.1-0.6,0.3c-0.7,0.8-1.2,1.7-1.5,2.7c-0.5,1.4-0.9,2.8-1.1,4.3
	c-0.3,1.8-0.4,3.5-0.4,5.3v0.2c1.2-1.8,2.2-3.8,3-5.8C62,57.5,62.4,55.7,62.5,53.9z"/>
<path class="st0" d="M80,69.5c-0.3,0.8-0.8,1.4-1.6,1.8c-0.8,0.4-1.7,0.6-2.6,0.5l-0.3-0.1h-0.3c-0.6,1.2-1.5,2.1-2.6,2.8
	c-1.1,0.7-2.3,1-3.6,0.9c-0.8-0.1-1.6-0.4-2.2-0.9c-0.7-0.5-1.2-1.2-1.6-2c-0.4-0.8-0.6-1.7-0.6-2.6c0-1.1,0.3-2.3,0.9-3.2
	c0.6-1,1.4-1.7,2.4-2.3c1-0.5,2.1-0.8,3.3-0.7c1.2,0.1,1.9,0.4,2.1,0.8v0.1c0.1,0,0.3,0.1,0.4,0.1c0.7,0.1,1.2,0.6,1.6,1.5
	c0.4,0.8,0.6,1.7,0.6,2.6c0,0.5-0.1,1-0.2,1.5c0.1,0,0.3,0.1,0.4,0.1c1.2,0.1,2.4-0.5,3.1-1.5c0.1-0.2,0.3-0.3,0.5-0.2
	c0.2,0,0.3,0.1,0.4,0.3C80.1,69.2,80.1,69.4,80,69.5z M73.7,71.1c-1.8-1.3-2.7-2.8-2.7-4.4c0-0.5,0.1-1,0.3-1.5
	c-1-0.1-1.9,0-2.8,0.5c-0.7,0.4-1.3,1.1-1.7,1.8c-0.4,0.8-0.6,1.6-0.6,2.5c0,1,0.3,2,0.9,2.8c0.5,0.8,1.3,1.3,2.2,1.4
	c0.9,0,1.8-0.3,2.5-0.8C72.6,72.7,73.3,72,73.7,71.1L73.7,71.1z M74.4,68.6c0-0.5-0.1-1-0.4-1.4c-0.2-0.4-0.4-0.7-0.8-0.9
	c0,0-0.1,0-0.1-0.1H73c-0.4,0-0.5,0.3-0.5,0.9c0,0.5,0.2,0.9,0.4,1.3c0.3,0.5,0.7,0.9,1.2,1.3C74.3,69.4,74.3,69,74.4,68.6
	L74.4,68.6z"/>
<g>
	<path class="st1" d="M91.7,102.4c-0.1,0-0.2,0-0.2,0L13,93.1c-1-0.1-1.8-1-1.8-2l1.4-69c0-0.4,0.2-0.8,0.5-1
		c0.3-0.3,0.7-0.4,1.1-0.4l79.2,4.6c1.6,0.1,2.9,1.4,2.8,3l-2.2,72c0,0,0,0.1,0,0.2c-0.1,0.6-0.4,1.2-0.8,1.6
		C92.8,102.3,92.3,102.4,91.7,102.4z M14.2,21.6c-0.1,0-0.2,0-0.3,0.1c-0.1,0.1-0.2,0.2-0.2,0.3l-0.5,0l0.5,0l-1.4,69
		c0,0.5,0.4,0.9,0.9,1l78.5,9.3c0.3,0,0.7-0.1,1-0.3c0.3-0.2,0.4-0.5,0.5-0.9l2.3-72.1c0-1.1-0.8-1.9-1.9-2L14.2,21.6
		C14.2,21.6,14.2,21.6,14.2,21.6z"/>
</g>
<g>
	<path class="st1" d="M82.7,97.3c-27.2,0-59.4-6.2-63.2-6.9c-2.5-0.5-4.3-2.6-4.4-5.2c-0.3-9.4-0.8-33.8,1.7-55.7
		c0.3-2.9,2.8-5.1,5.7-5.1C49.3,24.2,78,26.8,89.2,28c2.3,0.2,4.1,2.3,3.9,4.6l-2.6,61.9c-0.1,1.5-1.3,2.7-2.7,2.7
		C86.1,97.3,84.4,97.3,82.7,97.3z M25.3,25.4c-1,0-1.9,0-2.9,0c-2.4,0-4.4,1.8-4.7,4.2c-2.5,21.8-2,46.1-1.7,55.5
		c0.1,2.1,1.6,3.8,3.6,4.2c4,0.8,40.1,7.7,68.1,6.9c1,0,1.7-0.8,1.8-1.7l2.6-61.9c0.1-1.8-1.2-3.4-3.1-3.6
		C78.4,27.9,51.3,25.4,25.3,25.4z"/>
</g>
<g>
	<path class="st1" d="M95.9,147.2c-0.1,0-0.2,0-0.3,0L6.9,133.6c-0.8-0.1-1.3-0.8-1.3-1.6L8.1,13.7c0-0.7,0.6-1.2,1.2-1.2l91.6,3.8
		c1.3,0.1,2.3,1.2,2.2,2.5l-4.8,126.1c0,0.1,0,0.2,0,0.3C98.1,146.3,97.1,147.2,95.9,147.2z M7.1,132.6l88.6,13.6
		c0.8,0.1,1.5-0.4,1.6-1.2c0,0,0-0.1,0-0.2l4.8-126.1c0-0.7-0.5-1.4-1.3-1.4L9.3,13.5c-0.1,0-0.2,0.1-0.2,0.2L6.6,132
		C6.6,132.3,6.8,132.5,7.1,132.6z"/>
</g>
<g>
	<path class="st1" d="M98.8,154.3c-0.2,0-0.4,0-0.6-0.1L6.4,139.6c-1.6-0.3-2.8-1.7-2.8-3.4l2.8-127c0-1.2,0.5-2.3,1.4-3
		C8.5,5.4,9.6,5,10.7,5l92.7,3.3c1.2,0,2.3,0.5,3.1,1.4c0.8,0.9,1.2,2,1.2,3.2l-4.9,137.4v0c0,0.2,0,0.3-0.1,0.5
		C102.4,152.9,100.7,154.3,98.8,154.3z M10.6,6C9.8,6,9,6.3,8.3,6.9c-0.6,0.6-1,1.4-1,2.3l-2.8,127c0,1.2,0.8,2.2,2,2.3l91.8,14.7
		c1.6,0.3,3.2-0.9,3.5-2.5c0-0.1,0-0.3,0-0.4v0l4.9-137.5c0-0.9-0.3-1.8-0.9-2.5s-1.5-1.1-2.4-1.1L10.7,6C10.7,6,10.6,6,10.6,6z"/>
</g>
<g>
	<path class="st1" d="M114.4,169c-0.3,0-0.5-0.1-0.7-0.3c-0.2-0.2-0.3-0.5-0.3-0.7l-0.3-25.4c0-0.1,0-0.2-0.1-0.4
		c-0.2-0.7-1-1.1-1.7-0.9l-3.8,1.1c-0.2,0-0.3,0.1-0.5,0.1c-0.9,0-1.5-0.8-1.5-1.6l0-1.2c1.5-35.6,5-118.8,5.3-123.8
		c0.3-5.6-0.2-5.9-8.5-6.5l0-1l46.8,1.7c2.7,0.1,5,2,5.6,4.5l2.4,9.5c0.8,3.2,1.2,6.6,1.2,9.9l-1.2,107.7c0,1.2-0.7,2.3-1.7,2.9
		L115,168.9C114.8,169,114.6,169,114.4,169C114.5,169,114.4,169,114.4,169z M111.7,140.2c1,0,2,0.7,2.3,1.7c0.1,0.2,0.1,0.4,0.1,0.6
		l0.3,25.4l40.7-24.2c0.7-0.4,1.2-1.2,1.2-2.1L157.4,34c0-3.3-0.4-6.5-1.2-9.6l-2.4-9.5c-0.6-2.2-2.5-3.7-4.7-3.8L110,9.6
		c1.7,0.9,2,2.7,1.9,6.3c-0.3,5-3.8,88.3-5.3,123.8l0,1.2c0,0.3,0.2,0.6,0.5,0.6c0.1,0,0.1,0,0.2,0l3.8-1.1
		C111.3,140.3,111.5,140.2,111.7,140.2z"/>
</g>
<g>
	<path class="st1" d="M114.4,169.1l-99.9-16.2c-0.8-0.1-1.4-0.8-1.4-1.6v-11h1v11c0,0.3,0.2,0.6,0.6,0.6l99.9,16.2L114.4,169.1z"/>
</g>
<g>
	<path class="st1" d="M89.8,126.5L77.2,125v-1.3l-25.9-3.6v-3.8l25.9,3.6v-0.4l12.6,1.5V126.5z M77.9,124.4l11.1,1.3v-4l-11.1-1.3
		v0.4L52,117.2v2.2l25.2,3.5c0.4,0.1,0.7,0.4,0.7,0.8V124.4z"/>
</g>
<g>
	<path class="st1" d="M90.6,130c-0.1,0-0.1,0-0.2,0l-15.8-2.2c-0.5-0.1-0.9-0.5-0.9-1.1v-2c0-0.2-0.1-0.3-0.3-0.3l-26-3.3
		c-0.5-0.1-1-0.5-1-1.1v-4.3c0-0.6,0.5-1.1,1.1-1.1c0,0,0,0,0,0l0.1,0l25.6,3.2c0.1,0,0.2,0,0.3-0.1c0.1-0.1,0.1-0.1,0.1-0.2l0-1.8
		c0-0.6,0.5-1.1,1.1-1.1l0.1,0l15.9,1.8c0.7,0.1,1.3,0.7,1.3,1.5v10.6C92.1,129.3,91.4,130,90.6,130z M47.6,115.4
		c-0.2,0-0.4,0.2-0.4,0.3v4.3c0,0.2,0.1,0.3,0.3,0.3l26,3.3c0.5,0.1,1,0.5,1,1.1v2c0,0.2,0.1,0.3,0.3,0.3l15.8,2.2
		c0.4,0,0.8-0.3,0.8-0.7v-10.6c0-0.4-0.3-0.7-0.6-0.7l-15.9-1.8c0,0,0,0,0,0c-0.2,0-0.4,0.2-0.4,0.3l0,1.9c0,0.3-0.2,0.5-0.4,0.7
		c-0.2,0.2-0.5,0.3-0.8,0.2L47.6,115.4C47.6,115.4,47.6,115.4,47.6,115.4z"/>
</g>
<g>
	<path class="st1" d="M88.7,128C88.7,128,88.7,128,88.7,128c-0.1,0-0.1,0-0.2,0l-10.4-1.4c-0.5-0.1-1-0.5-1-1.1v-1.8L50.4,120
		c-0.4-0.1-0.6-0.4-0.6-0.7V117c0-0.4,0.3-0.7,0.7-0.7l0.1,0l26.7,3.7l0,0v-2c0-0.3,0.1-0.6,0.3-0.8c0.2-0.2,0.5-0.3,0.8-0.3
		c0,0,0.1,0,0.2,0l10.4,1.4c0.5,0.1,1,0.5,1,1.1v7.5c0,0.3-0.1,0.6-0.3,0.8C89.2,127.8,89,128,88.7,128z M50.5,117l0,2.2l26.8,3.7
		c0.4,0.1,0.6,0.4,0.6,0.7v1.8c0,0.2,0.1,0.3,0.3,0.3l10.4,1.4c0.1,0,0.2,0,0.3-0.1s0.1-0.2,0.1-0.2v-7.5c0-0.2-0.1-0.3-0.3-0.3
		l-10.4-1.4c-0.1,0-0.2,0-0.3,0.1c-0.1,0.1-0.1,0.2-0.1,0.2l0,2.1c-0.1,0.4-0.4,0.7-0.8,0.6L50.5,117z"/>
</g>
<g id="vents_1_">
	<g>
		<path class="st1" d="M129.1,155.6c-0.1,0-0.1,0-0.2-0.1c-0.1-0.1-0.1-0.1-0.1-0.2v-0.5c0-0.1,0.1-0.2,0.2-0.3l4.1-2.4
			c0,0,0.1,0,0.2,0c0.1,0,0.2,0,0.2,0.1c0.1,0.1,0.1,0.1,0.1,0.2v0.6c0,0.1-0.1,0.2-0.2,0.3l-4.1,2.3
			C129.2,155.6,129.1,155.6,129.1,155.6z M129.1,155.3l0.1,0.1L129.1,155.3l4.1-2.3c0,0,0,0,0,0v-0.6c0,0,0,0,0,0c0,0,0,0,0,0
			l-4.1,2.4c0,0,0,0,0,0L129.1,155.3C129,155.3,129,155.3,129.1,155.3C129.1,155.3,129.1,155.3,129.1,155.3
			C129.1,155.3,129.1,155.3,129.1,155.3z"/>
	</g>
	<g>
		<path class="st1" d="M134.8,152.3C134.8,152.3,134.8,152.3,134.8,152.3c-0.1,0-0.2-0.1-0.2-0.1c0-0.1-0.1-0.1-0.1-0.2l0-0.5
			c0-0.1,0.1-0.2,0.2-0.3l4.1-2.4c0,0,0.1,0,0.2,0c0.1,0,0.2,0,0.2,0.1c0.1,0.1,0.1,0.1,0.1,0.2v0.6c0,0.1-0.1,0.2-0.2,0.3l-4.1,2.3
			C134.9,152.3,134.9,152.3,134.8,152.3z M138.9,149.1l-4.1,2.4c0,0,0,0,0,0v0.5c0,0,0,0.1,0,0.1c0,0,0,0,0,0l4.1-2.3c0,0,0,0,0,0
			L138.9,149.1C139,149.1,139,149.1,138.9,149.1C138.9,149.1,138.9,149.1,138.9,149.1z"/>
	</g>
	<g>
		<path class="st1" d="M140.3,149.2C140.2,149.2,140.2,149.2,140.3,149.2c-0.1,0-0.2,0-0.2-0.1c-0.1-0.1-0.1-0.1-0.1-0.2v-0.5
			c0-0.1,0.1-0.2,0.2-0.3l4.1-2.4c0,0,0.1,0,0.2,0c0.2,0,0.3,0.1,0.3,0.3v0.6c0,0.1-0.1,0.2-0.2,0.3l-4.1,2.3
			C140.4,149.2,140.3,149.2,140.3,149.2z M144.3,145.9l-4.1,2.4c0,0,0,0,0,0v0.5c0,0,0,0.1,0,0.1l0,0l4.1-2.3c0,0,0,0,0,0
			L144.3,145.9C144.4,146,144.4,145.9,144.3,145.9z"/>
	</g>
	<g>
		<path class="st1" d="M145.6,146.1C145.6,146.1,145.6,146.1,145.6,146.1c-0.1,0-0.2,0-0.2-0.1c-0.1-0.1-0.1-0.1-0.1-0.2v-0.5
			c0-0.1,0.1-0.2,0.2-0.3l4.1-2.4c0,0,0.1,0,0.2,0c0.2,0,0.3,0.1,0.3,0.3v0.6c0,0.1-0.1,0.2-0.2,0.3l-4.1,2.3
			C145.7,146.1,145.6,146.1,145.6,146.1z M149.7,142.9l-4.1,2.4c0,0,0,0,0,0v0.5c0,0,0,0.1,0.1,0.1l0,0l4.1-2.3c0,0,0,0,0,0
			L149.7,142.9C149.7,142.9,149.7,142.9,149.7,142.9z"/>
	</g>
	<g>
		<path class="st1" d="M151,143C151,143,150.9,143,151,143c-0.2,0-0.3-0.1-0.3-0.3v-0.5c0-0.1,0.1-0.2,0.2-0.3l4-2.4
			c0,0,0.1,0,0.2,0c0.2,0,0.3,0.1,0.3,0.3v0.6c0,0.1-0.1,0.2-0.2,0.3L151,143C151,143,151,143,151,143z M155,139.7
			C155,139.7,155,139.7,155,139.7l-4.1,2.4c0,0,0,0,0,0v0.5c0,0,0,0.1,0.1,0.1l0,0l4.1-2.3c0,0,0,0,0,0L155,139.7
			C155.1,139.8,155,139.7,155,139.7z"/>
	</g>
	<g>
		<path class="st1" d="M123.1,159C123.1,159,123.1,159,123.1,159c-0.2,0-0.3-0.2-0.3-0.4l0-0.5c0-0.1,0.1-0.2,0.2-0.3l4.1-2.3
			c0,0,0.1,0,0.2,0c0.1,0,0.2,0,0.2,0.1c0.1,0.1,0.1,0.1,0.1,0.2v0.6c0,0.1-0.1,0.2-0.2,0.3l-4.1,2.3C123.2,159,123.1,159,123.1,159
			z M127.2,155.8l-4.1,2.3c0,0,0,0,0,0v0.5c0,0.1,0,0.1,0,0.1c0,0,0,0,0,0l4.1-2.3c0,0,0,0,0,0L127.2,155.8
			C127.2,155.8,127.2,155.8,127.2,155.8C127.2,155.8,127.2,155.8,127.2,155.8z"/>
	</g>
	<g>
		<path class="st1" d="M117.6,162.2C117.6,162.2,117.6,162.2,117.6,162.2c-0.1,0-0.2,0-0.2-0.1c-0.1-0.1-0.1-0.1-0.1-0.2v-0.5
			c0-0.1,0.1-0.2,0.2-0.3l4.1-2.4c0,0,0.1,0,0.2,0c0.1,0,0.2,0,0.2,0.1c0.1,0.1,0.1,0.1,0.1,0.2v0.6c0,0.1-0.1,0.2-0.2,0.3l-4.1,2.3
			C117.7,162.2,117.6,162.2,117.6,162.2z M121.7,158.9l-4.1,2.4c0,0,0,0,0,0v0.5c0,0,0,0,0,0c0,0,0,0,0,0l0,0l4.1-2.3c0,0,0,0,0,0
			L121.7,158.9C121.7,159,121.7,158.9,121.7,158.9z"/>
	</g>
	<g>
		<path class="st1" d="M129.1,153.7c-0.2,0-0.3-0.1-0.3-0.3l0-0.5c0-0.1,0.1-0.2,0.2-0.3l4.1-2.4c0,0,0.1,0,0.2,0
			c0.1,0,0.2,0,0.2,0.1c0.1,0.1,0.1,0.1,0.1,0.2v0.6c0,0.1-0.1,0.2-0.2,0.3l-4.1,2.3C129.2,153.7,129.2,153.7,129.1,153.7
			C129.1,153.7,129.1,153.7,129.1,153.7z M129.1,153.4l0.1,0.1L129.1,153.4l4.1-2.3c0,0,0,0,0,0v-0.6c0,0,0-0.1-0.1-0.1l-4.1,2.4
			c0,0,0,0,0,0.1L129.1,153.4C129,153.4,129.1,153.4,129.1,153.4z"/>
	</g>
	<g>
		<path class="st1" d="M134.8,150.4c-0.2,0-0.3-0.1-0.3-0.3v-0.5c0-0.1,0.1-0.2,0.2-0.3l4.1-2.4c0.1,0,0.1,0,0.2,0
			c0.1,0,0.2,0,0.2,0.1c0.1,0.1,0.1,0.1,0.1,0.2v0.6c0,0.1-0.1,0.2-0.2,0.3l-4.1,2.3C134.9,150.4,134.9,150.4,134.8,150.4z
			 M138.9,147.1l-4.1,2.4c0,0,0,0,0,0v0.5c0,0,0,0.1,0.1,0.1l0,0l4.1-2.3c0,0,0,0,0,0L138.9,147.1C139,147.2,139,147.2,138.9,147.1
			C138.9,147.1,138.9,147.1,138.9,147.1z"/>
	</g>
	<g>
		<path class="st1" d="M140.3,147.3c-0.1,0-0.2,0-0.2-0.1c-0.1-0.1-0.1-0.1-0.1-0.2v-0.5c0-0.1,0.1-0.2,0.2-0.3l4.1-2.4
			c0,0,0.1,0,0.2,0c0.2,0,0.3,0.1,0.3,0.3v0.6c0,0.1-0.1,0.2-0.2,0.3l-4.1,2.3C140.4,147.3,140.3,147.3,140.3,147.3
			C140.3,147.3,140.3,147.3,140.3,147.3z M144.3,144l-4.1,2.4c0,0,0,0,0,0v0.5c0,0,0,0,0.1,0c0,0,0,0,0,0l0,0l4.1-2.3c0,0,0,0,0,0
			L144.3,144C144.4,144,144.4,144,144.3,144z"/>
	</g>
	<g>
		<path class="st1" d="M145.6,144.2C145.6,144.2,145.6,144.2,145.6,144.2c-0.1,0-0.2,0-0.2-0.1c-0.1-0.1-0.1-0.1-0.1-0.2v-0.5
			c0-0.1,0.1-0.2,0.2-0.3l4.1-2.4c0,0,0.1,0,0.2,0c0.2,0,0.3,0.1,0.3,0.3v0.6c0,0.1-0.1,0.2-0.2,0.3l-4.1,2.3
			C145.7,144.2,145.6,144.2,145.6,144.2z M149.7,140.9l-4.1,2.4c0,0,0,0,0,0v0.5c0,0,0,0.1,0.1,0.1l0,0l4.1-2.3c0,0,0,0,0,0
			L149.7,140.9C149.7,141,149.7,140.9,149.7,140.9z"/>
	</g>
	<g>
		<path class="st1" d="M150.9,141.1C150.9,141.1,150.9,141.1,150.9,141.1c-0.1,0-0.2,0-0.2-0.1c-0.1-0.1-0.1-0.1-0.1-0.2v-0.5
			c0-0.1,0.1-0.2,0.2-0.3l4.1-2.4c0,0,0.1,0,0.2,0c0.2,0,0.3,0.1,0.3,0.3v0.6c0,0.1-0.1,0.2-0.2,0.3l-4.1,2.3
			C151,141.1,151,141.1,150.9,141.1z M155,137.8C155,137.8,155,137.8,155,137.8l-4.1,2.4c0,0,0,0,0,0v0.5c0,0,0,0,0,0c0,0,0,0,0,0
			l0,0l4.1-2.3c0,0,0,0,0,0L155,137.8C155.1,137.8,155,137.8,155,137.8z"/>
	</g>
	<g>
		<path class="st1" d="M123.1,157.1C123.1,157.1,123.1,157.1,123.1,157.1c-0.1,0-0.2-0.1-0.2-0.1c0-0.1-0.1-0.1-0.1-0.2l0-0.5
			c0-0.1,0.1-0.2,0.2-0.3l4.1-2.4c0,0,0.1,0,0.2,0c0.1,0,0.2,0,0.2,0.1c0.1,0.1,0.1,0.1,0.1,0.2v0.6c0,0.1-0.1,0.2-0.2,0.3l-4.1,2.3
			C123.2,157.1,123.1,157.1,123.1,157.1z M127.2,153.9l-4.1,2.4c0,0,0,0,0,0v0.5c0,0,0,0.1,0,0.1l0.1,0.1l-0.1-0.1l4.1-2.3
			c0,0,0,0,0,0L127.2,153.9C127.2,153.9,127.2,153.9,127.2,153.9C127.2,153.9,127.2,153.9,127.2,153.9z"/>
	</g>
	<g>
		<path class="st1" d="M117.6,160.3c-0.1,0-0.2,0-0.2-0.1c-0.1-0.1-0.1-0.1-0.1-0.2v-0.5c0-0.1,0.1-0.2,0.2-0.3l4.1-2.4
			c0,0,0.1,0,0.2,0c0.1,0,0.2,0,0.2,0.1c0.1,0.1,0.1,0.1,0.1,0.2v0.6c0,0.1-0.1,0.2-0.2,0.3l-4.1,2.3
			C117.7,160.3,117.6,160.3,117.6,160.3C117.6,160.3,117.6,160.3,117.6,160.3z M121.7,157l-4.1,2.4c0,0,0,0,0,0v0.5c0,0,0,0,0.1,0
			c0,0,0,0,0,0l0,0l4.1-2.3c0,0,0,0,0,0L121.7,157C121.7,157,121.7,157,121.7,157z"/>
	</g>
	<g>
		<path class="st1" d="M129.1,151.7c-0.2,0-0.3-0.1-0.3-0.3l0-0.5c0-0.1,0.1-0.2,0.2-0.3l4.1-2.4c0,0,0.1,0,0.2,0
			c0.1,0,0.2,0,0.2,0.1c0.1,0.1,0.1,0.1,0.1,0.2v0.6c0,0.1-0.1,0.2-0.2,0.3l-4.1,2.3C129.2,151.7,129.1,151.7,129.1,151.7
			C129.1,151.7,129.1,151.7,129.1,151.7z M129.1,151.5l0.1,0.1L129.1,151.5l4.1-2.3c0,0,0,0,0,0v-0.6c0,0,0,0,0,0c0,0,0,0,0,0
			l-4.1,2.4c0,0,0,0,0,0.1L129.1,151.5C129,151.5,129.1,151.5,129.1,151.5C129.1,151.5,129.1,151.5,129.1,151.5z"/>
	</g>
	<g>
		<path class="st1" d="M134.8,148.5c-0.1,0-0.1,0-0.2-0.1c-0.1-0.1-0.1-0.1-0.1-0.2v-0.5c0-0.1,0.1-0.2,0.2-0.3l4.1-2.4
			c0,0,0.1,0,0.2,0c0.1,0,0.2,0,0.2,0.1c0.1,0.1,0.1,0.1,0.1,0.2v0.6c0,0.1-0.1,0.2-0.2,0.3l-4.1,2.3
			C134.9,148.5,134.9,148.5,134.8,148.5C134.8,148.5,134.8,148.5,134.8,148.5z M134.8,148.2l0.1,0.1L134.8,148.2l4.1-2.3
			c0,0,0,0,0,0v-0.6c0,0,0,0,0,0c0,0,0,0,0,0l-4.1,2.4c0,0,0,0,0,0L134.8,148.2C134.8,148.2,134.8,148.2,134.8,148.2
			C134.8,148.2,134.8,148.2,134.8,148.2z"/>
	</g>
	<g>
		<path class="st1" d="M140.3,145.4C140.3,145.4,140.2,145.4,140.3,145.4c-0.2,0-0.3-0.1-0.3-0.3v-0.5c0-0.1,0.1-0.2,0.2-0.3
			l4.1-2.4c0,0,0.1,0,0.2,0c0.1,0,0.2,0,0.2,0.1c0.1,0.1,0.1,0.1,0.1,0.2v0.6c0,0.1-0.1,0.2-0.2,0.3l-4.1,2.3
			C140.4,145.4,140.3,145.4,140.3,145.4z M144.3,142.1l-4.1,2.4c0,0,0,0,0,0v0.5c0,0,0,0.1,0.1,0.1l0,0l4.1-2.3c0,0,0,0,0,0
			L144.3,142.1C144.4,142.1,144.4,142.1,144.3,142.1z"/>
	</g>
	<g>
		<path class="st1" d="M145.6,142.3c-0.1,0-0.2,0-0.2-0.1c-0.1-0.1-0.1-0.1-0.1-0.2v-0.5c0-0.1,0.1-0.2,0.2-0.3l4.1-2.4
			c0,0,0.1,0,0.2,0c0.2,0,0.3,0.1,0.3,0.3v0.6c0,0.1-0.1,0.2-0.2,0.3l-4.1,2.3C145.7,142.3,145.6,142.3,145.6,142.3
			C145.6,142.3,145.6,142.3,145.6,142.3z M149.7,139l-4.1,2.4c0,0,0,0,0,0v0.5c0,0,0,0,0.1,0c0,0,0,0,0,0l0,0l4.1-2.3c0,0,0,0,0,0
			L149.7,139C149.7,139,149.7,139,149.7,139z"/>
	</g>
	<g>
		<path class="st1" d="M150.9,139.1C150.9,139.1,150.9,139.1,150.9,139.1c-0.1,0-0.2,0-0.2-0.1c-0.1-0.1-0.1-0.1-0.1-0.2v-0.5
			c0-0.1,0.1-0.2,0.2-0.3l4.1-2.4c0,0,0.1,0,0.2,0c0.2,0,0.3,0.1,0.3,0.3v0.6c0,0.1-0.1,0.2-0.2,0.3l-4.1,2.3
			C151,139.1,151,139.1,150.9,139.1z M155,135.9l-4.1,2.4c0,0,0,0,0,0v0.5c0,0,0,0,0,0c0,0,0,0,0,0l0,0l4.1-2.3c0,0,0,0,0,0
			L155,135.9C155.1,135.9,155,135.9,155,135.9z"/>
	</g>
	<g>
		<path class="st1" d="M123.1,155.1c-0.1,0-0.1,0-0.2,0c-0.1,0-0.1-0.1-0.1-0.2l0-0.6c0-0.1,0.1-0.2,0.2-0.3l4.1-2.4
			c0,0,0.1,0,0.2,0c0.1,0,0.2,0,0.2,0.1c0.1,0.1,0.1,0.1,0.1,0.2v0.5c0,0.1-0.1,0.2-0.2,0.3l-4.1,2.3
			C123.2,155.1,123.2,155.1,123.1,155.1C123.1,155.1,123.1,155.1,123.1,155.1z M123,154.9C123,154.9,123.1,154.9,123,154.9
			L123,154.9l4.2-2.3c0,0,0,0,0,0V152c0,0,0-0.1-0.1-0.1l-4.1,2.4c0,0,0,0,0,0V154.9L123,154.9z"/>
	</g>
	<g>
		<path class="st1" d="M117.6,158.4C117.6,158.4,117.6,158.4,117.6,158.4c-0.1,0-0.2,0-0.2-0.1c-0.1-0.1-0.1-0.1-0.1-0.2v-0.5
			c0-0.1,0.1-0.2,0.2-0.3l4.1-2.4c0,0,0.1,0,0.2,0c0.1,0,0.2,0,0.2,0.1c0.1,0.1,0.1,0.1,0.1,0.2v0.6c0,0.1-0.1,0.2-0.2,0.3l-4.1,2.3
			C117.7,158.4,117.6,158.4,117.6,158.4z M121.7,155.1l-4.1,2.4c0,0,0,0,0,0v0.5c0,0,0,0.1,0.1,0.1l0,0l4.1-2.3c0,0,0,0,0,0
			L121.7,155.1C121.7,155.1,121.7,155.1,121.7,155.1C121.7,155.1,121.7,155.1,121.7,155.1z"/>
	</g>
	<g>
		<path class="st1" d="M129.1,149.8c-0.1,0-0.1,0-0.2-0.1c-0.1-0.1-0.1-0.1-0.1-0.2V149c0-0.1,0.1-0.2,0.2-0.3l4.1-2.4
			c0,0,0.1,0,0.2,0c0.1,0,0.2,0,0.2,0.1c0.1,0.1,0.1,0.1,0.1,0.2v0.6c0,0.1-0.1,0.2-0.2,0.3l-4.1,2.3
			C129.2,149.8,129.2,149.8,129.1,149.8C129.1,149.8,129.1,149.8,129.1,149.8z M129.1,149.6l0.1,0.1L129.1,149.6l4.1-2.3
			c0,0,0,0,0,0v-0.6c0,0,0,0,0,0c0,0,0,0,0,0l-4.1,2.4c0,0,0,0,0,0.1L129.1,149.6C129,149.5,129.1,149.6,129.1,149.6
			C129.1,149.6,129.1,149.6,129.1,149.6z"/>
	</g>
	<g>
		<path class="st1" d="M134.8,146.5C134.8,146.5,134.8,146.5,134.8,146.5c-0.2,0-0.3-0.1-0.3-0.3v-0.5c0-0.1,0.1-0.2,0.2-0.3
			l4.1-2.4c0,0,0.1,0,0.2,0c0.1,0,0.2,0,0.2,0.1c0.1,0.1,0.1,0.1,0.1,0.2v0.6c0,0.1-0.1,0.2-0.2,0.3l-4.1,2.3
			C134.9,146.5,134.9,146.5,134.8,146.5z M138.9,143.3l-4.1,2.4c0,0,0,0,0,0v0.5c0,0,0,0.1,0.1,0.1l0,0l4.1-2.3c0,0,0,0,0,0
			L138.9,143.3C139,143.3,138.9,143.3,138.9,143.3z"/>
	</g>
	<g>
		<path class="st1" d="M140.3,143.4C140.3,143.4,140.2,143.4,140.3,143.4c-0.1,0-0.2,0-0.2-0.1c-0.1-0.1-0.1-0.1-0.1-0.2v-0.5
			c0-0.1,0.1-0.2,0.2-0.3l4.1-2.4c0,0,0.1,0,0.2,0c0.1,0,0.2,0,0.2,0.1c0.1,0.1,0.1,0.1,0.1,0.2v0.6c0,0.1-0.1,0.2-0.2,0.3l-4.1,2.3
			C140.4,143.4,140.3,143.4,140.3,143.4z M144.3,140.2l-4.1,2.4c0,0,0,0,0,0v0.5c0,0,0,0.1,0.1,0.1l0,0l4.1-2.3c0,0,0,0,0,0
			L144.3,140.2C144.4,140.2,144.4,140.2,144.3,140.2z"/>
	</g>
	<g>
		<path class="st1" d="M145.6,140.4C145.6,140.4,145.6,140.4,145.6,140.4c-0.2,0-0.3-0.1-0.3-0.3v-0.5c0-0.1,0.1-0.2,0.2-0.3
			l4.1-2.4c0,0,0.1,0,0.2,0c0.2,0,0.3,0.1,0.3,0.3v0.6c0,0.1-0.1,0.2-0.2,0.3l-4.1,2.3C145.7,140.4,145.6,140.4,145.6,140.4z
			 M149.7,137.1l-4.1,2.4c0,0,0,0,0,0v0.5c0,0,0,0.1,0.1,0.1l0,0l4.1-2.3c0,0,0,0,0,0L149.7,137.1
			C149.7,137.1,149.7,137.1,149.7,137.1z"/>
	</g>
	<g>
		<path class="st1" d="M150.9,137.2C150.9,137.2,150.9,137.2,150.9,137.2c-0.1,0-0.2-0.1-0.2-0.1c0-0.1-0.1-0.1-0.1-0.2l0-0.5
			c0-0.1,0.1-0.2,0.2-0.3l4.1-2.4c0,0,0.1,0,0.2,0c0.2,0,0.3,0.1,0.3,0.3v0.6c0,0.1-0.1,0.2-0.2,0.3l-4.1,2.3
			C151,137.2,151,137.2,150.9,137.2z M155,133.9l-4.1,2.4c0,0,0,0,0,0v0.5c0,0,0,0.1,0,0.1c0,0,0,0,0,0c0,0,0,0,0,0l4.1-2.3
			c0,0,0,0,0,0L155,133.9C155.1,134,155,133.9,155,133.9z"/>
	</g>
	<g>
		<path class="st1" d="M123.1,153.3c-0.1,0-0.3-0.1-0.3-0.2l0,0v-0.6c0-0.1,0.1-0.2,0.2-0.3l4.1-2.4c0,0,0.1,0,0.2,0
			c0.2,0,0.3,0.1,0.3,0.3v0.6c0,0.1-0.1,0.2-0.2,0.3L123.1,153.3C123.1,153.2,123.1,153.3,123.1,153.3z M123,153
			C123.1,153,123.1,153,123,153l4.2-2.3c0,0,0,0,0,0V150c0,0,0-0.1-0.1-0.1l-4.1,2.4c0,0,0,0,0,0.1V153z"/>
	</g>
	<g>
		<path class="st1" d="M117.6,156.4C117.6,156.4,117.6,156.4,117.6,156.4c-0.1,0-0.2,0-0.2-0.1c-0.1-0.1-0.1-0.1-0.1-0.2v-0.5
			c0-0.1,0.1-0.2,0.2-0.3l4.1-2.4c0,0,0.1,0,0.2,0c0.1,0,0.2,0,0.2,0.1c0.1,0.1,0.1,0.1,0.1,0.2v0.6c0,0.1-0.1,0.2-0.2,0.3l-4.1,2.3
			C117.7,156.4,117.6,156.4,117.6,156.4z M121.7,153.2l-4.1,2.4c0,0,0,0,0,0v0.5c0,0,0,0,0,0c0,0,0,0,0,0l0,0l4.1-2.3c0,0,0,0,0,0
			L121.7,153.2C121.7,153.2,121.7,153.2,121.7,153.2C121.7,153.2,121.7,153.2,121.7,153.2z"/>
	</g>
	<g>
		<path class="st1" d="M129.1,147.9c-0.1,0-0.1,0-0.2-0.1c-0.1-0.1-0.1-0.1-0.1-0.2v-0.5c0-0.1,0.1-0.2,0.2-0.3l4.1-2.4
			c0,0,0.1,0,0.2,0c0.1,0,0.2,0,0.2,0.1c0.1,0.1,0.1,0.1,0.1,0.2v0.6c0,0.1-0.1,0.2-0.2,0.3l-4.1,2.3
			C129.2,147.9,129.1,147.9,129.1,147.9z M129.1,147.6l0.1,0.1L129.1,147.6l4.1-2.3c0,0,0,0,0,0v-0.6c0,0,0,0,0,0c0,0,0,0,0,0
			l-4.1,2.4c0,0,0,0,0,0.1L129.1,147.6C129,147.6,129,147.6,129.1,147.6C129.1,147.6,129.1,147.6,129.1,147.6
			C129.1,147.6,129.1,147.6,129.1,147.6z"/>
	</g>
	<g>
		<path class="st1" d="M134.8,144.6C134.8,144.6,134.8,144.6,134.8,144.6c-0.2,0-0.3-0.1-0.3-0.3v-0.5c0-0.1,0.1-0.2,0.2-0.3
			l4.1-2.4c0,0,0.1,0,0.2,0c0.1,0,0.2,0,0.2,0.1c0.1,0.1,0.1,0.1,0.1,0.2v0.6c0,0.1-0.1,0.2-0.2,0.3l-4.1,2.3
			C134.9,144.6,134.9,144.6,134.8,144.6z M138.9,141.3l-4.1,2.4c0,0,0,0,0,0v0.5c0,0,0,0.1,0.1,0.1l0,0l4.1-2.3c0,0,0,0,0,0
			L138.9,141.3C139,141.4,139,141.4,138.9,141.3C138.9,141.4,138.9,141.3,138.9,141.3z"/>
	</g>
	<g>
		<path class="st1" d="M140.3,141.5C140.3,141.5,140.2,141.5,140.3,141.5c-0.1,0-0.2,0-0.2-0.1c-0.1-0.1-0.1-0.1-0.1-0.2v-0.5
			c0-0.1,0.1-0.2,0.2-0.3l4.1-2.4c0,0,0.1,0,0.2,0c0.2,0,0.3,0.1,0.3,0.3v0.6c0,0.1-0.1,0.2-0.2,0.3l-4.1,2.3
			C140.4,141.5,140.3,141.5,140.3,141.5z M144.3,138.2C144.3,138.2,144.3,138.2,144.3,138.2l-4.1,2.4c0,0,0,0,0,0v0.5
			c0,0,0,0.1,0.1,0.1l0,0l4.1-2.3c0,0,0,0,0,0L144.3,138.2C144.4,138.3,144.4,138.2,144.3,138.2z"/>
	</g>
	<g>
		<path class="st1" d="M145.6,138.4C145.6,138.4,145.6,138.4,145.6,138.4c-0.1,0-0.2,0-0.2-0.1c-0.1-0.1-0.1-0.1-0.1-0.2v-0.5
			c0-0.1,0.1-0.2,0.2-0.3l4.1-2.4c0,0,0.1,0,0.2,0c0.2,0,0.3,0.1,0.3,0.3v0.6c0,0.1-0.1,0.2-0.2,0.3l-4.1,2.3
			C145.7,138.4,145.6,138.4,145.6,138.4z M149.7,135.2l-4.1,2.4c0,0,0,0,0,0v0.5c0,0,0,0.1,0.1,0.1l0,0l4.1-2.3c0,0,0,0,0,0
			L149.7,135.2C149.7,135.2,149.7,135.2,149.7,135.2z"/>
	</g>
	<g>
		<path class="st1" d="M150.9,135.3C150.9,135.3,150.9,135.3,150.9,135.3c-0.1,0-0.2,0-0.2-0.1c-0.1-0.1-0.1-0.1-0.1-0.2v-0.5
			c0-0.1,0.1-0.2,0.2-0.3l4.1-2.4c0,0,0.1,0,0.2,0c0.2,0,0.3,0.1,0.3,0.3v0.6c0,0.1-0.1,0.2-0.2,0.3l-4.1,2.3
			C151,135.3,151,135.3,150.9,135.3z M155,132C155,132,155,132,155,132l-4.1,2.4c0,0,0,0,0,0v0.5c0,0,0,0,0,0c0,0,0,0,0,0l0,0
			l4.1-2.3c0,0,0,0,0,0L155,132C155.1,132.1,155,132,155,132z"/>
	</g>
	<g>
		<path class="st1" d="M123.1,151.3C123.1,151.3,123.1,151.3,123.1,151.3c-0.2,0-0.3-0.2-0.3-0.3v-0.5c0-0.1,0.1-0.2,0.2-0.3
			l4.1-2.4c0,0,0.1,0,0.2,0c0.1,0,0.2,0,0.2,0.1c0.1,0.1,0.1,0.1,0.1,0.2v0.6c0,0.1-0.1,0.2-0.2,0.3l-4.1,2.3
			C123.2,151.3,123.1,151.3,123.1,151.3z M127.2,148.1l-4.1,2.4c0,0,0,0,0,0.1v0.5c0,0,0,0.1,0,0.1l0.1,0.1l-0.1-0.1l4.1-2.3
			c0,0,0,0,0,0L127.2,148.1C127.2,148.1,127.2,148.1,127.2,148.1C127.2,148.1,127.2,148.1,127.2,148.1z"/>
	</g>
	<g>
		<path class="st1" d="M117.6,154.5C117.6,154.5,117.6,154.5,117.6,154.5c-0.1,0-0.2,0-0.2-0.1c-0.1-0.1-0.1-0.1-0.1-0.2v-0.5
			c0-0.1,0.1-0.2,0.2-0.3l4.1-2.4c0,0,0.1,0,0.2,0c0.1,0,0.2,0,0.2,0.1c0.1,0.1,0.1,0.1,0.1,0.2v0.6c0,0.1-0.1,0.2-0.2,0.3l-4.1,2.3
			C117.7,154.5,117.6,154.5,117.6,154.5z M121.7,151.2l-4.1,2.4c0,0,0,0,0,0v0.5c0,0,0,0,0,0c0,0,0,0,0,0l0,0l4.1-2.3c0,0,0,0,0,0
			L121.7,151.2C121.7,151.3,121.7,151.2,121.7,151.2z"/>
	</g>
</g>
<g>
	<path class="st1" d="M23.6,149.8c-0.8,0-1.4-0.7-1.4-1.6c0-0.9,0.6-1.6,1.4-1.6s1.4,0.7,1.4,1.6C25,149.1,24.4,149.8,23.6,149.8z
		 M23.6,147.5c-0.4,0-0.7,0.4-0.7,0.8s0.3,0.8,0.7,0.8s0.7-0.4,0.7-0.8S24,147.5,23.6,147.5z"/>
</g>
<g>
	<path class="st1" d="M14,116.8c-0.1,0-0.2,0-0.3-0.1c-0.1-0.1-0.3-0.1-0.4-0.2c-0.1,0-0.1-0.1-0.2-0.1c0,0-0.1,0-0.1,0
		c-0.1,0-0.2,0-0.2,0c-0.2,0-0.3,0-0.4,0c-0.2,0-0.4-0.1-0.6-0.2c-0.1-0.1-0.2-0.2-0.3-0.4c-0.3-0.5-0.6-1.1-0.7-1.7
		c0-0.2-0.1-0.3-0.1-0.5c0-0.2,0-0.4,0-0.6c0-0.3,0.1-0.6,0.2-0.8c0.1-0.2,0.3-0.5,0.5-0.6c0.2-0.2,0.5-0.2,0.7-0.2
		c0.1,0,0.2,0,0.3,0c0.2,0.1,0.3,0.1,0.4,0.2l0.3,0.2l0.2,0c0.1,0,0.2-0.1,0.4-0.1c0.1,0,0.3,0,0.4,0c0.2,0.1,0.3,0.1,0.4,0.2
		c0.3,0.2,0.5,0.4,0.7,0.7l0.1,0.3l-0.4,0.2c-0.1,0-0.1,0.1-0.2,0.2c0,0.1,0,0.2-0.1,0.2c0,0.2,0,0.3,0,0.5c0,0.1,0.1,0.3,0.2,0.4
		c0.1,0.1,0.1,0.2,0.2,0.2l0.1,0.1l0.1,0.4c0,0.2-0.1,0.3-0.1,0.4c-0.1,0.3-0.2,0.5-0.4,0.7c-0.1,0.1-0.1,0.2-0.2,0.3
		c-0.1,0.1-0.2,0.2-0.3,0.2C14.2,116.8,14.1,116.8,14,116.8z M13.1,115.7c0.1,0,0.2,0,0.2,0c0.2,0.1,0.3,0.1,0.4,0.2
		c0.1,0,0.1,0.1,0.2,0.1c0.1,0,0.1,0,0.1-0.1c0.1-0.1,0.1-0.1,0.2-0.2c0.1-0.2,0.2-0.3,0.3-0.5l0-0.1c0,0,0,0,0,0
		c-0.1-0.1-0.2-0.2-0.3-0.3c-0.2-0.2-0.3-0.5-0.3-0.7c0-0.3,0-0.5,0-0.7c0-0.1,0-0.3,0.1-0.4c0.1-0.2,0.2-0.3,0.3-0.4
		c-0.1-0.1-0.1-0.1-0.2-0.2c-0.1,0-0.1-0.1-0.2-0.1c0,0-0.1,0-0.1,0c-0.1,0-0.2,0-0.3,0.1l-0.6,0.1l-0.5-0.3c-0.1,0-0.1-0.1-0.2-0.1
		c0,0,0,0-0.1,0c-0.2,0-0.3,0-0.3,0.1c-0.1,0.1-0.2,0.2-0.2,0.3c-0.1,0.2-0.1,0.4-0.1,0.6c0,0.2,0,0.3,0,0.4c0,0.1,0,0.3,0.1,0.4
		c0.1,0.5,0.3,1,0.6,1.5c0.1,0.1,0.1,0.2,0.2,0.2l0,0l0.1,0c0,0,0.1,0,0.1,0c0,0,0.1,0,0.3-0.1C13,115.7,13,115.7,13.1,115.7z"/>
</g>
<g>
	<path class="st1" d="M13.2,111.6c0,0-0.1,0-0.1,0l-0.2,0l0-0.2c0-0.1,0-0.2,0-0.3c0-0.3,0.1-0.6,0.3-0.8c0.1-0.2,0.3-0.3,0.5-0.4
		c0.1,0,0.3,0,0.4,0l0,0.2l0,0l0.2,0v0.1c0,0.3-0.1,0.6-0.2,0.9c-0.1,0.1-0.2,0.3-0.4,0.4c-0.1,0.1-0.3,0.1-0.4,0.1
		C13.3,111.6,13.2,111.6,13.2,111.6z M13.8,110.5c-0.1,0-0.2,0.1-0.2,0.2c-0.1,0.1-0.2,0.3-0.2,0.4c0,0,0,0,0.1,0
		c0.1-0.1,0.2-0.1,0.2-0.2C13.7,110.7,13.8,110.6,13.8,110.5z"/>
</g>
</svg>
