<?xml version="1.0" encoding="utf-8"?>
<!-- Generator: Adobe Illustrator 22.1.0, SVG Export Plug-In . SVG Version: 6.00 Build 0)  -->
<svg version="1.1" id="Layer_1" xmlns="http://www.w3.org/2000/svg" xmlns:xlink="http://www.w3.org/1999/xlink" x="0px" y="0px"
	 viewBox="0 0 162 175.1" style="enable-background:new 0 0 162 175.1;" xml:space="preserve">
<style type="text/css">
	.st0{fill:none;stroke:#FFFFFF;stroke-miterlimit:10;}
	.st1{fill:none;stroke:#FFFFFF;stroke-linecap:round;stroke-linejoin:round;}
	.st2{fill:none;stroke:#FFFFFF;stroke-width:0.25;stroke-miterlimit:10;}
</style>
<title>Artboard 1</title>
<path class="st0" d="M13.2,22.1l-1.4,69c0,0.8,0.6,1.4,1.3,1.5l78.5,9.3c1,0.1,1.9-0.6,2-1.6c0,0,0-0.1,0-0.1l2.3-72
	c0-1.3-1-2.5-2.3-2.5l-79.2-4.6C13.7,21.1,13.2,21.5,13.2,22.1C13.2,22.1,13.2,22.1,13.2,22.1z"/>
<path class="st0" d="M92.6,32.6c0.1-2.1-1.4-3.9-3.5-4.1c-10.1-1.1-39.5-3.8-66.6-3.6c-2.7,0-4.9,2-5.2,4.7
	c-2.5,21.9-2.1,46.3-1.7,55.6c0.1,2.3,1.7,4.3,4,4.7c10.9,2.2,43.3,7.6,68.2,6.9c1.2,0,2.2-1,2.3-2.2L92.6,32.6z"/>
<path class="st0" d="M7,133.1l88.6,13.6c1,0.1,2-0.6,2.1-1.6c0-0.1,0-0.1,0-0.2l4.8-126.1c0-1-0.7-1.9-1.8-1.9L9.3,13
	c-0.4,0-0.7,0.3-0.7,0.7c0,0,0,0,0,0L6.1,132C6.1,132.5,6.5,133,7,133.1z"/>
<path class="st0" d="M102.3,150.4l4.9-137.4c0.1-2.2-1.6-4-3.8-4.1c0,0,0,0,0,0L10.7,5.5C8.6,5.5,6.9,7.1,6.8,9.2c0,0,0,0,0,0
	l-2.8,127c0,1.4,1,2.6,2.4,2.9l91.8,14.6c1.9,0.3,3.7-1,4-2.9C102.3,150.7,102.3,150.5,102.3,150.4z"/>
<path class="st0" d="M102.4,8.8c8.3,0.5,9.3,0.9,9,7c-0.3,5.7-4.8,111.2-5.3,125c0,0.6,0.4,1.1,1,1.1c0.1,0,0.2,0,0.3,0l3.8-1.1
	c1-0.3,2,0.3,2.3,1.3c0,0.2,0.1,0.3,0.1,0.5l0.3,25.4c0,0.3,0.3,0.5,0.6,0.5c0.1,0,0.2,0,0.3-0.1l40.6-24.3c0.9-0.5,1.4-1.5,1.4-2.5
	L157.9,34c0-3.3-0.4-6.6-1.2-9.8l-2.4-9.5c-0.6-2.4-2.7-4.1-5.2-4.2L102.4,8.8z"/>
<path class="st0" d="M13.6,140.2c0,5.1,0,9.2,0,11c0,0.6,0.4,1.1,1,1.1l99.9,16.2"/>
<path class="st1" d="M77.6,119.9v0.4l-25.9-3.6v3l25.6,3.5c0.2,0,0.3,0.2,0.3,0.4v1l11.8,1.4v-4.8L77.6,119.9z"/>
<path class="st0" d="M91.7,117.9v10.6c0,0.6-0.5,1.1-1.1,1.1c-0.1,0-0.1,0-0.2,0l-15.8-2.2c-0.4,0-0.6-0.4-0.6-0.7v-2
	c0-0.4-0.3-0.7-0.6-0.7l-26-3.3c-0.4,0-0.6-0.3-0.6-0.7v-4.3c0-0.4,0.3-0.7,0.7-0.7c0,0,0.1,0,0.1,0l25.6,3.2c0.4,0,0.8-0.2,0.8-0.6
	c0,0,0-0.1,0-0.1v-1.8c0-0.4,0.3-0.7,0.7-0.7c0,0,0.1,0,0.1,0l15.8,1.8C91.3,116.9,91.7,117.3,91.7,117.9z"/>
<path class="st0" d="M77.6,119.9V118c0-0.4,0.3-0.7,0.7-0.7c0,0,0.1,0,0.1,0l10.4,1.4c0.4,0,0.6,0.3,0.6,0.7v7.5
	c0,0.4-0.3,0.7-0.7,0.7c0,0-0.1,0-0.1,0l-10.4-1.4c-0.4,0-0.6-0.3-0.6-0.7v-1.8c0-0.2-0.1-0.3-0.3-0.4l-26.8-3.7
	c-0.2,0-0.3-0.2-0.3-0.4V117c0-0.2,0.2-0.4,0.4-0.4c0,0,0,0,0.1,0l26.6,3.7C77.3,120.4,77.5,120.2,77.6,119.9
	C77.6,120,77.6,120,77.6,119.9z"/>
<g id="vents">
	<path class="st2" d="M129.2,155.5l4.1-2.3c0.1,0,0.1-0.1,0.1-0.2v-0.6c0-0.1-0.1-0.2-0.2-0.2c0,0-0.1,0-0.1,0l-4.1,2.4
		c-0.1,0-0.1,0.1-0.1,0.2v0.5C128.9,155.4,129,155.5,129.2,155.5C129.1,155.5,129.1,155.5,129.2,155.5z"/>
	<path class="st2" d="M134.9,152.2l4.1-2.3c0.1,0,0.1-0.1,0.1-0.2v-0.6c0-0.1-0.1-0.2-0.2-0.2c0,0-0.1,0-0.1,0l-4.1,2.4
		c-0.1,0-0.1,0.1-0.1,0.2v0.5c0,0.1,0.1,0.2,0.2,0.2C134.8,152.2,134.9,152.2,134.9,152.2z"/>
	<path class="st2" d="M140.3,149.1l4.1-2.3c0.1,0,0.1-0.1,0.1-0.2V146c0-0.1-0.1-0.2-0.2-0.2c0,0-0.1,0-0.1,0l-4.1,2.4
		c-0.1,0-0.1,0.1-0.1,0.2v0.5c0,0.1,0.1,0.2,0.2,0.2C140.3,149.1,140.3,149.1,140.3,149.1z"/>
	<path class="st2" d="M145.7,146l4.1-2.3c0.1,0,0.1-0.1,0.1-0.2v-0.6c0-0.1-0.1-0.2-0.2-0.2c0,0-0.1,0-0.1,0l-4.1,2.4
		c-0.1,0-0.1,0.1-0.1,0.2v0.5C145.4,145.9,145.5,146,145.7,146C145.6,146,145.6,146,145.7,146z"/>
	<path class="st2" d="M151,142.9l4.1-2.3c0.1,0,0.1-0.1,0.1-0.2v-0.6c0-0.1-0.1-0.2-0.2-0.2c0,0-0.1,0-0.1,0l-4,2.4
		c-0.1,0-0.1,0.1-0.1,0.2v0.5C150.8,142.8,150.8,142.9,151,142.9C151,142.9,151,142.9,151,142.9z"/>
	<path class="st2" d="M123.2,158.9l4.1-2.3c0.1,0,0.1-0.1,0.1-0.2v-0.6c0-0.1-0.1-0.2-0.2-0.2c0,0-0.1,0-0.1,0L123,158
		c-0.1,0-0.1,0.1-0.1,0.2v0.5c0,0.1,0,0.2,0.1,0.2C123.1,158.9,123.1,158.9,123.2,158.9z"/>
	<path class="st2" d="M117.7,162.1l4.1-2.3c0.1,0,0.1-0.1,0.1-0.2V159c0-0.1-0.1-0.2-0.2-0.2c0,0-0.1,0-0.1,0l-4.1,2.4
		c-0.1,0-0.1,0.1-0.1,0.2v0.5C117.4,162,117.5,162.1,117.7,162.1C117.6,162.1,117.6,162.1,117.7,162.1z"/>
	<path class="st2" d="M129.2,153.5l4.1-2.3c0.1,0,0.1-0.1,0.1-0.2v-0.6c0-0.1-0.1-0.2-0.2-0.2c0,0-0.1,0-0.1,0l-4.1,2.4
		c-0.1,0-0.1,0.1-0.1,0.2v0.5C128.9,153.5,129,153.6,129.2,153.5C129.1,153.5,129.1,153.5,129.2,153.5z"/>
	<path class="st2" d="M134.9,150.3l4.1-2.3c0.1,0,0.1-0.1,0.1-0.2v-0.6c0-0.1-0.1-0.2-0.2-0.2c0,0-0.1,0-0.1,0l-4.1,2.4
		c-0.1,0-0.1,0.1-0.1,0.2v0.5C134.6,150.2,134.7,150.3,134.9,150.3C134.8,150.3,134.9,150.3,134.9,150.3z"/>
	<path class="st2" d="M140.3,147.1l4.1-2.3c0.1,0,0.1-0.1,0.1-0.2v-0.6c0-0.1-0.1-0.2-0.2-0.2c0,0-0.1,0-0.1,0l-4.1,2.4
		c-0.1,0-0.1,0.1-0.1,0.2v0.5C140.1,147.1,140.2,147.2,140.3,147.1C140.3,147.2,140.3,147.2,140.3,147.1z"/>
	<path class="st2" d="M145.7,144.1l4.1-2.3c0.1,0,0.1-0.1,0.1-0.2V141c0-0.1-0.1-0.2-0.2-0.2c0,0-0.1,0-0.1,0l-4.1,2.4
		c-0.1,0-0.1,0.1-0.1,0.2v0.5C145.4,144,145.5,144.1,145.7,144.1C145.6,144.1,145.6,144.1,145.7,144.1z"/>
	<path class="st2" d="M151,140.9l4.1-2.3c0.1,0,0.1-0.1,0.1-0.2v-0.6c0-0.1-0.1-0.2-0.2-0.2c0,0-0.1,0-0.1,0l-4.1,2.4
		c-0.1,0-0.1,0.1-0.1,0.2v0.5C150.7,140.9,150.8,141,151,140.9C150.9,141,151,141,151,140.9z"/>
	<path class="st2" d="M123.2,157l4.1-2.3c0.1,0,0.1-0.1,0.1-0.2v-0.6c0-0.1-0.1-0.2-0.2-0.2c0,0-0.1,0-0.1,0l-4.1,2.4
		c-0.1,0-0.1,0.1-0.1,0.2v0.5C122.9,156.9,123,157,123.2,157C123.1,157,123.1,157,123.2,157z"/>
	<path class="st2" d="M117.7,160.1l4.1-2.3c0.1,0,0.1-0.1,0.1-0.2v-0.6c0-0.1-0.1-0.2-0.2-0.2c0,0-0.1,0-0.1,0l-4.1,2.4
		c-0.1,0-0.1,0.1-0.1,0.2v0.5C117.4,160.1,117.5,160.2,117.7,160.1C117.6,160.2,117.6,160.2,117.7,160.1z"/>
	<path class="st2" d="M129.2,151.6l4.1-2.3c0.1,0,0.1-0.1,0.1-0.2v-0.6c0-0.1-0.1-0.2-0.2-0.2c0,0-0.1,0-0.1,0l-4.1,2.4
		c-0.1,0-0.1,0.1-0.1,0.2v0.5C128.9,151.5,129,151.6,129.2,151.6C129.1,151.6,129.1,151.6,129.2,151.6z"/>
	<path class="st2" d="M134.9,148.3l4.1-2.3c0.1,0,0.1-0.1,0.1-0.2v-0.6c0-0.1-0.1-0.2-0.2-0.2c0,0-0.1,0-0.1,0l-4.1,2.4
		c-0.1,0-0.1,0.1-0.1,0.2v0.5C134.6,148.3,134.7,148.4,134.9,148.3C134.9,148.3,134.9,148.3,134.9,148.3z"/>
	<path class="st2" d="M140.3,145.2l4.1-2.3c0.1,0,0.1-0.1,0.1-0.2v-0.6c0-0.1-0.1-0.2-0.2-0.2c0,0-0.1,0-0.1,0l-4.1,2.4
		c-0.1,0-0.1,0.1-0.1,0.2v0.5C140.1,145.2,140.1,145.2,140.3,145.2C140.3,145.2,140.3,145.2,140.3,145.2z"/>
	<path class="st2" d="M145.7,142.1l4.1-2.3c0.1,0,0.1-0.1,0.1-0.2v-0.6c0-0.1-0.1-0.2-0.2-0.2c0,0-0.1,0-0.1,0l-4.1,2.4
		c-0.1,0-0.1,0.1-0.1,0.2v0.5C145.4,142.1,145.5,142.2,145.7,142.1C145.6,142.2,145.6,142.2,145.7,142.1z"/>
	<path class="st2" d="M151,139l4.1-2.3c0.1,0,0.1-0.1,0.1-0.2v-0.6c0-0.1-0.1-0.2-0.2-0.2c0,0-0.1,0-0.1,0l-4.1,2.4
		c-0.1,0-0.1,0.1-0.1,0.2v0.5C150.7,138.9,150.8,139,151,139C150.9,139,151,139,151,139z"/>
	<path class="st2" d="M123.2,155l4.1-2.3c0.1,0,0.1-0.1,0.1-0.2V152c0-0.1-0.1-0.2-0.2-0.2c0,0-0.1,0-0.1,0l-4.1,2.4
		c-0.1,0-0.1,0.1-0.1,0.2v0.5C122.9,155,123,155,123.2,155C123.1,155,123.1,155,123.2,155z"/>
	<path class="st2" d="M117.7,158.2l4.1-2.3c0.1,0,0.1-0.1,0.1-0.2v-0.6c0-0.1-0.1-0.2-0.2-0.2c0,0-0.1,0-0.1,0l-4.1,2.4
		c-0.1,0-0.1,0.1-0.1,0.2v0.5C117.4,158.2,117.5,158.2,117.7,158.2C117.6,158.2,117.6,158.2,117.7,158.2z"/>
	<path class="st2" d="M129.2,149.7l4.1-2.3c0.1,0,0.1-0.1,0.1-0.2v-0.6c0-0.1-0.1-0.2-0.2-0.2c0,0-0.1,0-0.1,0l-4.1,2.4
		c-0.1,0-0.1,0.1-0.1,0.2v0.5C128.9,149.6,129,149.7,129.2,149.7C129.1,149.7,129.1,149.7,129.2,149.7z"/>
	<path class="st2" d="M134.9,146.4l4.1-2.3c0.1,0,0.1-0.1,0.1-0.2v-0.6c0-0.1-0.1-0.2-0.2-0.2c0,0-0.1,0-0.1,0l-4.1,2.4
		c-0.1,0-0.1,0.1-0.1,0.2v0.5C134.6,146.3,134.7,146.4,134.9,146.4C134.8,146.4,134.9,146.4,134.9,146.4z"/>
	<path class="st2" d="M140.3,143.3l4.1-2.3c0.1,0,0.1-0.1,0.1-0.2v-0.6c0-0.1-0.1-0.2-0.2-0.2c0,0-0.1,0-0.1,0l-4.1,2.4
		c-0.1,0-0.1,0.1-0.1,0.2v0.5C140.1,143.2,140.1,143.3,140.3,143.3C140.3,143.3,140.3,143.3,140.3,143.3z"/>
	<path class="st2" d="M145.7,140.2l4.1-2.3c0.1,0,0.1-0.1,0.1-0.2v-0.6c0-0.1-0.1-0.2-0.2-0.2c0,0-0.1,0-0.1,0l-4.1,2.4
		c-0.1,0-0.1,0.1-0.1,0.2v0.5C145.4,140.2,145.5,140.2,145.7,140.2C145.6,140.2,145.6,140.2,145.7,140.2z"/>
	<path class="st2" d="M151,137.1l4.1-2.3c0.1,0,0.1-0.1,0.1-0.2V134c0-0.1-0.1-0.2-0.2-0.2c0,0-0.1,0-0.1,0l-4.1,2.4
		c-0.1,0-0.1,0.1-0.1,0.2v0.5c0,0.1,0.1,0.2,0.2,0.2C150.9,137.1,151,137.1,151,137.1z"/>
	<path class="st2" d="M123.2,153.1l4.1-2.3c0.1,0,0.1-0.1,0.1-0.2V150c0-0.1-0.1-0.2-0.2-0.2c0,0-0.1,0-0.1,0l-4.1,2.4
		c-0.1,0-0.1,0.1-0.1,0.2v0.6C122.9,153.1,123,153.1,123.2,153.1C123.1,153.1,123.2,153.1,123.2,153.1z"/>
	<path class="st2" d="M117.7,156.3l4.1-2.3c0.1,0,0.1-0.1,0.1-0.2v-0.6c0-0.1-0.1-0.2-0.2-0.2c0,0-0.1,0-0.1,0l-4.1,2.4
		c-0.1,0-0.1,0.1-0.1,0.2v0.5C117.4,156.2,117.5,156.3,117.7,156.3C117.6,156.3,117.6,156.3,117.7,156.3z"/>
	<path class="st2" d="M129.2,147.8l4.1-2.3c0.1,0,0.1-0.1,0.1-0.2v-0.6c0-0.1-0.1-0.2-0.2-0.2c0,0-0.1,0-0.1,0l-4.1,2.4
		c-0.1,0-0.1,0.1-0.1,0.2v0.5C128.9,147.7,129,147.8,129.2,147.8C129.1,147.8,129.1,147.8,129.2,147.8z"/>
	<path class="st2" d="M134.9,144.5l4.1-2.3c0.1,0,0.1-0.1,0.1-0.2v-0.6c0-0.1-0.1-0.2-0.2-0.2c0,0-0.1,0-0.1,0l-4.1,2.4
		c-0.1,0-0.1,0.1-0.1,0.2v0.5C134.6,144.4,134.7,144.5,134.9,144.5C134.8,144.5,134.9,144.5,134.9,144.5z"/>
	<path class="st2" d="M140.3,141.4l4.1-2.3c0.1,0,0.1-0.1,0.1-0.2v-0.6c0-0.1-0.1-0.2-0.2-0.2c0,0-0.1,0-0.1,0l-4.1,2.4
		c-0.1,0-0.1,0.1-0.1,0.2v0.5C140.1,141.3,140.1,141.4,140.3,141.4C140.3,141.4,140.3,141.4,140.3,141.4z"/>
	<path class="st2" d="M145.7,138.3l4.1-2.3c0.1,0,0.1-0.1,0.1-0.2v-0.6c0-0.1-0.1-0.2-0.2-0.2c0,0-0.1,0-0.1,0l-4.1,2.4
		c-0.1,0-0.1,0.1-0.1,0.2v0.5C145.4,138.2,145.5,138.3,145.7,138.3C145.6,138.3,145.6,138.3,145.7,138.3z"/>
	<path class="st2" d="M151,135.2l4.1-2.3c0.1,0,0.1-0.1,0.1-0.2v-0.6c0-0.1-0.1-0.2-0.2-0.2c0,0-0.1,0-0.1,0l-4.1,2.4
		c-0.1,0-0.1,0.1-0.1,0.2v0.5C150.7,135.1,150.8,135.2,151,135.2C150.9,135.2,151,135.2,151,135.2z"/>
	<path class="st2" d="M123.2,151.2l4.1-2.3c0.1,0,0.1-0.1,0.1-0.2v-0.6c0-0.1-0.1-0.2-0.2-0.2c0,0-0.1,0-0.1,0l-4.1,2.4
		c-0.1,0-0.1,0.1-0.1,0.2v0.5C122.9,151.1,123,151.2,123.2,151.2C123.1,151.2,123.1,151.2,123.2,151.2z"/>
	<path class="st2" d="M117.7,154.4l4.1-2.3c0.1,0,0.1-0.1,0.1-0.2v-0.6c0-0.1-0.1-0.2-0.2-0.2c0,0-0.1,0-0.1,0l-4.1,2.4
		c-0.1,0-0.1,0.1-0.1,0.2v0.5C117.4,154.3,117.5,154.4,117.7,154.4C117.6,154.4,117.6,154.4,117.7,154.4z"/>
</g>
<ellipse class="st0" cx="23.6" cy="148.3" rx="1" ry="1.2"/>
<path class="st0" d="M15,115.1c0,0.1-0.1,0.2-0.1,0.3c-0.1,0.2-0.2,0.4-0.3,0.5c-0.1,0.1-0.1,0.2-0.2,0.3c-0.1,0.1-0.1,0.1-0.2,0.2
	c-0.1,0-0.2,0-0.3,0c-0.1,0-0.2-0.1-0.3-0.2c-0.1-0.1-0.2-0.1-0.3-0.2c-0.1,0-0.2,0-0.3,0c-0.1,0-0.2,0-0.3,0.1c-0.1,0-0.2,0-0.2,0
	c-0.1,0-0.3,0-0.3-0.1c-0.1-0.1-0.2-0.2-0.3-0.3c-0.3-0.5-0.5-1-0.7-1.6c0-0.2-0.1-0.3-0.1-0.5c0-0.2,0-0.3,0-0.5
	c0-0.2,0.1-0.5,0.2-0.7c0.1-0.2,0.2-0.3,0.4-0.5c0.1-0.1,0.3-0.2,0.5-0.2c0.1,0,0.2,0,0.2,0c0.1,0,0.2,0.1,0.2,0.1l0.3,0.2l0.2,0.1
	h0.1l0.3-0.1c0.1,0,0.2-0.1,0.3-0.1c0.1,0,0.2,0,0.3,0c0.1,0,0.2,0.1,0.3,0.1c0.2,0.1,0.4,0.3,0.5,0.6l0,0l-0.1,0.1
	c-0.1,0.1-0.3,0.3-0.3,0.4c0,0.1-0.1,0.2-0.1,0.3c0,0.2,0,0.4,0,0.6c0.1,0.2,0.1,0.4,0.3,0.6c0.1,0.1,0.2,0.2,0.3,0.3L15,115.1z"/>
<path class="st0" d="M14.1,110.2L14.1,110.2c0,0.3-0.1,0.6-0.2,0.8c-0.1,0.1-0.2,0.2-0.3,0.3c-0.1,0.1-0.2,0.1-0.3,0.1
	c-0.1,0-0.1,0-0.2,0l0,0c0-0.1,0-0.1,0-0.2c0-0.2,0.1-0.5,0.3-0.7c0.1-0.1,0.3-0.2,0.4-0.3C13.9,110.2,14,110.2,14.1,110.2
	L14.1,110.2z"/>
</svg>
