<svg xmlns="http://www.w3.org/2000/svg" width="461.199" height="500" viewBox="0 0 461.199 500"><defs><style>.a{fill:#fff;}</style></defs><path class="a" d="M104.435,346.33c-32.672.241-32.672-46.6,0-46.519l214.492.069c32.8-.069,32.8,46.691,0,46.451,0,.1-214.492.1-214.492,0m35.489,76.835c0,.114,143.62.114,143.62,0,32.684.194,32.684-46.519,0-46.473H139.923c-32.672-.046-32.672,46.668,0,46.473M175.1,500h73.218c32.6.172,32.6-46.531,0-46.428H175.1c-32.592-.1-32.592,46.6,0,46.428M89.6,269.427s-33.45-28.06-5.459-93.839c0,0,25.371,37.261,68.572,44.139,0,0,18.356-70.014,65.287-79.237,0,0-16.777,43.189,27.958,80.4,0,0,38.863-55.01,87.947-54.507,0,0-27,28.015-11.3,53.89,0,0,14.5,30.3-2.758,49.151,0,0,30.807,0,53.4-19.409,0,0,33.668-19.466,17.818-92.192,0,0-8.034-49.689,70.128-67.5,0,0-89.491-38.222-180.093,25.429,0,0-43.269-63.651,45.352-115.457,0,0-149.045-12.908-214.252,129.991,0,0-54.919-27.042-18.859-95.5,0,0-101.931,37.284-92.764,157.571,0,0,2.266,77.063,89.022,77.063" transform="translate(0 0)"/></svg>