<?xml version="1.0" encoding="utf-8"?>
<!-- Generator: Adobe Illustrator 22.1.0, SVG Export Plug-In . SVG Version: 6.00 Build 0)  -->
<svg version="1.1" id="Layer_1" xmlns="http://www.w3.org/2000/svg" xmlns:xlink="http://www.w3.org/1999/xlink" x="0px" y="0px"
	 viewBox="0 0 885 479" style="enable-background:new 0 0 885 479;" xml:space="preserve">
<style type="text/css">
	.st0{fill:none;stroke:#F2F2F2;stroke-width:19;stroke-linecap:round;stroke-miterlimit:10;}
</style>
<path class="st0" d="M17,301c0,0,78-63,107-124s32-125,29-143s-20-27-40,0c-6.1,8.2-49.9,73.3-45.5,165.5c7,148,1,175-13,224
	c-5,14,0,0,0,0s34-95,50-130c7-15,12-25,24.7-23.7c12.3,0.7,17.3,8.7,20.3,21.7c6,26-2,97,45,89c11.4-1.9,19-3,40-20
	c22.1-19.1,92.8-56,102-86c11-36-19-45-19-45s-36-17-58,49c-12.1,36.4-16,98,54,119c60.1,18,117.1-62.1,149.2-148.3
	c17.8-47.7,29.8-73.7,30.8-123.7c0.5-26.1-5.4-38.2-10.6-43.7c-4.9-5.1-16.9-9.8-29.4,5.7c-74,92-44,291-37,303
	c0,0,17.7,59.8,79.9,15.9c35.7-25.2,85.8-97.4,108.1-165.9c15-46,18.5-85,19-101c1-30-8.4-45.2-13.6-50.7
	c-4.9-5.1-16.4-9.3-29.4,5.7c-16.5,19.1-64.8,77.1-43,278c10.3,50.4,35.5,59.7,57.6,56.2c0,0,39.4-3.2,52.4-42.2
	c41.8-125.4,127-84,129-77c-76-56-180,95-74,149c83,36,137-146,68-142s37,145,101,56"/>
</svg>
