<svg id="Layer_1" data-name="Layer 1" xmlns="http://www.w3.org/2000/svg" viewBox="0 0 162 175.08"><defs><style>.cls-1,.cls-2,.cls-3{fill:none;stroke:#fff;}.cls-1,.cls-3{stroke-miterlimit:10;}.cls-2{stroke-linecap:round;stroke-linejoin:round;}.cls-3{stroke-width:0.25px;}.cls-4{fill:#f0f0f0;}</style></defs><title>Artboard 1</title><path class="cls-1" d="M13.17,22.09l-1.4,69a1.49,1.49,0,0,0,1.31,1.51l78.46,9.33a1.82,1.82,0,0,0,2-1.75L95.79,28.2a2.43,2.43,0,0,0-2.34-2.5L14.21,21.11A1,1,0,0,0,13.17,22.09Z"/><path class="cls-1" d="M92.6,32.58a3.91,3.91,0,0,0-3.5-4.09C79,27.44,49.58,24.67,22.45,24.87a5.26,5.26,0,0,0-5.17,4.66c-2.52,21.94-2.05,46.26-1.74,55.59a5,5,0,0,0,4,4.72C30.49,92,62.88,97.48,87.75,96.7A2.32,2.32,0,0,0,90,94.48Z"/><path class="cls-1" d="M7,133.07l88.63,13.59a1.88,1.88,0,0,0,2.15-1.8l4.84-126.08a1.85,1.85,0,0,0-1.76-1.93L9.27,13a.69.69,0,0,0-.72.68L6.09,132A1.09,1.09,0,0,0,7,133.07Z"/><path class="cls-1" d="M102.31,150.38l4.94-137.45a3.93,3.93,0,0,0-3.79-4.07L10.72,5.54A3.79,3.79,0,0,0,6.8,9.24l-2.75,127a2.82,2.82,0,0,0,2.38,2.85l91.8,14.65A3.52,3.52,0,0,0,102.31,150.38Z"/><path class="cls-1" d="M102.38,8.83c8.25.54,9.33.9,9,7-.34,5.72-4.76,111.17-5.34,125a1.07,1.07,0,0,0,1.37,1.07l3.78-1.08a1.87,1.87,0,0,1,2.38,1.77l.32,25.42a.55.55,0,0,0,.83.46l40.64-24.25a2.94,2.94,0,0,0,1.43-2.49L157.94,34a37.86,37.86,0,0,0-1.17-9.77l-2.43-9.54a5.55,5.55,0,0,0-5.18-4.17Z"/><path class="cls-1" d="M13.55,140.21c0,5.12,0,9.18,0,11a1.15,1.15,0,0,0,1,1.13l99.9,16.24"/><path class="cls-2" d="M77.55,119.95v.43l-25.9-3.61v3l25.57,3.54a.4.4,0,0,1,.34.39v1l11.82,1.41v-4.76Z"/><path class="cls-1" d="M91.72,117.89v10.64a1.08,1.08,0,0,1-1.23,1.07l-15.76-2.18a.72.72,0,0,1-.62-.71v-2a.72.72,0,0,0-.63-.71l-26-3.26a.72.72,0,0,1-.63-.71v-4.31a.72.72,0,0,1,.81-.71l25.62,3.22a.72.72,0,0,0,.81-.71v-1.8a.72.72,0,0,1,.8-.72l15.85,1.81A1.08,1.08,0,0,1,91.72,117.89Z"/><path class="cls-1" d="M77.55,119.95V118a.72.72,0,0,1,.82-.71l10.38,1.38a.72.72,0,0,1,.63.71v7.48a.72.72,0,0,1-.82.71l-10.38-1.38a.72.72,0,0,1-.63-.71v-1.81a.36.36,0,0,0-.31-.36l-26.84-3.72a.36.36,0,0,1-.31-.36V117a.36.36,0,0,1,.41-.36l26.64,3.7A.36.36,0,0,0,77.55,119.95Z"/><g id="vents"><path class="cls-3" d="M129.16,155.46l4.09-2.34a.18.18,0,0,0,.09-.16v-.57a.18.18,0,0,0-.27-.16L129,154.61a.18.18,0,0,0-.09.16v.53A.18.18,0,0,0,129.16,155.46Z"/><path class="cls-3" d="M134.9,152.18l4.09-2.34a.18.18,0,0,0,.09-.16v-.57a.18.18,0,0,0-.27-.16l-4.09,2.38a.18.18,0,0,0-.09.16V152A.18.18,0,0,0,134.9,152.18Z"/><path class="cls-3" d="M140.34,149.08l4.09-2.34a.18.18,0,0,0,.09-.16V146a.18.18,0,0,0-.27-.16l-4.09,2.38a.18.18,0,0,0-.09.16v.53A.18.18,0,0,0,140.34,149.08Z"/><path class="cls-3" d="M145.67,146l4.09-2.34a.18.18,0,0,0,.09-.16v-.57a.18.18,0,0,0-.27-.16l-4.09,2.38a.18.18,0,0,0-.09.16v.53A.18.18,0,0,0,145.67,146Z"/><path class="cls-3" d="M151,142.87l4.09-2.34a.18.18,0,0,0,.09-.16v-.57a.18.18,0,0,0-.27-.16L150.86,142a.18.18,0,0,0-.09.16v.53A.18.18,0,0,0,151,142.87Z"/><path class="cls-3" d="M123.16,158.89l4.09-2.34a.18.18,0,0,0,.09-.16v-.57a.18.18,0,0,0-.27-.16L123,158a.18.18,0,0,0-.09.16v.53A.18.18,0,0,0,123.16,158.89Z"/><path class="cls-3" d="M117.66,162.07l4.09-2.34a.18.18,0,0,0,.09-.16V159a.18.18,0,0,0-.27-.16l-4.09,2.38a.18.18,0,0,0-.09.16v.53A.18.18,0,0,0,117.66,162.07Z"/><path class="cls-3" d="M129.16,153.53l4.09-2.34a.18.18,0,0,0,.09-.16v-.57a.18.18,0,0,0-.27-.16L129,152.69a.18.18,0,0,0-.09.16v.53A.18.18,0,0,0,129.16,153.53Z"/><path class="cls-3" d="M134.9,150.26l4.09-2.34a.18.18,0,0,0,.09-.16v-.57a.18.18,0,0,0-.27-.16l-4.09,2.38a.18.18,0,0,0-.09.16v.53A.18.18,0,0,0,134.9,150.26Z"/><path class="cls-3" d="M140.34,147.15l4.09-2.34a.18.18,0,0,0,.09-.16v-.57a.18.18,0,0,0-.27-.16l-4.09,2.38a.18.18,0,0,0-.09.16V147A.18.18,0,0,0,140.34,147.15Z"/><path class="cls-3" d="M145.67,144.07l4.09-2.34a.18.18,0,0,0,.09-.16V141a.18.18,0,0,0-.27-.16l-4.09,2.38a.18.18,0,0,0-.09.16v.53A.18.18,0,0,0,145.67,144.07Z"/><path class="cls-3" d="M151,140.95l4.09-2.34a.18.18,0,0,0,.09-.16v-.57a.18.18,0,0,0-.27-.16l-4.09,2.38a.18.18,0,0,0-.09.16v.53A.18.18,0,0,0,151,140.95Z"/><path class="cls-3" d="M123.16,157l4.09-2.34a.18.18,0,0,0,.09-.16v-.57a.18.18,0,0,0-.27-.16L123,156.12a.18.18,0,0,0-.09.16v.53A.18.18,0,0,0,123.16,157Z"/><path class="cls-3" d="M117.66,160.15l4.09-2.34a.18.18,0,0,0,.09-.16v-.57a.18.18,0,0,0-.27-.16l-4.09,2.38a.18.18,0,0,0-.09.16V160A.18.18,0,0,0,117.66,160.15Z"/><path class="cls-3" d="M129.16,151.6l4.09-2.34a.18.18,0,0,0,.09-.16v-.57a.18.18,0,0,0-.27-.16L129,150.76a.18.18,0,0,0-.09.16v.53A.18.18,0,0,0,129.16,151.6Z"/><path class="cls-3" d="M134.9,148.33,139,146a.18.18,0,0,0,.09-.16v-.57a.18.18,0,0,0-.27-.16l-4.09,2.38a.18.18,0,0,0-.09.16v.53A.18.18,0,0,0,134.9,148.33Z"/><path class="cls-3" d="M140.34,145.22l4.09-2.34a.18.18,0,0,0,.09-.16v-.57a.18.18,0,0,0-.27-.16l-4.09,2.38a.18.18,0,0,0-.09.16v.53A.18.18,0,0,0,140.34,145.22Z"/><path class="cls-3" d="M145.67,142.15l4.09-2.34a.18.18,0,0,0,.09-.16v-.57a.18.18,0,0,0-.27-.16l-4.09,2.38a.18.18,0,0,0-.09.16V142A.18.18,0,0,0,145.67,142.15Z"/><path class="cls-3" d="M151,139l4.09-2.34a.18.18,0,0,0,.09-.16v-.57a.18.18,0,0,0-.27-.16l-4.09,2.38a.18.18,0,0,0-.09.16v.53A.18.18,0,0,0,151,139Z"/><path class="cls-3" d="M123.16,155l4.09-2.34a.18.18,0,0,0,.09-.16V152a.18.18,0,0,0-.27-.16L123,154.19a.18.18,0,0,0-.09.16v.53A.18.18,0,0,0,123.16,155Z"/><path class="cls-3" d="M117.66,158.22l4.09-2.34a.18.18,0,0,0,.09-.16v-.57a.18.18,0,0,0-.27-.16l-4.09,2.38a.18.18,0,0,0-.09.16v.53A.18.18,0,0,0,117.66,158.22Z"/><path class="cls-3" d="M129.16,149.67l4.09-2.34a.18.18,0,0,0,.09-.16v-.57a.18.18,0,0,0-.27-.16L129,148.83a.18.18,0,0,0-.09.16v.53A.18.18,0,0,0,129.16,149.67Z"/><path class="cls-3" d="M134.9,146.4l4.09-2.34a.18.18,0,0,0,.09-.16v-.57a.18.18,0,0,0-.27-.16l-4.09,2.38a.18.18,0,0,0-.09.16v.53A.18.18,0,0,0,134.9,146.4Z"/><path class="cls-3" d="M140.34,143.29l4.09-2.34a.18.18,0,0,0,.09-.16v-.57a.18.18,0,0,0-.27-.16l-4.09,2.38a.18.18,0,0,0-.09.16v.53A.18.18,0,0,0,140.34,143.29Z"/><path class="cls-3" d="M145.67,140.22l4.09-2.34a.18.18,0,0,0,.09-.16v-.57a.18.18,0,0,0-.27-.16l-4.09,2.38a.18.18,0,0,0-.09.16v.53A.18.18,0,0,0,145.67,140.22Z"/><path class="cls-3" d="M151,137.09l4.09-2.34a.18.18,0,0,0,.09-.16V134a.18.18,0,0,0-.27-.16l-4.09,2.38a.18.18,0,0,0-.09.16v.53A.18.18,0,0,0,151,137.09Z"/><path class="cls-3" d="M123.16,153.11l4.09-2.34a.18.18,0,0,0,.09-.16V150a.18.18,0,0,0-.27-.16L123,152.27a.18.18,0,0,0-.09.16V153A.18.18,0,0,0,123.16,153.11Z"/><path class="cls-3" d="M117.66,156.29l4.09-2.34a.18.18,0,0,0,.09-.16v-.57a.18.18,0,0,0-.27-.16l-4.09,2.38a.18.18,0,0,0-.09.16v.53A.18.18,0,0,0,117.66,156.29Z"/><path class="cls-3" d="M129.16,147.75l4.09-2.34a.18.18,0,0,0,.09-.16v-.57a.18.18,0,0,0-.27-.16L129,146.9a.18.18,0,0,0-.09.16v.53A.18.18,0,0,0,129.16,147.75Z"/><path class="cls-3" d="M134.9,144.47l4.09-2.34a.18.18,0,0,0,.09-.16v-.57a.18.18,0,0,0-.27-.16l-4.09,2.38a.18.18,0,0,0-.09.16v.53A.18.18,0,0,0,134.9,144.47Z"/><path class="cls-3" d="M140.34,141.37l4.09-2.34a.18.18,0,0,0,.09-.16v-.57a.18.18,0,0,0-.27-.16l-4.09,2.38a.18.18,0,0,0-.09.16v.53A.18.18,0,0,0,140.34,141.37Z"/><path class="cls-3" d="M145.67,138.29l4.09-2.34a.18.18,0,0,0,.09-.16v-.57a.18.18,0,0,0-.27-.16l-4.09,2.38a.18.18,0,0,0-.09.16v.53A.18.18,0,0,0,145.67,138.29Z"/><path class="cls-3" d="M151,135.16l4.09-2.34a.18.18,0,0,0,.09-.16v-.57a.18.18,0,0,0-.27-.16l-4.09,2.38a.18.18,0,0,0-.09.16V135A.18.18,0,0,0,151,135.16Z"/><path class="cls-3" d="M123.16,151.18l4.09-2.34a.18.18,0,0,0,.09-.16v-.57a.18.18,0,0,0-.27-.16L123,150.34a.18.18,0,0,0-.09.16V151A.18.18,0,0,0,123.16,151.18Z"/><path class="cls-3" d="M117.66,154.36l4.09-2.34a.18.18,0,0,0,.09-.16v-.57a.18.18,0,0,0-.27-.16l-4.09,2.38a.18.18,0,0,0-.09.16v.53A.18.18,0,0,0,117.66,154.36Z"/></g><ellipse class="cls-1" cx="23.63" cy="148.27" rx="1.04" ry="1.19"/><path class="cls-1" d="M15,115.14c0,.12-.07.23-.12.34a2.85,2.85,0,0,1-.29.54,2,2,0,0,1-.2.26.65.65,0,0,1-.22.16.43.43,0,0,1-.32,0,1.45,1.45,0,0,1-.3-.16,1.18,1.18,0,0,0-.3-.15.75.75,0,0,0-.3,0,1.23,1.23,0,0,0-.26.06,1,1,0,0,1-.24,0,.47.47,0,0,1-.34-.14,1.45,1.45,0,0,1-.25-.3,4.72,4.72,0,0,1-.66-1.62,4.24,4.24,0,0,1-.07-.48,3.35,3.35,0,0,1,0-.49,2,2,0,0,1,.16-.71,1.15,1.15,0,0,1,.36-.47.86.86,0,0,1,.51-.17.73.73,0,0,1,.23,0,1.19,1.19,0,0,1,.24.11l.25.15.19.1h.08l.3-.07a1.61,1.61,0,0,1,.32-.06.82.82,0,0,1,.3,0,1.45,1.45,0,0,1,.29.13,1.39,1.39,0,0,1,.52.57h0l-.11.07a.93.93,0,0,0-.32.42,1.21,1.21,0,0,0-.08.33,1.72,1.72,0,0,0,0,.56,1.55,1.55,0,0,0,.28.58,1.41,1.41,0,0,0,.31.31Z"/><path class="cls-1" d="M14.06,110.16v.07a1.21,1.21,0,0,1-.2.72,1.06,1.06,0,0,1-.3.31.6.6,0,0,1-.28.1.57.57,0,0,1-.18,0h0a.82.82,0,0,1,0-.2,1.2,1.2,0,0,1,.26-.66.85.85,0,0,1,.42-.28.68.68,0,0,1,.27,0Z"/><path class="cls-4" d="M40.47,66.08a5.65,5.65,0,0,1-.83,2,7.07,7.07,0,0,1-1.71,1.9,3,3,0,0,1-2.14.69,2.33,2.33,0,0,1-2.08-1.27,11.18,11.18,0,0,1-.83-3.1,6.44,6.44,0,0,0-.69-2.5c-.05-.08-.11-.12-.16-.13a.44.44,0,0,0-.34.13,5.94,5.94,0,0,0-2.15,3.17,29.13,29.13,0,0,0-1.37,4.74,3.86,3.86,0,0,1-.35,1.15.74.74,0,0,1-1.26,0,1.06,1.06,0,0,1-.11-.75,27.86,27.86,0,0,0,.46-6,70.53,70.53,0,0,1,.55-8.64A37.75,37.75,0,0,1,29,50.28,10.78,10.78,0,0,1,31.27,46a1.74,1.74,0,0,1,1.38-.48q1.68.15,1.68,3.42a17.66,17.66,0,0,1-.63,4.35,24.2,24.2,0,0,1-2,5,26.13,26.13,0,0,1-3.27,4.88v2.4q2.06-3.86,3.71-3.72a1.64,1.64,0,0,1,1.45,1,11.11,11.11,0,0,1,.69,2.7,15,15,0,0,0,.56,2.55A1.2,1.2,0,0,0,36,69a1.9,1.9,0,0,0,1.74-.66,10.19,10.19,0,0,0,1.23-2q.61-1.26.93-1.23a.59.59,0,0,1,.47.32A1,1,0,0,1,40.47,66.08ZM33,49.48a10.1,10.1,0,0,0-.13-1.41q-.13-.88-.37-.9t-.74.63a22.46,22.46,0,0,0-2,5.36,47.42,47.42,0,0,0-1.3,7.77,22.37,22.37,0,0,0,3.45-6.12A16.28,16.28,0,0,0,33,49.48Z"/><path class="cls-4" d="M49.84,66.85a9.6,9.6,0,0,1-1.64,2.37A8,8,0,0,1,45.88,71a4.63,4.63,0,0,1-2.48.52,3.91,3.91,0,0,1-3-1.84,6.81,6.81,0,0,1-1.11-3.87,8.92,8.92,0,0,1,.57-3.07,6.72,6.72,0,0,1,1.61-2.57,3,3,0,0,1,2.41-.89,1.86,1.86,0,0,1,1.43.78,3,3,0,0,1,.49,1.77,5.09,5.09,0,0,1-1.46,3.43,3.75,3.75,0,0,1-3.49,1.34,4.46,4.46,0,0,0,.92,2.26,2.67,2.67,0,0,0,1.9,1,4.34,4.34,0,0,0,2.82-.91,7.73,7.73,0,0,0,2.44-2.78.85.85,0,0,1,.16-.21.54.54,0,0,1,.34-.1.55.55,0,0,1,.47.36A.77.77,0,0,1,49.84,66.85Zm-5.41-4.6a2.32,2.32,0,0,0-.26-1.06q-.26-.52-.64-.55h-.16l-.26.07a2.3,2.3,0,0,0-1.54,1.36,6,6,0,0,0-.74,2.68,1.73,1.73,0,0,0,.8.25,2.15,2.15,0,0,0,1.32-.34A3.18,3.18,0,0,0,44,63.57,2.52,2.52,0,0,0,44.42,62.25Z"/><path class="cls-4" d="M57.87,68a8.79,8.79,0,0,1-1.18,2.85,5.76,5.76,0,0,1-1.81,1.83,3.39,3.39,0,0,1-2.07.51,3.27,3.27,0,0,1-2.54-1.53A8.57,8.57,0,0,1,49,68.36a20.39,20.39,0,0,1-.34-3.63,32.82,32.82,0,0,1,.26-4.06,36.21,36.21,0,0,1,.8-4.26,24,24,0,0,1,1.22-3.74,8.63,8.63,0,0,1,1.4-2.36,1.72,1.72,0,0,1,1.44-.66,1.69,1.69,0,0,1,1.4,1.1,4.86,4.86,0,0,1,.48,2.1,17.29,17.29,0,0,1-1.38,5.85,44.19,44.19,0,0,1-3.83,7.52l-.08.15a2.23,2.23,0,0,0,0,1.81,7.29,7.29,0,0,0,1.2,2.28,2.46,2.46,0,0,0,1.59,1.12A1.83,1.83,0,0,0,55,70.8a15.29,15.29,0,0,0,1.35-2.46q.73-1.6,1.11-1.56Q58.15,66.84,57.87,68ZM54.35,53.17a5.89,5.89,0,0,0-.05-.64,2.42,2.42,0,0,0-.22-.77q-.17-.35-.41-.37a.66.66,0,0,0-.58.31,7.84,7.84,0,0,0-1.49,2.67,21.44,21.44,0,0,0-1.06,4.32,35.67,35.67,0,0,0-.37,5.3v.22a30.19,30.19,0,0,0,3-5.78A15.14,15.14,0,0,0,54.35,53.17Z"/><path class="cls-4" d="M66.05,68.7a8.79,8.79,0,0,1-1.18,2.85,5.76,5.76,0,0,1-1.81,1.83,3.39,3.39,0,0,1-2.07.51,3.27,3.27,0,0,1-2.54-1.53,8.56,8.56,0,0,1-1.27-3.28,20.39,20.39,0,0,1-.34-3.63,32.86,32.86,0,0,1,.26-4.06,36.21,36.21,0,0,1,.8-4.26,24,24,0,0,1,1.22-3.74A8.63,8.63,0,0,1,60.52,51,1.72,1.72,0,0,1,62,50.36a1.69,1.69,0,0,1,1.4,1.1,4.86,4.86,0,0,1,.48,2.1,17.29,17.29,0,0,1-1.38,5.85,44.21,44.21,0,0,1-3.83,7.52l-.08.15a2.23,2.23,0,0,0,0,1.81,7.29,7.29,0,0,0,1.2,2.28,2.46,2.46,0,0,0,1.59,1.12,1.83,1.83,0,0,0,1.76-.77,15.3,15.3,0,0,0,1.35-2.46q.73-1.6,1.11-1.56Q66.33,67.55,66.05,68.7ZM62.52,53.89a5.89,5.89,0,0,0-.05-.64,2.42,2.42,0,0,0-.22-.77q-.17-.35-.41-.37a.66.66,0,0,0-.58.31,7.83,7.83,0,0,0-1.49,2.67,21.42,21.42,0,0,0-1.06,4.32,35.67,35.67,0,0,0-.37,5.3v.22a30.21,30.21,0,0,0,3-5.78A15.14,15.14,0,0,0,62.52,53.89Z"/><path class="cls-4" d="M80,69.53a3.19,3.19,0,0,1-1.59,1.81,4.68,4.68,0,0,1-2.64.49l-.27-.06-.33,0a6.47,6.47,0,0,1-2.59,2.76,5.85,5.85,0,0,1-3.59.92,4.17,4.17,0,0,1-2.24-.89,5.21,5.21,0,0,1-1.55-2,6.21,6.21,0,0,1-.55-2.57,6,6,0,0,1,.9-3.22,6.19,6.19,0,0,1,2.41-2.27,5.75,5.75,0,0,1,3.27-.65q1.84.16,2.12.79v.09a1.34,1.34,0,0,0,.38.08q1,.09,1.55,1.48a6.92,6.92,0,0,1,.57,2.61,5.54,5.54,0,0,1-.2,1.49,1.41,1.41,0,0,0,.42.08,3.47,3.47,0,0,0,3.07-1.5.43.43,0,0,1,.46-.25A.48.48,0,0,1,80,69,.64.64,0,0,1,80,69.53Zm-6.27,1.56Q71,69.15,71,66.68a3.32,3.32,0,0,1,.32-1.5,4.47,4.47,0,0,0-2.79.5,4.16,4.16,0,0,0-1.67,1.82A5.61,5.61,0,0,0,66.31,70a4.78,4.78,0,0,0,.87,2.81,3,3,0,0,0,2.21,1.36,3.55,3.55,0,0,0,2.46-.84A6,6,0,0,0,73.71,71.09Zm.62-2.46A2.83,2.83,0,0,0,74,67.26a2.56,2.56,0,0,0-.76-.9.17.17,0,0,1-.12-.06H73q-.54,0-.54.87a2.55,2.55,0,0,0,.43,1.33,4.29,4.29,0,0,0,1.25,1.27A3.86,3.86,0,0,0,74.33,68.63Z"/></svg>