<?xml version="1.0" encoding="utf-8"?>
<!-- Generator: Adobe Illustrator 22.1.0, SVG Export Plug-In . SVG Version: 6.00 Build 0)  -->
<svg version="1.1" id="Layer_1" xmlns="http://www.w3.org/2000/svg" xmlns:xlink="http://www.w3.org/1999/xlink" x="0px" y="0px"
	 viewBox="0 0 1366 768" style="enable-background:new 0 0 1366 768;" xml:space="preserve">
<style type="text/css">
	.st0{fill:none;stroke:#FFFFFF;stroke-miterlimit:10;}
	.st1{fill:none;stroke:#FFFFFF;stroke-linecap:round;stroke-linejoin:round;}
	.st2{fill:none;stroke:#FFFFFF;stroke-width:0.25;stroke-miterlimit:10;}
	.st3{fill:none;stroke:#F2F2F2;stroke-width:2;stroke-linecap:round;stroke-miterlimit:10;}
</style>
<path class="st0" d="M615.2,320.1l-1.4,69c0,0.8,0.6,1.4,1.3,1.5l78.5,9.3c1,0.1,1.9-0.6,2-1.6v-0.1l2.3-72c0-1.3-1-2.5-2.3-2.5
	l-79.2-4.6C615.7,319.1,615.2,319.5,615.2,320.1L615.2,320.1z"/>
<path class="st0" d="M694.6,330.6c0.1-2.1-1.4-3.9-3.5-4.1c-10.1-1.1-39.5-3.8-66.6-3.6c-2.7,0-4.9,2-5.2,4.7
	c-2.5,21.9-2.1,46.3-1.7,55.6c0.1,2.3,1.7,4.3,4,4.7c10.9,2.2,43.3,7.6,68.2,6.9c1.2,0,2.2-1,2.3-2.2L694.6,330.6z"/>
<path class="st0" d="M609,431.1l88.6,13.6c1,0.1,2-0.6,2.1-1.6c0-0.1,0-0.1,0-0.2l4.8-126.1c0-1-0.7-1.9-1.8-1.9l-91.4-3.9
	c-0.4,0-0.7,0.3-0.7,0.7l0,0L608.1,430C608.1,430.5,608.5,431,609,431.1z"/>
<path class="st0" d="M704.3,448.4l4.9-137.4c0.1-2.2-1.6-4-3.8-4.1l0,0l-92.7-3.4c-2.1,0-3.8,1.6-3.9,3.7l0,0l-2.8,127
	c0,1.4,1,2.6,2.4,2.9l91.8,14.6c1.9,0.3,3.7-1,4-2.9C704.3,448.7,704.3,448.5,704.3,448.4z"/>
<path class="st0" d="M704.4,306.8c8.3,0.5,9.3,0.9,9,7c-0.3,5.7-4.8,111.2-5.3,125c0,0.6,0.4,1.1,1,1.1c0.1,0,0.2,0,0.3,0l3.8-1.1
	c1-0.3,2,0.3,2.3,1.3c0,0.2,0.1,0.3,0.1,0.5l0.3,25.4c0,0.3,0.3,0.5,0.6,0.5c0.1,0,0.2,0,0.3-0.1l40.6-24.3c0.9-0.5,1.4-1.5,1.4-2.5
	l1.1-107.6c0-3.3-0.4-6.6-1.2-9.8l-2.4-9.5c-0.6-2.4-2.7-4.1-5.2-4.2L704.4,306.8z"/>
<path class="st0" d="M615.6,438.2c0,5.1,0,9.2,0,11c0,0.6,0.4,1.1,1,1.1l99.9,16.2"/>
<path class="st1" d="M679.6,417.9v0.4l-25.9-3.6v3l25.6,3.5c0.2,0,0.3,0.2,0.3,0.4v1l11.8,1.4v-4.8L679.6,417.9z"/>
<path class="st0" d="M693.7,415.9v10.6c0,0.6-0.5,1.1-1.1,1.1c-0.1,0-0.1,0-0.2,0l-15.8-2.2c-0.4,0-0.6-0.4-0.6-0.7v-2
	c0-0.4-0.3-0.7-0.6-0.7l-26-3.3c-0.4,0-0.6-0.3-0.6-0.7v-4.3c0-0.4,0.3-0.7,0.7-0.7h0.1l25.6,3.2c0.4,0,0.8-0.2,0.8-0.6v-0.1v-1.8
	c0-0.4,0.3-0.7,0.7-0.7h0.1l15.8,1.8C693.3,414.9,693.7,415.3,693.7,415.9z"/>
<path class="st0" d="M679.6,417.9V416c0-0.4,0.3-0.7,0.7-0.7h0.1l10.4,1.4c0.4,0,0.6,0.3,0.6,0.7v7.5c0,0.4-0.3,0.7-0.7,0.7h-0.1
	l-10.4-1.4c-0.4,0-0.6-0.3-0.6-0.7v-1.8c0-0.2-0.1-0.3-0.3-0.4l-26.8-3.7c-0.2,0-0.3-0.2-0.3-0.4V415c0-0.2,0.2-0.4,0.4-0.4
	c0,0,0,0,0.1,0l26.6,3.7C679.3,418.4,679.5,418.2,679.6,417.9C679.6,418,679.6,418,679.6,417.9z"/>
<g id="vents">
	<path class="st2" d="M731.2,453.5l4.1-2.3c0.1,0,0.1-0.1,0.1-0.2v-0.6c0-0.1-0.1-0.2-0.2-0.2h-0.1l-4.1,2.4c-0.1,0-0.1,0.1-0.1,0.2
		v0.5C730.9,453.4,731,453.5,731.2,453.5C731.1,453.5,731.1,453.5,731.2,453.5z"/>
	<path class="st2" d="M736.9,450.2l4.1-2.3c0.1,0,0.1-0.1,0.1-0.2v-0.6c0-0.1-0.1-0.2-0.2-0.2h-0.1l-4.1,2.4c-0.1,0-0.1,0.1-0.1,0.2
		v0.5c0,0.1,0.1,0.2,0.2,0.2C736.8,450.2,736.9,450.2,736.9,450.2z"/>
	<path class="st2" d="M742.3,447.1l4.1-2.3c0.1,0,0.1-0.1,0.1-0.2V444c0-0.1-0.1-0.2-0.2-0.2h-0.1l-4.1,2.4c-0.1,0-0.1,0.1-0.1,0.2
		v0.5C742,447,742.1,447.1,742.3,447.1C742.3,447.1,742.3,447.1,742.3,447.1z"/>
	<path class="st2" d="M747.7,444l4.1-2.3c0.1,0,0.1-0.1,0.1-0.2v-0.6c0-0.1-0.1-0.2-0.2-0.2h-0.1l-4.1,2.4c-0.1,0-0.1,0.1-0.1,0.2
		v0.5C747.4,443.9,747.5,444,747.7,444C747.6,444,747.6,444,747.7,444z"/>
	<path class="st2" d="M753,440.9l4.1-2.3c0.1,0,0.1-0.1,0.1-0.2v-0.6c0-0.1-0.1-0.2-0.2-0.2h-0.1l-4,2.4c-0.1,0-0.1,0.1-0.1,0.2v0.5
		C752.8,440.8,752.8,440.9,753,440.9L753,440.9z"/>
	<path class="st2" d="M725.2,456.9l4.1-2.3c0.1,0,0.1-0.1,0.1-0.2v-0.6c0-0.1-0.1-0.2-0.2-0.2h-0.1L725,456c-0.1,0-0.1,0.1-0.1,0.2
		v0.5c0,0.1,0,0.2,0.1,0.2S725.1,456.9,725.2,456.9z"/>
	<path class="st2" d="M719.7,460.1l4.1-2.3c0.1,0,0.1-0.1,0.1-0.2V457c0-0.1-0.1-0.2-0.2-0.2h-0.1l-4.1,2.4c-0.1,0-0.1,0.1-0.1,0.2
		v0.5C719.4,460,719.5,460.1,719.7,460.1C719.6,460.1,719.6,460.1,719.7,460.1z"/>
	<path class="st2" d="M731.2,451.5l4.1-2.3c0.1,0,0.1-0.1,0.1-0.2v-0.6c0-0.1-0.1-0.2-0.2-0.2h-0.1l-4.1,2.4c-0.1,0-0.1,0.1-0.1,0.2
		v0.5C730.9,451.5,731,451.6,731.2,451.5C731.1,451.5,731.1,451.5,731.2,451.5z"/>
	<path class="st2" d="M736.9,448.3l4.1-2.3c0.1,0,0.1-0.1,0.1-0.2v-0.6c0-0.1-0.1-0.2-0.2-0.2h-0.1l-4.1,2.4c-0.1,0-0.1,0.1-0.1,0.2
		v0.5C736.6,448.2,736.7,448.3,736.9,448.3C736.8,448.3,736.9,448.3,736.9,448.3z"/>
	<path class="st2" d="M742.3,445.1l4.1-2.3c0.1,0,0.1-0.1,0.1-0.2V442c0-0.1-0.1-0.2-0.2-0.2h-0.1l-4.1,2.4c-0.1,0-0.1,0.1-0.1,0.2
		v0.5C742.1,445.1,742.2,445.2,742.3,445.1C742.3,445.2,742.3,445.2,742.3,445.1z"/>
	<path class="st2" d="M747.7,442.1l4.1-2.3c0.1,0,0.1-0.1,0.1-0.2V439c0-0.1-0.1-0.2-0.2-0.2h-0.1l-4.1,2.4c-0.1,0-0.1,0.1-0.1,0.2
		v0.5C747.4,442,747.5,442.1,747.7,442.1C747.6,442.1,747.6,442.1,747.7,442.1z"/>
	<path class="st2" d="M753,438.9l4.1-2.3c0.1,0,0.1-0.1,0.1-0.2v-0.6c0-0.1-0.1-0.2-0.2-0.2h-0.1l-4.1,2.4c-0.1,0-0.1,0.1-0.1,0.2
		v0.5C752.7,438.9,752.8,439,753,438.9C752.9,439,753,439,753,438.9z"/>
	<path class="st2" d="M725.2,455l4.1-2.3c0.1,0,0.1-0.1,0.1-0.2v-0.6c0-0.1-0.1-0.2-0.2-0.2h-0.1l-4.1,2.4c-0.1,0-0.1,0.1-0.1,0.2
		v0.5C724.9,454.9,725,455,725.2,455C725.1,455,725.1,455,725.2,455z"/>
	<path class="st2" d="M719.7,458.1l4.1-2.3c0.1,0,0.1-0.1,0.1-0.2V455c0-0.1-0.1-0.2-0.2-0.2h-0.1l-4.1,2.4c-0.1,0-0.1,0.1-0.1,0.2
		v0.5C719.4,458.1,719.5,458.2,719.7,458.1C719.6,458.2,719.6,458.2,719.7,458.1z"/>
	<path class="st2" d="M731.2,449.6l4.1-2.3c0.1,0,0.1-0.1,0.1-0.2v-0.6c0-0.1-0.1-0.2-0.2-0.2h-0.1l-4.1,2.4c-0.1,0-0.1,0.1-0.1,0.2
		v0.5C730.9,449.5,731,449.6,731.2,449.6C731.1,449.6,731.1,449.6,731.2,449.6z"/>
	<path class="st2" d="M736.9,446.3l4.1-2.3c0.1,0,0.1-0.1,0.1-0.2v-0.6c0-0.1-0.1-0.2-0.2-0.2h-0.1l-4.1,2.4c-0.1,0-0.1,0.1-0.1,0.2
		v0.5C736.6,446.3,736.7,446.4,736.9,446.3L736.9,446.3z"/>
	<path class="st2" d="M742.3,443.2l4.1-2.3c0.1,0,0.1-0.1,0.1-0.2v-0.6c0-0.1-0.1-0.2-0.2-0.2h-0.1l-4.1,2.4c-0.1,0-0.1,0.1-0.1,0.2
		v0.5C742.1,443.2,742.1,443.2,742.3,443.2L742.3,443.2z"/>
	<path class="st2" d="M747.7,440.1l4.1-2.3c0.1,0,0.1-0.1,0.1-0.2V437c0-0.1-0.1-0.2-0.2-0.2h-0.1l-4.1,2.4c-0.1,0-0.1,0.1-0.1,0.2
		v0.5C747.4,440.1,747.5,440.2,747.7,440.1C747.6,440.2,747.6,440.2,747.7,440.1z"/>
	<path class="st2" d="M753,437l4.1-2.3c0.1,0,0.1-0.1,0.1-0.2v-0.6c0-0.1-0.1-0.2-0.2-0.2h-0.1l-4.1,2.4c-0.1,0-0.1,0.1-0.1,0.2v0.5
		C752.7,436.9,752.8,437,753,437C752.9,437,753,437,753,437z"/>
	<path class="st2" d="M725.2,453l4.1-2.3c0.1,0,0.1-0.1,0.1-0.2V450c0-0.1-0.1-0.2-0.2-0.2h-0.1l-4.1,2.4c-0.1,0-0.1,0.1-0.1,0.2
		v0.5C724.9,453,725,453,725.2,453C725.1,453,725.1,453,725.2,453z"/>
	<path class="st2" d="M719.7,456.2l4.1-2.3c0.1,0,0.1-0.1,0.1-0.2v-0.6c0-0.1-0.1-0.2-0.2-0.2h-0.1l-4.1,2.4c-0.1,0-0.1,0.1-0.1,0.2
		v0.5C719.4,456.2,719.5,456.2,719.7,456.2C719.6,456.2,719.6,456.2,719.7,456.2z"/>
	<path class="st2" d="M731.2,447.7l4.1-2.3c0.1,0,0.1-0.1,0.1-0.2v-0.6c0-0.1-0.1-0.2-0.2-0.2h-0.1l-4.1,2.4c-0.1,0-0.1,0.1-0.1,0.2
		v0.5C730.9,447.6,731,447.7,731.2,447.7C731.1,447.7,731.1,447.7,731.2,447.7z"/>
	<path class="st2" d="M736.9,444.4l4.1-2.3c0.1,0,0.1-0.1,0.1-0.2v-0.6c0-0.1-0.1-0.2-0.2-0.2h-0.1l-4.1,2.4c-0.1,0-0.1,0.1-0.1,0.2
		v0.5C736.6,444.3,736.7,444.4,736.9,444.4C736.8,444.4,736.9,444.4,736.9,444.4z"/>
	<path class="st2" d="M742.3,441.3l4.1-2.3c0.1,0,0.1-0.1,0.1-0.2v-0.6c0-0.1-0.1-0.2-0.2-0.2h-0.1l-4.1,2.4c-0.1,0-0.1,0.1-0.1,0.2
		v0.5C742.1,441.2,742.1,441.3,742.3,441.3L742.3,441.3z"/>
	<path class="st2" d="M747.7,438.2l4.1-2.3c0.1,0,0.1-0.1,0.1-0.2v-0.6c0-0.1-0.1-0.2-0.2-0.2h-0.1l-4.1,2.4c-0.1,0-0.1,0.1-0.1,0.2
		v0.5C747.4,438.2,747.5,438.2,747.7,438.2C747.6,438.2,747.6,438.2,747.7,438.2z"/>
	<path class="st2" d="M753,435.1l4.1-2.3c0.1,0,0.1-0.1,0.1-0.2V432c0-0.1-0.1-0.2-0.2-0.2h-0.1l-4.1,2.4c-0.1,0-0.1,0.1-0.1,0.2
		v0.5C752.7,435,752.8,435.1,753,435.1C752.9,435.1,753,435.1,753,435.1z"/>
	<path class="st2" d="M725.2,451.1l4.1-2.3c0.1,0,0.1-0.1,0.1-0.2V448c0-0.1-0.1-0.2-0.2-0.2h-0.1l-4.1,2.4c-0.1,0-0.1,0.1-0.1,0.2
		v0.6C724.9,451.1,725,451.1,725.2,451.1C725.1,451.1,725.2,451.1,725.2,451.1z"/>
	<path class="st2" d="M719.7,454.3l4.1-2.3c0.1,0,0.1-0.1,0.1-0.2v-0.6c0-0.1-0.1-0.2-0.2-0.2h-0.1l-4.1,2.4c-0.1,0-0.1,0.1-0.1,0.2
		v0.5C719.4,454.2,719.5,454.3,719.7,454.3C719.6,454.3,719.6,454.3,719.7,454.3z"/>
	<path class="st2" d="M731.2,445.8l4.1-2.3c0.1,0,0.1-0.1,0.1-0.2v-0.6c0-0.1-0.1-0.2-0.2-0.2h-0.1l-4.1,2.4c-0.1,0-0.1,0.1-0.1,0.2
		v0.5C730.9,445.7,731,445.8,731.2,445.8C731.1,445.8,731.1,445.8,731.2,445.8z"/>
	<path class="st2" d="M736.9,442.5l4.1-2.3c0.1,0,0.1-0.1,0.1-0.2v-0.6c0-0.1-0.1-0.2-0.2-0.2h-0.1l-4.1,2.4c-0.1,0-0.1,0.1-0.1,0.2
		v0.5C736.6,442.4,736.7,442.5,736.9,442.5C736.8,442.5,736.9,442.5,736.9,442.5z"/>
	<path class="st2" d="M742.3,439.4l4.1-2.3c0.1,0,0.1-0.1,0.1-0.2v-0.6c0-0.1-0.1-0.2-0.2-0.2h-0.1l-4.1,2.4c-0.1,0-0.1,0.1-0.1,0.2
		v0.5C742.1,439.3,742.1,439.4,742.3,439.4L742.3,439.4z"/>
	<path class="st2" d="M747.7,436.3l4.1-2.3c0.1,0,0.1-0.1,0.1-0.2v-0.6c0-0.1-0.1-0.2-0.2-0.2h-0.1l-4.1,2.4c-0.1,0-0.1,0.1-0.1,0.2
		v0.5C747.4,436.2,747.5,436.3,747.7,436.3C747.6,436.3,747.6,436.3,747.7,436.3z"/>
	<path class="st2" d="M753,433.2l4.1-2.3c0.1,0,0.1-0.1,0.1-0.2v-0.6c0-0.1-0.1-0.2-0.2-0.2h-0.1l-4.1,2.4c-0.1,0-0.1,0.1-0.1,0.2
		v0.5C752.7,433.1,752.8,433.2,753,433.2C752.9,433.2,753,433.2,753,433.2z"/>
	<path class="st2" d="M725.2,449.2l4.1-2.3c0.1,0,0.1-0.1,0.1-0.2v-0.6c0-0.1-0.1-0.2-0.2-0.2h-0.1l-4.1,2.4c-0.1,0-0.1,0.1-0.1,0.2
		v0.5C724.9,449.1,725,449.2,725.2,449.2C725.1,449.2,725.1,449.2,725.2,449.2z"/>
	<path class="st2" d="M719.7,452.4l4.1-2.3c0.1,0,0.1-0.1,0.1-0.2v-0.6c0-0.1-0.1-0.2-0.2-0.2h-0.1l-4.1,2.4c-0.1,0-0.1,0.1-0.1,0.2
		v0.5C719.4,452.3,719.5,452.4,719.7,452.4C719.6,452.4,719.6,452.4,719.7,452.4z"/>
</g>
<ellipse class="st0" cx="625.6" cy="446.3" rx="1" ry="1.2"/>
<path class="st0" d="M617,413.1c0,0.1-0.1,0.2-0.1,0.3c-0.1,0.2-0.2,0.4-0.3,0.5c-0.1,0.1-0.1,0.2-0.2,0.3c-0.1,0.1-0.1,0.1-0.2,0.2
	c-0.1,0-0.2,0-0.3,0c-0.1,0-0.2-0.1-0.3-0.2c-0.1-0.1-0.2-0.1-0.3-0.2c-0.1,0-0.2,0-0.3,0s-0.2,0-0.3,0.1c-0.1,0-0.2,0-0.2,0
	c-0.1,0-0.3,0-0.3-0.1c-0.1-0.1-0.2-0.2-0.3-0.3c-0.3-0.5-0.5-1-0.7-1.6c0-0.2-0.1-0.3-0.1-0.5s0-0.3,0-0.5s0.1-0.5,0.2-0.7
	c0.1-0.2,0.2-0.3,0.4-0.5c0.1-0.1,0.3-0.2,0.5-0.2c0.1,0,0.2,0,0.2,0c0.1,0,0.2,0.1,0.2,0.1l0.3,0.2l0.2,0.1h0.1l0.3-0.1
	c0.1,0,0.2-0.1,0.3-0.1c0.1,0,0.2,0,0.3,0c0.1,0,0.2,0.1,0.3,0.1c0.2,0.1,0.4,0.3,0.5,0.6l0,0l-0.1,0.1c-0.1,0.1-0.3,0.3-0.3,0.4
	s-0.1,0.2-0.1,0.3c0,0.2,0,0.4,0,0.6c0.1,0.2,0.1,0.4,0.3,0.6c0.1,0.1,0.2,0.2,0.3,0.3V413.1z"/>
<path class="st0" d="M616.1,408.2L616.1,408.2c0,0.3-0.1,0.6-0.2,0.8c-0.1,0.1-0.2,0.2-0.3,0.3c-0.1,0.1-0.2,0.1-0.3,0.1
	c-0.1,0-0.1,0-0.2,0l0,0c0-0.1,0-0.1,0-0.2c0-0.2,0.1-0.5,0.3-0.7c0.1-0.1,0.3-0.2,0.4-0.3C615.9,408.2,616,408.2,616.1,408.2
	L616.1,408.2z"/>
<path class="st3" d="M623.9,361.7c0,0,5.9-4.8,8.1-9.4c2.2-4.6,2.4-9.5,2.2-10.8c-0.2-1.4-1.5-2-3,0c-0.5,0.6-3.8,5.6-3.4,12.5
	c0.5,11.2,0.1,13.3-1,17c-0.4,1.1,0,0,0,0s2.6-7.2,3.8-9.9c0.5-1.1,0.9-1.9,1.9-1.8c0.9,0.1,1.3,0.7,1.5,1.6c0.5,2-0.2,7.4,3.4,6.7
	c0.9-0.1,1.4-0.2,3-1.5c1.7-1.4,7-4.2,7.7-6.5c0.8-2.7-1.4-3.4-1.4-3.4s-2.7-1.3-4.4,3.7c-0.9,2.8-1.2,7.4,4.1,9
	c4.6,1.4,8.9-4.7,11.3-11.2c1.3-3.6,2.3-5.6,2.3-9.4c0-2-0.4-2.9-0.8-3.3c-0.4-0.4-1.3-0.7-2.2,0.4c-5.6,7-3.3,22.1-2.8,23
	c0,0,1.3,4.5,6.1,1.2c2.7-1.9,6.5-7.4,8.2-12.6c1.1-3.5,1.4-6.4,1.4-7.7c0.1-2.3-0.6-3.4-1-3.8c-0.4-0.4-1.2-0.7-2.2,0.4
	c-1.3,1.4-4.9,5.8-3.3,21.1c0.8,3.8,2.7,4.5,4.4,4.3c0,0,3-0.2,4-3.2c3.2-9.5,9.6-6.4,9.8-5.8c-5.8-4.2-13.6,7.2-5.6,11.3
	c6.3,2.7,10.4-11.1,5.2-10.8c-5.2,0.3,2.8,11,7.7,4.2"/>
</svg>
